<svg width="384" height="188" viewBox="0 0 384 188" fill="none" xmlns="http://www.w3.org/2000/svg">
<rect x="0.5" y="0.5" width="383" height="187" fill="black" stroke="white"/>
<line x1="2.21724e-08" y1="39.75" x2="384" y2="39.75" stroke="white" stroke-width="0.5"/>
<circle cx="9.05967" cy="9.05967" r="8.55967" transform="matrix(-1 0 0 1 219.8 58.9497)" stroke="white"/>
<circle cx="9.05967" cy="9.05967" r="8.05967" transform="matrix(-1 0 0 1 225.375 58.9497)" stroke="white" stroke-width="2"/>
<circle cx="9.05967" cy="9.05967" r="9.05967" transform="matrix(-1 0 0 1 46.1191 126.339)" fill="#007D79"/>
<path d="M57.4634 139.126H56.5268L53.8827 132.248H54.7413L56.9951 138.238H57.0146L59.2488 132.248H60.1074L57.4634 139.126ZM62.5357 139.321C60.9649 139.321 59.8136 138.18 59.8136 136.609C59.8136 135.097 60.8674 134.004 62.3308 134.004C63.7748 134.004 64.7212 135.097 64.7407 136.619C64.7407 136.706 64.7407 136.814 64.731 136.911H60.5844C60.6917 137.936 61.482 138.648 62.5455 138.648C63.3163 138.648 63.9699 138.248 64.2431 137.711L64.8871 137.975C64.5651 138.765 63.6382 139.321 62.5357 139.321ZM60.5942 136.258H63.9504C63.8529 135.253 63.2187 134.687 62.3211 134.687C61.404 134.687 60.7308 135.321 60.5942 136.258ZM67.7479 141.37C66.5868 141.37 65.5039 140.843 65.0258 140.053L65.6014 139.565C65.9917 140.248 66.8307 140.697 67.7284 140.697C68.9479 140.697 69.7577 139.926 69.7577 138.736V138.189H69.748C69.3577 138.804 68.5772 139.185 67.8845 139.185C66.4307 139.185 65.4258 138.141 65.4258 136.628C65.4258 135.077 66.4307 134.023 67.8845 134.023C68.5967 134.023 69.3577 134.423 69.7577 134.999H69.7675L69.8455 134.199H70.509V138.736C70.509 140.336 69.4065 141.37 67.7479 141.37ZM67.982 138.511C69.0455 138.511 69.787 137.702 69.787 136.628C69.787 135.526 69.0455 134.687 67.982 134.687C66.9088 134.687 66.1673 135.477 66.1673 136.628C66.1673 137.741 66.9088 138.511 67.982 138.511ZM74.0073 139.321C72.4365 139.321 71.2852 138.18 71.2852 136.609C71.2852 135.097 72.3389 134.004 73.8024 134.004C75.2464 134.004 76.1928 135.097 76.2123 136.619C76.2123 136.706 76.2123 136.814 76.2025 136.911H72.056C72.1633 137.936 72.9536 138.648 74.0171 138.648C74.7878 138.648 75.4415 138.248 75.7147 137.711L76.3586 137.975C76.0367 138.765 75.1098 139.321 74.0073 139.321ZM72.0658 136.258H75.422C75.3244 135.253 74.6903 134.687 73.7927 134.687C72.8755 134.687 72.2023 135.321 72.0658 136.258ZM79.0386 139.321C78.1118 139.321 77.4874 138.697 77.4874 137.799V134.814H76.4044V134.199H77.4874V132.735L78.2289 132.56V134.199H80.4338V134.814H78.2289V137.721C78.2289 138.277 78.5703 138.677 79.1069 138.677C79.6045 138.677 80.0631 138.316 80.1607 137.682L80.7656 137.936C80.629 138.794 79.8777 139.321 79.0386 139.321ZM83.0945 139.321C81.9725 139.321 81.192 138.716 81.192 137.838C81.192 137.048 81.8164 136.414 83.4165 136.219L84.636 136.072C84.8799 136.043 85.036 135.906 85.036 135.692C85.036 135.077 84.4506 134.677 83.5921 134.677C82.6652 134.677 82.0115 135.272 81.9725 135.858L81.2993 135.575C81.3871 134.765 82.3432 134.004 83.6213 134.004C84.8799 134.004 85.7678 134.706 85.7678 135.809V138.306C85.7678 138.502 85.8751 138.638 86.0312 138.638C86.1678 138.638 86.3239 138.521 86.4312 138.345L86.8312 138.814C86.6264 139.116 86.2166 139.321 85.8361 139.321C85.358 139.321 85.0556 138.98 85.0263 138.531L85.0165 138.306H85.0068C84.6555 138.931 83.9726 139.321 83.0945 139.321ZM83.2213 138.648C84.2555 138.648 85.0165 137.975 85.0165 137.019V136.667L83.4945 136.853C82.3042 136.999 81.9335 137.38 81.9335 137.828C81.9335 138.326 82.4701 138.648 83.2213 138.648ZM89.9695 139.321C89.1402 139.321 88.467 138.931 88.0475 138.277H88.0377L87.9597 139.126H87.3157V131.955H88.0572V135.028H88.067C88.4963 134.384 89.1597 134.004 89.9793 134.004C91.4135 134.004 92.4769 135.126 92.4769 136.667C92.4769 138.199 91.4135 139.321 89.9695 139.321ZM89.8817 138.648C90.9452 138.648 91.7257 137.799 91.7257 136.667C91.7257 135.545 90.9549 134.687 89.8817 134.687C88.8182 134.687 88.0377 135.545 88.0377 136.667C88.0377 137.78 88.8182 138.648 89.8817 138.648ZM94.0026 139.126H93.2611V131.955H94.0026V139.126ZM97.5031 139.321C95.9323 139.321 94.781 138.18 94.781 136.609C94.781 135.097 95.8347 134.004 97.2982 134.004C98.7422 134.004 99.6886 135.097 99.7081 136.619C99.7081 136.706 99.7081 136.814 99.6983 136.911H95.5518C95.6591 137.936 96.4494 138.648 97.5129 138.648C98.2836 138.648 98.9373 138.248 99.2105 137.711L99.8544 137.975C99.5325 138.765 98.6056 139.321 97.5031 139.321ZM95.5615 136.258H98.9178C98.8202 135.253 98.1861 134.687 97.2885 134.687C96.3713 134.687 95.6981 135.321 95.5615 136.258ZM102.618 139.321C101.388 139.321 100.374 138.687 100.286 137.633L101.018 137.487C101.076 138.17 101.74 138.648 102.618 138.648C103.388 138.648 103.984 138.287 103.984 137.78C103.984 137.399 103.623 137.165 102.793 136.999L102.013 136.843C100.988 136.628 100.549 136.219 100.549 135.497C100.559 134.638 101.32 134.004 102.374 134.004C103.408 134.004 104.179 134.56 104.364 135.36L103.652 135.555C103.584 135.038 103.066 134.657 102.364 134.657C101.74 134.657 101.281 135.038 101.271 135.458C101.271 135.819 101.564 136.023 102.247 136.17L103.047 136.326C104.208 136.57 104.706 136.98 104.706 137.711C104.706 138.638 103.808 139.321 102.618 139.321Z" fill="white"/>
<circle cx="9.05967" cy="9.05967" r="9.05967" transform="matrix(-1 0 0 1 278.119 126)" fill="#8A3FFC"/>
<path d="M290.041 138.803C287.963 138.803 286.461 137.252 286.461 135.125C286.461 132.989 287.944 131.437 289.992 131.437C291.358 131.437 292.568 132.306 292.978 133.515L292.227 133.759C291.905 132.823 291.007 132.159 289.983 132.159C288.402 132.159 287.27 133.389 287.27 135.125C287.27 136.833 288.461 138.081 290.11 138.081C291.622 138.081 292.822 136.969 292.822 135.486H288.997V134.764H293.651V138.56H292.968L292.89 137.233H292.88C292.285 138.208 291.271 138.803 290.041 138.803ZM295.266 138.56H294.525V131.388H295.266V138.56ZM297.85 138.755C296.727 138.755 295.947 138.15 295.947 137.272C295.947 136.481 296.571 135.847 298.171 135.652L299.391 135.506C299.635 135.476 299.791 135.34 299.791 135.125C299.791 134.511 299.206 134.111 298.347 134.111C297.42 134.111 296.767 134.706 296.727 135.291L296.054 135.008C296.142 134.198 297.098 133.437 298.376 133.437C299.635 133.437 300.523 134.14 300.523 135.242V137.74C300.523 137.935 300.63 138.072 300.786 138.072C300.923 138.072 301.079 137.955 301.186 137.779L301.586 138.247C301.381 138.55 300.972 138.755 300.591 138.755C300.113 138.755 299.811 138.413 299.781 137.964L299.772 137.74H299.762C299.411 138.364 298.728 138.755 297.85 138.755ZM297.976 138.081C299.011 138.081 299.772 137.408 299.772 136.452V136.101L298.25 136.286C297.059 136.433 296.688 136.813 296.688 137.262C296.688 137.76 297.225 138.081 297.976 138.081ZM303.814 138.755C302.585 138.755 301.57 138.121 301.483 137.067L302.214 136.92C302.273 137.603 302.936 138.081 303.814 138.081C304.585 138.081 305.18 137.721 305.18 137.213C305.18 136.833 304.819 136.599 303.99 136.433L303.21 136.277C302.185 136.062 301.746 135.652 301.746 134.93C301.756 134.072 302.517 133.437 303.571 133.437C304.605 133.437 305.376 133.993 305.561 134.794L304.849 134.989C304.78 134.472 304.263 134.091 303.561 134.091C302.936 134.091 302.478 134.472 302.468 134.891C302.468 135.252 302.761 135.457 303.444 135.603L304.244 135.759C305.405 136.003 305.902 136.413 305.902 137.145C305.902 138.072 305.005 138.755 303.814 138.755ZM308.626 138.755C307.397 138.755 306.382 138.121 306.294 137.067L307.026 136.92C307.085 137.603 307.748 138.081 308.626 138.081C309.397 138.081 309.992 137.721 309.992 137.213C309.992 136.833 309.631 136.599 308.802 136.433L308.021 136.277C306.997 136.062 306.558 135.652 306.558 134.93C306.567 134.072 307.328 133.437 308.382 133.437C309.416 133.437 310.187 133.993 310.373 134.794L309.66 134.989C309.592 134.472 309.075 134.091 308.372 134.091C307.748 134.091 307.289 134.472 307.28 134.891C307.28 135.252 307.572 135.457 308.255 135.603L309.055 135.759C310.216 136.003 310.714 136.413 310.714 137.145C310.714 138.072 309.816 138.755 308.626 138.755Z" fill="white"/>
<path d="M62.2099 72H61.4001V65.8436H59.0976V65.1216H64.5125V65.8436H62.2099V72ZM66.5573 72.1951C66.0369 72.1951 65.5784 72.0846 65.1816 71.8634C64.7849 71.6423 64.4759 71.3333 64.2547 70.9365C64.0401 70.5333 63.9328 70.0682 63.9328 69.5413C63.9328 69.008 64.0401 68.5429 64.2547 68.1462C64.4759 67.7429 64.7849 67.4307 65.1816 67.2095C65.5784 66.9884 66.0369 66.8778 66.5573 66.8778C67.0842 66.8778 67.546 66.9884 67.9427 67.2095C68.3395 67.4307 68.6452 67.7429 68.8598 68.1462C69.081 68.5429 69.1916 69.008 69.1916 69.5413C69.1916 70.0682 69.081 70.5333 68.8598 70.9365C68.6452 71.3333 68.3395 71.6423 67.9427 71.8634C67.546 72.0846 67.0842 72.1951 66.5573 72.1951ZM66.5573 71.5219C67.1297 71.5219 67.585 71.3431 67.9232 70.9853C68.2679 70.6211 68.4403 70.1397 68.4403 69.5413C68.4403 68.9429 68.2679 68.4649 67.9232 68.1071C67.585 67.7429 67.1297 67.5608 66.5573 67.5608C65.9849 67.5608 65.5264 67.7429 65.1816 68.1071C64.8434 68.4649 64.6743 68.9429 64.6743 69.5413C64.6743 70.1397 64.8434 70.6211 65.1816 70.9853C65.5264 71.3431 65.9849 71.5219 66.5573 71.5219ZM71.9244 72.1951C71.4626 72.1951 71.0886 72.0553 70.8024 71.7756C70.5162 71.4894 70.3731 71.1219 70.3731 70.6731V67.6876H69.2901V67.0729H70.3731V65.6095L71.1146 65.4338V67.0729H73.3196V67.6876H71.1146V70.5951C71.1146 70.8747 71.1927 71.1056 71.3488 71.2878C71.5114 71.4634 71.726 71.5512 71.9927 71.5512C72.2529 71.5512 72.4805 71.4634 72.6757 71.2878C72.8773 71.1056 73.0009 70.8617 73.0464 70.556L73.6513 70.8097C73.5863 71.226 73.3879 71.561 73.0562 71.8146C72.7309 72.0683 72.3537 72.1951 71.9244 72.1951ZM75.9802 72.1951C75.6095 72.1951 75.2778 72.1333 74.9851 72.0098C74.6989 71.8862 74.4745 71.7106 74.3119 71.4829C74.1558 71.2552 74.0777 70.9983 74.0777 70.7121C74.0777 70.2959 74.2566 69.9446 74.6143 69.6584C74.9721 69.3722 75.5347 69.1836 76.3022 69.0925L77.5218 68.9462C77.6454 68.9332 77.7429 68.8942 77.8145 68.8291C77.886 68.7576 77.9218 68.6698 77.9218 68.5657C77.9218 68.26 77.7884 68.0161 77.5218 67.8339C77.2551 67.6453 76.9071 67.551 76.4778 67.551C76.1786 67.551 75.9087 67.6095 75.668 67.7266C75.4274 67.8372 75.2355 67.9835 75.0924 68.1657C74.9493 68.3478 74.8712 68.5364 74.8582 68.7316L74.185 68.4486C74.2175 68.1754 74.3379 67.9185 74.546 67.6778C74.7542 67.4372 75.0306 67.2453 75.3753 67.1022C75.7201 66.9526 76.0973 66.8778 76.5071 66.8778C76.9234 66.8778 77.2941 66.9526 77.6193 67.1022C77.9446 67.2518 78.1982 67.4632 78.3803 67.7364C78.5625 68.0031 78.6535 68.3185 78.6535 68.6828V71.1804C78.6535 71.278 78.6763 71.3593 78.7218 71.4244C78.7739 71.4829 78.8389 71.5122 78.917 71.5122C78.982 71.5122 79.0503 71.4862 79.1218 71.4341C79.1999 71.3821 79.2649 71.3105 79.317 71.2195L79.717 71.6878C79.6129 71.8374 79.4666 71.9577 79.278 72.0488C79.0958 72.1463 78.9105 72.1951 78.7218 72.1951C78.4877 72.1951 78.2958 72.1203 78.1462 71.9707C78.0031 71.8211 77.925 71.6325 77.912 71.4048L77.9023 71.1804H77.8925C77.7169 71.4992 77.4632 71.7496 77.1315 71.9317C76.7998 72.1073 76.416 72.1951 75.9802 72.1951ZM76.1071 71.5219C76.4453 71.5219 76.751 71.4536 77.0242 71.317C77.2974 71.1739 77.512 70.9788 77.6681 70.7316C77.8242 70.4845 77.9023 70.2048 77.9023 69.8926V69.5413L76.3803 69.7267C75.3396 69.8568 74.8192 70.182 74.8192 70.7024C74.8192 70.9495 74.9395 71.1479 75.1802 71.2975C75.4209 71.4471 75.7298 71.5219 76.1071 71.5219ZM80.943 72H80.2015V64.8289H80.943V72ZM86.1846 72.1951C85.8139 72.1951 85.4821 72.1333 85.1894 72.0098C84.9032 71.8862 84.6788 71.7106 84.5162 71.4829C84.3601 71.2552 84.2821 70.9983 84.2821 70.7121C84.2821 70.2959 84.4609 69.9446 84.8187 69.6584C85.1764 69.3722 85.7391 69.1836 86.5066 69.0925L87.7261 68.9462C87.8497 68.9332 87.9473 68.8942 88.0188 68.8291C88.0904 68.7576 88.1262 68.6698 88.1262 68.5657C88.1262 68.26 87.9928 68.0161 87.7261 67.8339C87.4595 67.6453 87.1115 67.551 86.6822 67.551C86.383 67.551 86.1131 67.6095 85.8724 67.7266C85.6317 67.8372 85.4399 67.9835 85.2968 68.1657C85.1537 68.3478 85.0756 68.5364 85.0626 68.7316L84.3894 68.4486C84.4219 68.1754 84.5423 67.9185 84.7504 67.6778C84.9585 67.4372 85.235 67.2453 85.5797 67.1022C85.9244 66.9526 86.3017 66.8778 86.7115 66.8778C87.1277 66.8778 87.4985 66.9526 87.8237 67.1022C88.1489 67.2518 88.4026 67.4632 88.5847 67.7364C88.7668 68.0031 88.8579 68.3185 88.8579 68.6828V71.1804C88.8579 71.278 88.8807 71.3593 88.9262 71.4244C88.9782 71.4829 89.0433 71.5122 89.1213 71.5122C89.1864 71.5122 89.2547 71.4862 89.3262 71.4341C89.4043 71.3821 89.4693 71.3105 89.5214 71.2195L89.9214 71.6878C89.8173 71.8374 89.671 71.9577 89.4823 72.0488C89.3002 72.1463 89.1148 72.1951 88.9262 72.1951C88.692 72.1951 88.5002 72.1203 88.3506 71.9707C88.2075 71.8211 88.1294 71.6325 88.1164 71.4048L88.1066 71.1804H88.0969C87.9213 71.4992 87.6676 71.7496 87.3359 71.9317C87.0042 72.1073 86.6204 72.1951 86.1846 72.1951ZM86.3114 71.5219C86.6497 71.5219 86.9554 71.4536 87.2286 71.317C87.5017 71.1739 87.7164 70.9788 87.8725 70.7316C88.0286 70.4845 88.1066 70.2048 88.1066 69.8926V69.5413L86.5846 69.7267C85.5439 69.8568 85.0236 70.182 85.0236 70.7024C85.0236 70.9495 85.1439 71.1479 85.3846 71.2975C85.6252 71.4471 85.9342 71.5219 86.3114 71.5219ZM90.4058 72V67.0729H91.0498L91.1278 67.7949H91.1376C91.2807 67.5087 91.5051 67.2843 91.8108 67.1217C92.1165 66.9591 92.4677 66.8778 92.8645 66.8778C93.2483 66.8778 93.5702 66.9656 93.8304 67.1412C94.0971 67.3103 94.2955 67.5543 94.4255 67.873H94.4353C94.6499 67.5413 94.9166 67.2941 95.2353 67.1315C95.5541 66.9624 95.9053 66.8778 96.2891 66.8778C96.8289 66.8778 97.2484 67.0404 97.5476 67.3656C97.8468 67.6909 97.9964 68.1429 97.9964 68.7218V72H97.2452V68.7706C97.2452 68.3933 97.1411 68.0974 96.933 67.8827C96.7248 67.6681 96.4354 67.5608 96.0646 67.5608C95.6028 67.5608 95.2386 67.7169 94.9719 68.0291C94.7052 68.3413 94.5719 68.7511 94.5719 69.2584V72H93.8304V68.7706C93.8304 68.3868 93.7263 68.0909 93.5182 67.8827C93.31 67.6681 93.0173 67.5608 92.6401 67.5608C92.1783 67.5608 91.814 67.7169 91.5474 68.0291C91.2807 68.3413 91.1473 68.7511 91.1473 69.2584V72H90.4058ZM101.353 72.1951C100.833 72.1951 100.374 72.0846 99.9775 71.8634C99.5807 71.6423 99.2718 71.3333 99.0506 70.9365C98.836 70.5333 98.7286 70.0682 98.7286 69.5413C98.7286 69.008 98.836 68.5429 99.0506 68.1462C99.2718 67.7429 99.5807 67.4307 99.9775 67.2095C100.374 66.9884 100.833 66.8778 101.353 66.8778C101.88 66.8778 102.342 66.9884 102.739 67.2095C103.135 67.4307 103.441 67.7429 103.656 68.1462C103.877 68.5429 103.987 69.008 103.987 69.5413C103.987 70.0682 103.877 70.5333 103.656 70.9365C103.441 71.3333 103.135 71.6423 102.739 71.8634C102.342 72.0846 101.88 72.1951 101.353 72.1951ZM101.353 71.5219C101.926 71.5219 102.381 71.3431 102.719 70.9853C103.064 70.6211 103.236 70.1397 103.236 69.5413C103.236 68.9429 103.064 68.4649 102.719 68.1071C102.381 67.7429 101.926 67.5608 101.353 67.5608C100.781 67.5608 100.322 67.7429 99.9775 68.1071C99.6393 68.4649 99.4701 68.9429 99.4701 69.5413C99.4701 70.1397 99.6393 70.6211 99.9775 70.9853C100.322 71.3431 100.781 71.5219 101.353 71.5219ZM106.54 72.1951C105.974 72.1951 105.529 72.0228 105.203 71.678C104.878 71.3333 104.716 70.8585 104.716 70.2536V67.0729H105.467V70.1755C105.467 70.5983 105.581 70.9333 105.808 71.1804C106.042 71.4276 106.355 71.5512 106.745 71.5512C107.07 71.5512 107.36 71.4796 107.613 71.3366C107.873 71.1935 108.075 70.9951 108.218 70.7414C108.368 70.4812 108.443 70.1853 108.443 69.8536V67.0729H109.184V72H108.511L108.443 71.2683H108.433C107.997 71.8862 107.366 72.1951 106.54 72.1951ZM112.801 66.8778C113.367 66.8778 113.813 67.0502 114.138 67.3949C114.463 67.7396 114.626 68.2145 114.626 68.8194V72H113.874V68.8974C113.874 68.4746 113.757 68.1397 113.523 67.8925C113.296 67.6453 112.987 67.5217 112.596 67.5217C112.271 67.5217 111.978 67.5933 111.718 67.7364C111.465 67.8795 111.263 68.0811 111.113 68.3413C110.97 68.595 110.899 68.8877 110.899 69.2194V72H110.157V67.0729H110.83L110.899 67.8047H110.908C111.344 67.1868 111.975 66.8778 112.801 66.8778ZM117.506 72.1951C117.044 72.1951 116.67 72.0553 116.384 71.7756C116.098 71.4894 115.955 71.1219 115.955 70.6731V67.6876H114.872V67.0729H115.955V65.6095L116.696 65.4338V67.0729H118.901V67.6876H116.696V70.5951C116.696 70.8747 116.774 71.1056 116.93 71.2878C117.093 71.4634 117.307 71.5512 117.574 71.5512C117.834 71.5512 118.062 71.4634 118.257 71.2878C118.459 71.1056 118.582 70.8617 118.628 70.556L119.233 70.8097C119.168 71.226 118.969 71.561 118.638 71.8146C118.312 72.0683 117.935 72.1951 117.506 72.1951ZM124.849 72.1951C124.329 72.1951 123.87 72.0846 123.473 71.8634C123.077 71.6423 122.768 71.3333 122.546 70.9365C122.332 70.5333 122.224 70.0682 122.224 69.5413C122.224 69.008 122.332 68.5429 122.546 68.1462C122.768 67.7429 123.077 67.4307 123.473 67.2095C123.87 66.9884 124.329 66.8778 124.849 66.8778C125.376 66.8778 125.838 66.9884 126.234 67.2095C126.631 67.4307 126.937 67.7429 127.152 68.1462C127.373 68.5429 127.483 69.008 127.483 69.5413C127.483 70.0682 127.373 70.5333 127.152 70.9365C126.937 71.3333 126.631 71.6423 126.234 71.8634C125.838 72.0846 125.376 72.1951 124.849 72.1951ZM124.849 71.5219C125.421 71.5219 125.877 71.3431 126.215 70.9853C126.56 70.6211 126.732 70.1397 126.732 69.5413C126.732 68.9429 126.56 68.4649 126.215 68.1071C125.877 67.7429 125.421 67.5608 124.849 67.5608C124.277 67.5608 123.818 67.7429 123.473 68.1071C123.135 68.4649 122.966 68.9429 122.966 69.5413C122.966 70.1397 123.135 70.6211 123.473 70.9853C123.818 71.3431 124.277 71.5219 124.849 71.5219ZM128.636 72L128.626 67.6876H127.543V67.0729H128.626V66.2144C128.626 65.7591 128.773 65.3916 129.065 65.1119C129.365 64.8257 129.752 64.6826 130.226 64.6826C130.656 64.6826 131.02 64.7997 131.319 65.0338C131.625 65.268 131.823 65.5704 131.914 65.9412L131.261 66.2144C131.209 65.9607 131.088 65.7493 130.9 65.5802C130.711 65.4111 130.496 65.3265 130.256 65.3265C129.996 65.3265 129.781 65.4208 129.612 65.6095C129.449 65.7981 129.368 66.042 129.368 66.3412V67.0729H131.495V67.6876H129.368L129.378 72H128.636ZM137.278 72H136.312L134.673 67.0729H135.453L136.77 71.2683H136.78L138.078 67.0729H139.005L140.322 71.278H140.332L141.639 67.0729H142.41L140.79 72H139.834L138.546 67.8535H138.527L137.278 72ZM144.419 72.1951C144.048 72.1951 143.717 72.1333 143.424 72.0098C143.138 71.8862 142.913 71.7106 142.751 71.4829C142.595 71.2552 142.517 70.9983 142.517 70.7121C142.517 70.2959 142.695 69.9446 143.053 69.6584C143.411 69.3722 143.974 69.1836 144.741 69.0925L145.961 68.9462C146.084 68.9332 146.182 68.8942 146.253 68.8291C146.325 68.7576 146.361 68.6698 146.361 68.5657C146.361 68.26 146.227 68.0161 145.961 67.8339C145.694 67.6453 145.346 67.551 144.917 67.551C144.617 67.551 144.348 67.6095 144.107 67.7266C143.866 67.8372 143.674 67.9835 143.531 68.1657C143.388 68.3478 143.31 68.5364 143.297 68.7316L142.624 68.4486C142.656 68.1754 142.777 67.9185 142.985 67.6778C143.193 67.4372 143.469 67.2453 143.814 67.1022C144.159 66.9526 144.536 66.8778 144.946 66.8778C145.362 66.8778 145.733 66.9526 146.058 67.1022C146.383 67.2518 146.637 67.4632 146.819 67.7364C147.001 68.0031 147.092 68.3185 147.092 68.6828V71.1804C147.092 71.278 147.115 71.3593 147.161 71.4244C147.213 71.4829 147.278 71.5122 147.356 71.5122C147.421 71.5122 147.489 71.4862 147.561 71.4341C147.639 71.3821 147.704 71.3105 147.756 71.2195L148.156 71.6878C148.052 71.8374 147.905 71.9577 147.717 72.0488C147.535 72.1463 147.349 72.1951 147.161 72.1951C146.927 72.1951 146.735 72.1203 146.585 71.9707C146.442 71.8211 146.364 71.6325 146.351 71.4048L146.341 71.1804H146.331C146.156 71.4992 145.902 71.7496 145.57 71.9317C145.239 72.1073 144.855 72.1951 144.419 72.1951ZM144.546 71.5219C144.884 71.5219 145.19 71.4536 145.463 71.317C145.736 71.1739 145.951 70.9788 146.107 70.7316C146.263 70.4845 146.341 70.2048 146.341 69.8926V69.5413L144.819 69.7267C143.778 69.8568 143.258 70.182 143.258 70.7024C143.258 70.9495 143.378 71.1479 143.619 71.2975C143.86 71.4471 144.169 71.5219 144.546 71.5219ZM150.384 72.1951C149.974 72.1951 149.597 72.1268 149.252 71.9902C148.908 71.8537 148.628 71.6585 148.413 71.4048C148.199 71.1512 148.078 70.852 148.052 70.5072L148.784 70.3609C148.81 70.6991 148.973 70.9788 149.272 71.2C149.571 71.4146 149.942 71.5219 150.384 71.5219C150.774 71.5219 151.1 71.4406 151.36 71.278C151.62 71.1154 151.75 70.9073 151.75 70.6536C151.75 70.465 151.656 70.3089 151.467 70.1853C151.278 70.0617 150.976 69.9576 150.56 69.8731L149.779 69.717C149.265 69.6129 148.891 69.4535 148.657 69.2389C148.43 69.0242 148.316 68.7348 148.316 68.3706C148.316 68.0844 148.394 67.8307 148.55 67.6095C148.712 67.3819 148.93 67.203 149.204 67.0729C149.483 66.9428 149.795 66.8778 150.14 66.8778C150.654 66.8778 151.09 67.0046 151.448 67.2583C151.812 67.5055 152.039 67.8307 152.131 68.234L151.418 68.4291C151.386 68.1689 151.249 67.9543 151.009 67.7852C150.768 67.6161 150.475 67.5315 150.13 67.5315C149.825 67.5315 149.568 67.6128 149.36 67.7754C149.152 67.9315 149.044 68.1169 149.038 68.3315C149.038 68.5137 149.112 68.66 149.262 68.7706C149.418 68.8812 149.669 68.9722 150.013 69.0438L150.813 69.1999C151.392 69.3234 151.812 69.4958 152.072 69.717C152.339 69.9316 152.472 70.2211 152.472 70.5853C152.472 70.891 152.381 71.1674 152.199 71.4146C152.017 71.6553 151.766 71.8471 151.448 71.9902C151.129 72.1268 150.774 72.1951 150.384 72.1951ZM155.112 72.1951C154.651 72.1951 154.277 72.0553 153.99 71.7756C153.704 71.4894 153.561 71.1219 153.561 70.6731V67.6876H152.478V67.0729H153.561V65.6095L154.303 65.4338V67.0729H156.508V67.6876H154.303V70.5951C154.303 70.8747 154.381 71.1056 154.537 71.2878C154.699 71.4634 154.914 71.5512 155.181 71.5512C155.441 71.5512 155.669 71.4634 155.864 71.2878C156.065 71.1056 156.189 70.8617 156.234 70.556L156.839 70.8097C156.774 71.226 156.576 71.561 156.244 71.8146C155.919 72.0683 155.542 72.1951 155.112 72.1951ZM159.895 72.1951C159.381 72.1951 158.916 72.0781 158.5 71.8439C158.083 71.6097 157.758 71.2878 157.524 70.878C157.29 70.4617 157.173 69.9967 157.173 69.4828C157.173 68.982 157.28 68.5364 157.495 68.1462C157.709 67.7494 158.009 67.4404 158.392 67.2193C158.776 66.9916 159.209 66.8778 159.69 66.8778C160.165 66.8778 160.581 66.9916 160.939 67.2193C161.303 67.4404 161.586 67.7494 161.788 68.1462C161.989 68.5364 162.093 68.9852 162.1 69.4926C162.1 69.6227 162.097 69.7202 162.09 69.7853H157.944C157.996 70.2991 158.204 70.7186 158.568 71.0439C158.932 71.3626 159.378 71.5219 159.905 71.5219C160.282 71.5219 160.623 71.4341 160.929 71.2585C161.235 71.0829 161.459 70.8585 161.602 70.5853L162.246 70.8487C162.084 71.2455 161.788 71.5707 161.358 71.8244C160.929 72.0715 160.441 72.1951 159.895 72.1951ZM161.31 69.1316C161.264 68.6372 161.095 68.2535 160.802 67.9803C160.509 67.7006 160.135 67.5608 159.68 67.5608C159.225 67.5608 158.841 67.7071 158.529 67.9998C158.217 68.286 158.025 68.6633 157.953 69.1316H161.31ZM167.034 73.8537C166.578 73.3594 166.204 72.683 165.912 71.8244C165.625 70.9593 165.482 70.1105 165.482 69.2779C165.482 68.4454 165.625 67.603 165.912 66.751C166.204 65.8989 166.578 65.2257 167.034 64.7314L167.316 64.9655C166.881 65.4664 166.526 66.12 166.253 66.9266C165.986 67.7266 165.853 68.5104 165.853 69.2779C165.853 70.0454 165.99 70.8357 166.263 71.6488C166.536 72.4553 166.887 73.109 167.316 73.6098L167.034 73.8537ZM168.542 72H167.801V64.8289H168.542V69.2974H168.552L170.64 67.0729H171.625L169.762 69.0145L171.791 72H170.894L169.255 69.5511L168.542 70.2926V72ZM173.968 74.244C173.389 74.244 172.849 74.1237 172.348 73.883C171.854 73.6424 171.486 73.3236 171.246 72.9269L171.821 72.439C172.017 72.7838 172.306 73.057 172.69 73.2586C173.08 73.4667 173.5 73.5708 173.948 73.5708C174.56 73.5708 175.051 73.3919 175.422 73.0342C175.792 72.6765 175.978 72.2016 175.978 71.6097V71.0634H175.968C175.779 71.3626 175.509 71.6032 175.158 71.7854C174.813 71.9675 174.462 72.0585 174.104 72.0585C173.623 72.0585 173.197 71.9512 172.826 71.7366C172.456 71.5219 172.166 71.2227 171.958 70.839C171.75 70.4487 171.646 70.0032 171.646 69.5023C171.646 68.9885 171.75 68.5364 171.958 68.1462C172.166 67.7494 172.456 67.4437 172.826 67.229C173.197 67.0079 173.623 66.8973 174.104 66.8973C174.462 66.8973 174.813 66.9884 175.158 67.1705C175.503 67.3526 175.776 67.5868 175.978 67.873H175.988L176.066 67.0729H176.729V71.6097C176.729 72.1366 176.615 72.5984 176.388 72.9952C176.16 73.3919 175.835 73.6976 175.412 73.9123C174.996 74.1334 174.514 74.244 173.968 74.244ZM174.202 71.3853C174.553 71.3853 174.866 71.304 175.139 71.1414C175.412 70.9788 175.623 70.7544 175.773 70.4682C175.929 70.182 176.007 69.8601 176.007 69.5023C176.007 69.1381 175.929 68.8096 175.773 68.5169C175.623 68.2177 175.412 67.9835 175.139 67.8144C174.866 67.6453 174.553 67.5608 174.202 67.5608C173.851 67.5608 173.535 67.6421 173.256 67.8047C172.982 67.9673 172.768 68.1982 172.612 68.4974C172.462 68.7901 172.387 69.1251 172.387 69.5023C172.387 69.8666 172.462 70.1918 172.612 70.478C172.768 70.7642 172.982 70.9886 173.256 71.1512C173.535 71.3073 173.851 71.3853 174.202 71.3853ZM176.917 73.6098C177.373 73.083 177.73 72.426 177.99 71.639C178.251 70.8455 178.381 70.0584 178.381 69.2779C178.381 68.4974 178.251 67.7169 177.99 66.9363C177.73 66.1558 177.373 65.4989 176.917 64.9655L177.2 64.7314C177.681 65.2517 178.059 65.9282 178.332 66.7607C178.612 67.5868 178.751 68.4258 178.751 69.2779C178.751 70.13 178.612 70.9756 178.332 71.8146C178.059 72.6537 177.681 73.3334 177.2 73.8537L176.917 73.6098Z" fill="white"/>
<path d="M242.917 66H238.585V59.1216H239.395V65.278H242.917V66ZM245.691 66.1951C244.11 66.1951 243.066 65.1414 243.066 63.5413C243.066 61.9315 244.11 60.8778 245.691 60.8778C247.281 60.8778 248.325 61.9315 248.325 63.5413C248.325 65.1414 247.281 66.1951 245.691 66.1951ZM245.691 65.5219C246.832 65.5219 247.574 64.7414 247.574 63.5413C247.574 62.3413 246.832 61.5608 245.691 61.5608C244.549 61.5608 243.808 62.3413 243.808 63.5413C243.808 64.7414 244.549 65.5219 245.691 65.5219ZM251.126 66H250.16L248.521 61.0729H249.302L250.619 65.2683H250.628L251.926 61.0729H252.853L254.17 65.278H254.18L255.487 61.0729H256.258L254.638 66H253.682L252.394 61.8535H252.375L251.126 66ZM262.573 63.7853H258.963V63.1121H262.573V63.7853ZM266.403 66H265.661V58.8289H266.403V61.8047H266.413C266.832 61.2095 267.447 60.8778 268.305 60.8778C269.437 60.8778 270.13 61.5998 270.13 62.8194V66H269.379V62.8974C269.379 62.0583 268.881 61.5217 268.101 61.5217C267.115 61.5217 266.403 62.2145 266.403 63.2194V66ZM271.503 60.1168C271.171 60.1168 270.957 59.9021 270.957 59.5704C270.957 59.2485 271.171 59.0338 271.503 59.0338C271.825 59.0338 272.059 59.2485 272.059 59.5704C272.059 59.9021 271.825 60.1168 271.503 60.1168ZM271.864 66H271.122V61.0729H271.864V66ZM275.077 68.244C273.916 68.244 272.833 67.7172 272.355 66.9269L272.931 66.439C273.321 67.122 274.16 67.5708 275.058 67.5708C276.277 67.5708 277.087 66.8 277.087 65.6097V65.0634H277.077C276.687 65.678 275.907 66.0585 275.214 66.0585C273.76 66.0585 272.755 65.0146 272.755 63.5023C272.755 61.951 273.76 60.8973 275.214 60.8973C275.926 60.8973 276.687 61.2973 277.087 61.873H277.097L277.175 61.0729H277.838V65.6097C277.838 67.2098 276.736 68.244 275.077 68.244ZM275.312 65.3853C276.375 65.3853 277.117 64.5755 277.117 63.5023C277.117 62.3998 276.375 61.5608 275.312 61.5608C274.238 61.5608 273.497 62.351 273.497 63.5023C273.497 64.6146 274.238 65.3853 275.312 65.3853ZM279.551 66H278.81V58.8289H279.551V61.8047H279.561C279.981 61.2095 280.595 60.8778 281.454 60.8778C282.586 60.8778 283.278 61.5998 283.278 62.8194V66H282.527V62.8974C282.527 62.0583 282.03 61.5217 281.249 61.5217C280.264 61.5217 279.551 62.2145 279.551 63.2194V66ZM288.998 60.868C289.837 60.868 290.412 61.4242 290.51 62.4096L289.866 62.6242C289.788 61.9315 289.427 61.5608 288.89 61.5608C288.1 61.5608 287.602 62.2145 287.602 63.2877V66H286.861V61.0729H287.495L287.563 61.8437H287.573C287.846 61.2486 288.373 60.868 288.998 60.868ZM293.628 66.1951C292.057 66.1951 290.906 65.0536 290.906 63.4828C290.906 61.9705 291.959 60.8778 293.423 60.8778C294.867 60.8778 295.813 61.9705 295.833 63.4926C295.833 63.5804 295.833 63.6877 295.823 63.7853H291.676C291.784 64.8097 292.574 65.5219 293.638 65.5219C294.408 65.5219 295.062 65.1219 295.335 64.5853L295.979 64.8487C295.657 65.639 294.73 66.1951 293.628 66.1951ZM291.686 63.1316H295.043C294.945 62.1266 294.311 61.5608 293.413 61.5608C292.496 61.5608 291.823 62.1949 291.686 63.1316ZM299.113 66.1951C297.581 66.1951 296.508 65.0926 296.508 63.5413C296.508 61.9803 297.523 60.8778 298.967 60.8778C300.079 60.8778 300.986 61.5705 301.23 62.5657L300.508 62.7316C300.313 62.0193 299.689 61.5608 298.967 61.5608C297.981 61.5608 297.25 62.3608 297.25 63.5413C297.25 64.7219 298.04 65.5219 299.113 65.5219C300.011 65.5219 300.752 64.9463 300.889 64.0975L301.611 64.2438C301.425 65.3756 300.381 66.1951 299.113 66.1951ZM304.189 68.244C302.969 68.244 302.062 67.7367 301.681 66.9561L302.316 66.5269C302.628 67.1513 303.291 67.5708 304.169 67.5708C305.282 67.5708 305.965 66.9464 305.965 65.9024V65.4731H305.955C305.613 66.0488 304.95 66.3903 304.267 66.3903C303.038 66.3903 302.238 65.4731 302.238 64.2145V61.0729H302.979V64.2145C302.979 65.0926 303.496 65.7171 304.355 65.7171C305.213 65.7171 305.955 65.0439 305.955 64.1072V61.0729H306.696L306.706 65.9024C306.706 67.3757 305.73 68.244 304.189 68.244ZM310.089 66.1951C308.557 66.1951 307.484 65.0926 307.484 63.5413C307.484 61.9803 308.499 60.8778 309.943 60.8778C311.055 60.8778 311.963 61.5705 312.206 62.5657L311.484 62.7316C311.289 62.0193 310.665 61.5608 309.943 61.5608C308.958 61.5608 308.226 62.3608 308.226 63.5413C308.226 64.7219 309.016 65.5219 310.089 65.5219C310.987 65.5219 311.728 64.9463 311.865 64.0975L312.587 64.2438C312.402 65.3756 311.358 66.1951 310.089 66.1951ZM314.014 66H313.272V58.8289H314.014V66ZM315.436 60.1168C315.104 60.1168 314.89 59.9021 314.89 59.5704C314.89 59.2485 315.104 59.0338 315.436 59.0338C315.758 59.0338 315.992 59.2485 315.992 59.5704C315.992 59.9021 315.758 60.1168 315.436 60.1168ZM315.797 66H315.056V61.0729H315.797V66ZM319.518 60.8778C320.65 60.8778 321.342 61.5998 321.342 62.8194V66H320.591V62.8974C320.591 62.0583 320.093 61.5217 319.313 61.5217C318.328 61.5217 317.615 62.2145 317.615 63.2194V66H316.874V61.0729H317.547L317.615 61.8047H317.625C318.045 61.2095 318.659 60.8778 319.518 60.8778ZM324.403 68.244C323.242 68.244 322.159 67.7172 321.681 66.9269L322.257 66.439C322.647 67.122 323.486 67.5708 324.384 67.5708C325.603 67.5708 326.413 66.8 326.413 65.6097V65.0634H326.403C326.013 65.678 325.233 66.0585 324.54 66.0585C323.086 66.0585 322.081 65.0146 322.081 63.5023C322.081 61.951 323.086 60.8973 324.54 60.8973C325.252 60.8973 326.013 61.2973 326.413 61.873H326.423L326.501 61.0729H327.164V65.6097C327.164 67.2098 326.062 68.244 324.403 68.244ZM324.637 65.3853C325.701 65.3853 326.442 64.5755 326.442 63.5023C326.442 62.3998 325.701 61.5608 324.637 61.5608C323.564 61.5608 322.823 62.351 322.823 63.5023C322.823 64.6146 323.564 65.3853 324.637 65.3853ZM241.015 79.1951C239.444 79.1951 238.293 78.0536 238.293 76.4828C238.293 74.9705 239.346 73.8778 240.81 73.8778C242.254 73.8778 243.2 74.9705 243.22 76.4926C243.22 76.5804 243.22 76.6877 243.21 76.7853H239.063C239.171 77.8097 239.961 78.5219 241.025 78.5219C241.795 78.5219 242.449 78.1219 242.722 77.5853L243.366 77.8487C243.044 78.639 242.117 79.1951 241.015 79.1951ZM239.073 76.1316H242.429C242.332 75.1266 241.698 74.5608 240.8 74.5608C239.883 74.5608 239.21 75.1949 239.073 76.1316ZM245.208 79H244.466L244.456 74.6876H243.374V74.0729H244.456V73.2144C244.456 72.307 245.1 71.6826 246.057 71.6826C246.925 71.6826 247.569 72.2094 247.744 72.9412L247.091 73.2144C246.983 72.707 246.574 72.3265 246.086 72.3265C245.569 72.3265 245.198 72.7363 245.198 73.3412V74.0729H247.325V74.6876H245.198L245.208 79ZM249.591 79H248.849L248.839 74.6876H247.756V74.0729H248.839V73.2144C248.839 72.307 249.483 71.6826 250.439 71.6826C251.308 71.6826 251.952 72.2094 252.127 72.9412L251.474 73.2144C251.366 72.707 250.956 72.3265 250.469 72.3265C249.952 72.3265 249.581 72.7363 249.581 73.3412V74.0729H251.708V74.6876H249.581L249.591 79ZM253.066 73.1168C252.735 73.1168 252.52 72.9021 252.52 72.5704C252.52 72.2485 252.735 72.0338 253.066 72.0338C253.388 72.0338 253.623 72.2485 253.623 72.5704C253.623 72.9021 253.388 73.1168 253.066 73.1168ZM253.427 79H252.686V74.0729H253.427V79ZM256.914 79.1951C255.382 79.1951 254.309 78.0926 254.309 76.5413C254.309 74.9803 255.324 73.8778 256.768 73.8778C257.88 73.8778 258.787 74.5705 259.031 75.5657L258.309 75.7316C258.114 75.0193 257.49 74.5608 256.768 74.5608C255.782 74.5608 255.051 75.3608 255.051 76.5413C255.051 77.7219 255.841 78.5219 256.914 78.5219C257.812 78.5219 258.553 77.9463 258.69 77.0975L259.412 77.2438C259.226 78.3756 258.182 79.1951 256.914 79.1951ZM260.546 73.1168C260.214 73.1168 260 72.9021 260 72.5704C260 72.2485 260.214 72.0338 260.546 72.0338C260.868 72.0338 261.102 72.2485 261.102 72.5704C261.102 72.9021 260.868 73.1168 260.546 73.1168ZM260.907 79H260.165V74.0729H260.907V79ZM264.511 79.1951C262.94 79.1951 261.788 78.0536 261.788 76.4828C261.788 74.9705 262.842 73.8778 264.306 73.8778C265.75 73.8778 266.696 74.9705 266.716 76.4926C266.716 76.5804 266.716 76.6877 266.706 76.7853H262.559C262.667 77.8097 263.457 78.5219 264.52 78.5219C265.291 78.5219 265.945 78.1219 266.218 77.5853L266.862 77.8487C266.54 78.639 265.613 79.1951 264.511 79.1951ZM262.569 76.1316H265.925C265.828 75.1266 265.194 74.5608 264.296 74.5608C263.379 74.5608 262.706 75.1949 262.569 76.1316ZM270.23 73.8778C271.362 73.8778 272.055 74.5998 272.055 75.8194V79H271.303V75.8974C271.303 75.0583 270.806 74.5217 270.025 74.5217C269.04 74.5217 268.328 75.2145 268.328 76.2194V79H267.586V74.0729H268.259L268.328 74.8047H268.337C268.757 74.2095 269.371 73.8778 270.23 73.8778ZM275.389 79.1951C273.857 79.1951 272.784 78.0926 272.784 76.5413C272.784 74.9803 273.798 73.8778 275.242 73.8778C276.355 73.8778 277.262 74.5705 277.506 75.5657L276.784 75.7316C276.589 75.0193 275.964 74.5608 275.242 74.5608C274.257 74.5608 273.525 75.3608 273.525 76.5413C273.525 77.7219 274.315 78.5219 275.389 78.5219C276.286 78.5219 277.028 77.9463 277.164 77.0975L277.886 77.2438C277.701 78.3756 276.657 79.1951 275.389 79.1951ZM280.464 81.244C279.245 81.244 278.338 80.7367 277.957 79.9561L278.591 79.5269C278.903 80.1513 279.567 80.5708 280.445 80.5708C281.557 80.5708 282.24 79.9464 282.24 78.9024V78.4731H282.23C281.889 79.0488 281.225 79.3903 280.543 79.3903C279.313 79.3903 278.513 78.4731 278.513 77.2145V74.0729H279.255V77.2145C279.255 78.0926 279.772 78.7171 280.63 78.7171C281.489 78.7171 282.23 78.0439 282.23 77.1072V74.0729H282.972L282.982 78.9024C282.982 80.3757 282.006 81.244 280.464 81.244ZM287.355 81.0489H286.613V74.0729H287.257L287.335 74.9218H287.345C287.764 74.2681 288.438 73.8778 289.267 73.8778C290.711 73.8778 291.774 74.9998 291.774 76.5413C291.774 78.0731 290.711 79.1951 289.277 79.1951C288.457 79.1951 287.794 78.8146 287.364 78.1804H287.355V81.0489ZM289.179 78.5122C290.252 78.5122 291.023 77.6536 291.023 76.5413C291.023 75.3998 290.243 74.5608 289.179 74.5608C288.116 74.5608 287.335 75.4193 287.335 76.5413C287.335 77.6536 288.116 78.5122 289.179 78.5122ZM295.086 79.1951C293.515 79.1951 292.363 78.0536 292.363 76.4828C292.363 74.9705 293.417 73.8778 294.881 73.8778C296.325 73.8778 297.271 74.9705 297.291 76.4926C297.291 76.5804 297.291 76.6877 297.281 76.7853H293.134C293.242 77.8097 294.032 78.5219 295.095 78.5219C295.866 78.5219 296.52 78.1219 296.793 77.5853L297.437 77.8487C297.115 78.639 296.188 79.1951 295.086 79.1951ZM293.144 76.1316H296.5C296.403 75.1266 295.769 74.5608 294.871 74.5608C293.954 74.5608 293.281 75.1949 293.144 76.1316ZM300.298 73.868C301.137 73.868 301.712 74.4242 301.81 75.4096L301.166 75.6242C301.088 74.9315 300.727 74.5608 300.19 74.5608C299.4 74.5608 298.903 75.2145 298.903 76.2877V79H298.161V74.0729H298.795L298.863 74.8437H298.873C299.146 74.2486 299.673 73.868 300.298 73.868ZM307.564 79.1951C306.033 79.1951 304.959 78.0926 304.959 76.5413C304.959 74.9803 305.974 73.8778 307.418 73.8778C308.53 73.8778 309.438 74.5705 309.682 75.5657L308.96 75.7316C308.764 75.0193 308.14 74.5608 307.418 74.5608C306.433 74.5608 305.701 75.3608 305.701 76.5413C305.701 77.7219 306.491 78.5219 307.564 78.5219C308.462 78.5219 309.203 77.9463 309.34 77.0975L310.062 77.2438C309.877 78.3756 308.833 79.1951 307.564 79.1951ZM312.357 79.1951C311.235 79.1951 310.455 78.5902 310.455 77.7121C310.455 76.9219 311.079 76.2877 312.679 76.0925L313.899 75.9462C314.143 75.9169 314.299 75.7803 314.299 75.5657C314.299 74.951 313.713 74.551 312.855 74.551C311.928 74.551 311.274 75.1462 311.235 75.7316L310.562 75.4486C310.65 74.6388 311.606 73.8778 312.884 73.8778C314.143 73.8778 315.031 74.5803 315.031 75.6828V78.1804C315.031 78.3756 315.138 78.5122 315.294 78.5122C315.431 78.5122 315.587 78.3951 315.694 78.2195L316.094 78.6878C315.889 78.9902 315.479 79.1951 315.099 79.1951C314.621 79.1951 314.318 78.8537 314.289 78.4048L314.279 78.1804H314.269C313.918 78.8049 313.235 79.1951 312.357 79.1951ZM312.484 78.5219C313.518 78.5219 314.279 77.8487 314.279 76.8926V76.5413L312.757 76.7267C311.567 76.8731 311.196 77.2536 311.196 77.7024C311.196 78.2 311.733 78.5219 312.484 78.5219ZM317.32 81.0489H316.578V74.0729H317.222L317.3 74.9218H317.31C317.73 74.2681 318.403 73.8778 319.232 73.8778C320.676 73.8778 321.74 74.9998 321.74 76.5413C321.74 78.0731 320.676 79.1951 319.242 79.1951C318.422 79.1951 317.759 78.8146 317.33 78.1804H317.32V81.0489ZM319.144 78.5122C320.218 78.5122 320.988 77.6536 320.988 76.5413C320.988 75.3998 320.208 74.5608 319.144 74.5608C318.081 74.5608 317.3 75.4193 317.3 76.5413C317.3 77.6536 318.081 78.5122 319.144 78.5122ZM322.973 73.1168C322.641 73.1168 322.426 72.9021 322.426 72.5704C322.426 72.2485 322.641 72.0338 322.973 72.0338C323.295 72.0338 323.529 72.2485 323.529 72.5704C323.529 72.9021 323.295 73.1168 322.973 73.1168ZM323.334 79H322.592V74.0729H323.334V79ZM326.557 79.1951C325.63 79.1951 325.006 78.5707 325.006 77.6731V74.6876H323.923V74.0729H325.006V72.6095L325.747 72.4338V74.0729H327.952V74.6876H325.747V77.5951C325.747 78.1512 326.089 78.5512 326.625 78.5512C327.123 78.5512 327.581 78.1902 327.679 77.556L328.284 77.8097C328.147 78.6683 327.396 79.1951 326.557 79.1951ZM330.613 79.1951C329.491 79.1951 328.71 78.5902 328.71 77.7121C328.71 76.9219 329.335 76.2877 330.935 76.0925L332.154 75.9462C332.398 75.9169 332.554 75.7803 332.554 75.5657C332.554 74.951 331.969 74.551 331.11 74.551C330.183 74.551 329.53 75.1462 329.491 75.7316L328.817 75.4486C328.905 74.6388 329.861 73.8778 331.14 73.8778C332.398 73.8778 333.286 74.5803 333.286 75.6828V78.1804C333.286 78.3756 333.393 78.5122 333.549 78.5122C333.686 78.5122 333.842 78.3951 333.949 78.2195L334.349 78.6878C334.145 78.9902 333.735 79.1951 333.354 79.1951C332.876 79.1951 332.574 78.8537 332.544 78.4048L332.535 78.1804H332.525C332.174 78.8049 331.491 79.1951 330.613 79.1951ZM330.739 78.5219C331.774 78.5219 332.535 77.8487 332.535 76.8926V76.5413L331.013 76.7267C329.822 76.8731 329.452 77.2536 329.452 77.7024C329.452 78.2 329.988 78.5219 330.739 78.5219ZM339.443 76.3852H339.073V75.0486C339.073 74.7852 338.917 74.6876 338.692 74.8242L337.531 75.4974L337.346 75.1754L338.497 74.5022C338.721 74.3656 338.721 74.19 338.497 74.0534L337.346 73.39L337.531 73.0583L338.692 73.7315C338.917 73.868 339.073 73.7705 339.073 73.5071V72.1704H339.443V73.5071C339.443 73.7705 339.609 73.868 339.834 73.7315L340.995 73.0583L341.18 73.39L340.019 74.0534C339.795 74.19 339.795 74.3656 340.019 74.5022L341.18 75.1754L340.995 75.4974L339.834 74.8242C339.609 74.6876 339.443 74.7852 339.443 75.0486V76.3852ZM348.696 79H344.393V78.278H346.335V73.2144H346.325C346.062 73.6241 345.525 73.8973 344.881 74.1022L344.637 73.3022C345.506 73.107 346.091 72.707 346.403 72.1216H347.155V78.278H348.696V79ZM352.015 79.2439C350.268 79.2439 349.088 77.6926 349.088 75.5657C349.088 73.429 350.268 71.8777 352.015 71.8777C353.751 71.8777 354.932 73.429 354.932 75.5657C354.932 77.6926 353.751 79.2439 352.015 79.2439ZM352.015 78.5219C353.283 78.5219 354.122 77.2731 354.122 75.5657C354.122 73.8485 353.283 72.5997 352.015 72.5997C350.746 72.5997 349.897 73.8485 349.897 75.5657C349.897 77.2731 350.746 78.5219 352.015 78.5219ZM357.073 76.1463C356.206 76.1463 355.597 75.6078 355.551 74.8058L356.019 74.7121C356.048 75.3092 356.47 75.7132 357.067 75.7132C357.67 75.7132 358.068 75.3151 358.068 74.6946C358.068 74.0916 357.681 73.6935 357.09 73.6935C356.792 73.6935 356.475 73.834 356.323 74.0389L355.984 73.9336L356.113 71.873H358.132V72.3062H356.546L356.446 73.5472C356.598 73.3891 356.909 73.2838 357.219 73.2838C358.027 73.2838 358.554 73.834 358.554 74.6829C358.554 75.5727 357.974 76.1463 357.073 76.1463Z" fill="white"/>
<path d="M62.3075 106H61.1172L59.0976 99.1216H59.9366L61.7221 105.21H61.7416L63.2636 99.1216H64.5222L66.054 105.21H66.0735L67.8394 99.1216H68.6785L66.6687 106H65.4686L63.9076 99.9119H63.888L62.3075 106ZM70.4636 106.195C70.0928 106.195 69.7611 106.133 69.4684 106.01C69.1822 105.886 68.9578 105.711 68.7952 105.483C68.6391 105.255 68.5611 104.998 68.5611 104.712C68.5611 104.296 68.7399 103.945 69.0977 103.658C69.4554 103.372 70.018 103.184 70.7855 103.093L72.0051 102.946C72.1287 102.933 72.2263 102.894 72.2978 102.829C72.3694 102.758 72.4051 102.67 72.4051 102.566C72.4051 102.26 72.2718 102.016 72.0051 101.834C71.7384 101.645 71.3905 101.551 70.9612 101.551C70.662 101.551 70.392 101.61 70.1514 101.727C69.9107 101.837 69.7188 101.984 69.5757 102.166C69.4326 102.348 69.3546 102.536 69.3416 102.732L68.6684 102.449C68.7009 102.175 68.8212 101.919 69.0294 101.678C69.2375 101.437 69.5139 101.245 69.8587 101.102C70.2034 100.953 70.5807 100.878 70.9904 100.878C71.4067 100.878 71.7775 100.953 72.1027 101.102C72.4279 101.252 72.6816 101.463 72.8637 101.736C73.0458 102.003 73.1369 102.319 73.1369 102.683V105.18C73.1369 105.278 73.1596 105.359 73.2052 105.424C73.2572 105.483 73.3223 105.512 73.4003 105.512C73.4653 105.512 73.5336 105.486 73.6052 105.434C73.6832 105.382 73.7483 105.311 73.8003 105.219L74.2003 105.688C74.0963 105.837 73.9499 105.958 73.7613 106.049C73.5792 106.146 73.3938 106.195 73.2052 106.195C72.971 106.195 72.7791 106.12 72.6295 105.971C72.4864 105.821 72.4084 105.633 72.3954 105.405L72.3856 105.18H72.3759C72.2002 105.499 71.9466 105.75 71.6149 105.932C71.2831 106.107 70.8994 106.195 70.4636 106.195ZM70.5904 105.522C70.9286 105.522 71.2343 105.454 71.5075 105.317C71.7807 105.174 71.9954 104.979 72.1515 104.732C72.3076 104.484 72.3856 104.205 72.3856 103.893V103.541L70.8636 103.727C69.8229 103.857 69.3025 104.182 69.3025 104.702C69.3025 104.95 69.4229 105.148 69.6635 105.298C69.9042 105.447 70.2132 105.522 70.5904 105.522ZM76.4286 106.195C76.0188 106.195 75.6415 106.127 75.2968 105.99C74.9521 105.854 74.6724 105.659 74.4577 105.405C74.2431 105.151 74.1228 104.852 74.0968 104.507L74.8285 104.361C74.8545 104.699 75.0171 104.979 75.3163 105.2C75.6155 105.415 75.9863 105.522 76.4286 105.522C76.8188 105.522 77.1441 105.441 77.4042 105.278C77.6644 105.115 77.7945 104.907 77.7945 104.654C77.7945 104.465 77.7002 104.309 77.5116 104.185C77.3229 104.062 77.0205 103.958 76.6042 103.873L75.8237 103.717C75.3098 103.613 74.9358 103.454 74.7017 103.239C74.474 103.024 74.3602 102.735 74.3602 102.371C74.3602 102.084 74.4382 101.831 74.5943 101.61C74.757 101.382 74.9748 101.203 75.248 101.073C75.5277 100.943 75.8399 100.878 76.1847 100.878C76.6985 100.878 77.1343 101.005 77.492 101.258C77.8563 101.505 78.0839 101.831 78.175 102.234L77.4628 102.429C77.4302 102.169 77.2937 101.954 77.053 101.785C76.8123 101.616 76.5196 101.531 76.1749 101.531C75.8692 101.531 75.6123 101.613 75.4041 101.775C75.196 101.932 75.0887 102.117 75.0822 102.332C75.0822 102.514 75.157 102.66 75.3066 102.771C75.4627 102.881 75.7131 102.972 76.0578 103.044L76.8579 103.2C77.4368 103.323 77.8563 103.496 78.1165 103.717C78.3831 103.932 78.5165 104.221 78.5165 104.585C78.5165 104.891 78.4254 105.167 78.2433 105.415C78.0612 105.655 77.8108 105.847 77.492 105.99C77.1733 106.127 76.8188 106.195 76.4286 106.195ZM81.1569 106.195C80.6951 106.195 80.3211 106.055 80.0349 105.776C79.7487 105.489 79.6056 105.122 79.6056 104.673V101.688H78.5227V101.073H79.6056V99.6095L80.3471 99.4338V101.073H82.5521V101.688H80.3471V104.595C80.3471 104.875 80.4252 105.106 80.5813 105.288C80.7439 105.463 80.9585 105.551 81.2252 105.551C81.4854 105.551 81.713 105.463 81.9082 105.288C82.1098 105.106 82.2334 104.862 82.2789 104.556L82.8838 104.81C82.8188 105.226 82.6204 105.561 82.2887 105.815C81.9635 106.068 81.5862 106.195 81.1569 106.195ZM85.9393 106.195C85.4255 106.195 84.9604 106.078 84.5441 105.844C84.1279 105.61 83.8026 105.288 83.5685 104.878C83.3343 104.462 83.2172 103.997 83.2172 103.483C83.2172 102.982 83.3246 102.536 83.5392 102.146C83.7538 101.749 84.0531 101.44 84.4368 101.219C84.8206 100.992 85.2531 100.878 85.7344 100.878C86.2093 100.878 86.6255 100.992 86.9833 101.219C87.3475 101.44 87.6305 101.749 87.8321 102.146C88.0337 102.536 88.1378 102.985 88.1443 103.493C88.1443 103.623 88.1411 103.72 88.1345 103.785H83.988C84.04 104.299 84.2482 104.719 84.6124 105.044C84.9767 105.363 85.4222 105.522 85.9491 105.522C86.3263 105.522 86.6678 105.434 86.9735 105.259C87.2792 105.083 87.5036 104.858 87.6467 104.585L88.2907 104.849C88.128 105.245 87.8321 105.571 87.4028 105.824C86.9735 106.072 86.4857 106.195 85.9393 106.195ZM87.354 103.132C87.3085 102.637 87.1394 102.253 86.8467 101.98C86.554 101.701 86.18 101.561 85.7247 101.561C85.2694 101.561 84.8856 101.707 84.5734 102C84.2612 102.286 84.0693 102.663 83.9978 103.132H87.354ZM91.6731 108.049V101.073H92.317L92.395 101.922H92.4048C92.6194 101.59 92.8894 101.333 93.2146 101.151C93.5463 100.969 93.9171 100.878 94.3268 100.878C94.8017 100.878 95.2277 100.995 95.6049 101.229C95.9887 101.457 96.2879 101.772 96.5026 102.175C96.7237 102.579 96.8343 103.034 96.8343 103.541C96.8343 104.042 96.7237 104.497 96.5026 104.907C96.2879 105.311 95.992 105.626 95.6147 105.854C95.2375 106.081 94.8114 106.195 94.3366 106.195C93.9333 106.195 93.5691 106.107 93.2439 105.932C92.9186 105.756 92.6455 105.506 92.4243 105.18H92.4146V108.049H91.6731ZM94.239 105.512C94.5903 105.512 94.9057 105.428 95.1854 105.259C95.4651 105.083 95.683 104.845 95.8391 104.546C96.0017 104.241 96.083 103.906 96.083 103.541C96.083 103.164 96.0017 102.826 95.8391 102.527C95.683 102.227 95.4651 101.993 95.1854 101.824C94.9057 101.649 94.5903 101.561 94.239 101.561C93.8878 101.561 93.5723 101.649 93.2926 101.824C93.013 101.993 92.7918 102.231 92.6292 102.536C92.4731 102.836 92.395 103.171 92.395 103.541C92.395 103.906 92.4731 104.241 92.6292 104.546C92.7918 104.845 93.013 105.083 93.2926 105.259C93.5723 105.428 93.8878 105.512 94.239 105.512ZM100.145 106.195C99.6316 106.195 99.1665 106.078 98.7502 105.844C98.3339 105.61 98.0087 105.288 97.7746 104.878C97.5404 104.462 97.4233 103.997 97.4233 103.483C97.4233 102.982 97.5306 102.536 97.7453 102.146C97.9599 101.749 98.2591 101.44 98.6429 101.219C99.0267 100.992 99.4592 100.878 99.9405 100.878C100.415 100.878 100.832 100.992 101.189 101.219C101.554 101.44 101.837 101.749 102.038 102.146C102.24 102.536 102.344 102.985 102.35 103.493C102.35 103.623 102.347 103.72 102.341 103.785H98.1941C98.2461 104.299 98.4543 104.719 98.8185 105.044C99.1828 105.363 99.6283 105.522 100.155 105.522C100.532 105.522 100.874 105.434 101.18 105.259C101.485 105.083 101.71 104.858 101.853 104.585L102.497 104.849C102.334 105.245 102.038 105.571 101.609 105.824C101.18 106.072 100.692 106.195 100.145 106.195ZM101.56 103.132C101.515 102.637 101.345 102.253 101.053 101.98C100.76 101.701 100.386 101.561 99.9308 101.561C99.4755 101.561 99.0917 101.707 98.7795 102C98.4673 102.286 98.2754 102.663 98.2039 103.132H101.56ZM105.358 100.868C105.78 100.868 106.125 101.005 106.392 101.278C106.665 101.545 106.824 101.922 106.87 102.41L106.226 102.624C106.187 102.279 106.083 102.016 105.914 101.834C105.745 101.652 105.523 101.561 105.25 101.561C104.853 101.561 104.538 101.717 104.304 102.029C104.076 102.335 103.962 102.754 103.962 103.288V106H103.221V101.073H103.855L103.923 101.844H103.933C104.07 101.545 104.265 101.307 104.518 101.131C104.772 100.956 105.052 100.868 105.358 100.868ZM112.624 106.195C112.123 106.195 111.675 106.081 111.278 105.854C110.881 105.626 110.572 105.314 110.351 104.917C110.13 104.514 110.019 104.055 110.019 103.541C110.019 103.028 110.123 102.569 110.331 102.166C110.54 101.762 110.829 101.447 111.2 101.219C111.577 100.992 112.003 100.878 112.478 100.878C113.031 100.878 113.515 101.034 113.932 101.346C114.348 101.658 114.618 102.065 114.741 102.566L114.019 102.732C113.922 102.38 113.73 102.097 113.444 101.883C113.164 101.668 112.842 101.561 112.478 101.561C112.153 101.561 111.86 101.645 111.6 101.814C111.34 101.977 111.135 102.211 110.985 102.517C110.836 102.816 110.761 103.158 110.761 103.541C110.761 103.925 110.839 104.27 110.995 104.576C111.157 104.875 111.379 105.109 111.658 105.278C111.944 105.441 112.266 105.522 112.624 105.522C113.073 105.522 113.463 105.392 113.795 105.132C114.133 104.865 114.335 104.52 114.4 104.097L115.122 104.244C115.063 104.615 114.914 104.95 114.673 105.249C114.439 105.541 114.143 105.772 113.785 105.941C113.427 106.111 113.04 106.195 112.624 106.195ZM117.417 106.195C117.046 106.195 116.715 106.133 116.422 106.01C116.136 105.886 115.911 105.711 115.749 105.483C115.593 105.255 115.515 104.998 115.515 104.712C115.515 104.296 115.693 103.945 116.051 103.658C116.409 103.372 116.971 103.184 117.739 103.093L118.959 102.946C119.082 102.933 119.18 102.894 119.251 102.829C119.323 102.758 119.359 102.67 119.359 102.566C119.359 102.26 119.225 102.016 118.959 101.834C118.692 101.645 118.344 101.551 117.915 101.551C117.615 101.551 117.345 101.61 117.105 101.727C116.864 101.837 116.672 101.984 116.529 102.166C116.386 102.348 116.308 102.536 116.295 102.732L115.622 102.449C115.654 102.175 115.775 101.919 115.983 101.678C116.191 101.437 116.467 101.245 116.812 101.102C117.157 100.953 117.534 100.878 117.944 100.878C118.36 100.878 118.731 100.953 119.056 101.102C119.381 101.252 119.635 101.463 119.817 101.736C119.999 102.003 120.09 102.319 120.09 102.683V105.18C120.09 105.278 120.113 105.359 120.159 105.424C120.211 105.483 120.276 105.512 120.354 105.512C120.419 105.512 120.487 105.486 120.559 105.434C120.637 105.382 120.702 105.311 120.754 105.219L121.154 105.688C121.05 105.837 120.903 105.958 120.715 106.049C120.533 106.146 120.347 106.195 120.159 106.195C119.924 106.195 119.733 106.12 119.583 105.971C119.44 105.821 119.362 105.633 119.349 105.405L119.339 105.18H119.329C119.154 105.499 118.9 105.75 118.568 105.932C118.237 106.107 117.853 106.195 117.417 106.195ZM117.544 105.522C117.882 105.522 118.188 105.454 118.461 105.317C118.734 105.174 118.949 104.979 119.105 104.732C119.261 104.484 119.339 104.205 119.339 103.893V103.541L117.817 103.727C116.776 103.857 116.256 104.182 116.256 104.702C116.256 104.95 116.376 105.148 116.617 105.298C116.858 105.447 117.167 105.522 117.544 105.522ZM121.638 108.049V101.073H122.282L122.36 101.922H122.37C122.585 101.59 122.855 101.333 123.18 101.151C123.512 100.969 123.882 100.878 124.292 100.878C124.767 100.878 125.193 100.995 125.57 101.229C125.954 101.457 126.253 101.772 126.468 102.175C126.689 102.579 126.8 103.034 126.8 103.541C126.8 104.042 126.689 104.497 126.468 104.907C126.253 105.311 125.957 105.626 125.58 105.854C125.203 106.081 124.777 106.195 124.302 106.195C123.899 106.195 123.534 106.107 123.209 105.932C122.884 105.756 122.611 105.506 122.39 105.18H122.38V108.049H121.638ZM124.204 105.512C124.555 105.512 124.871 105.428 125.151 105.259C125.43 105.083 125.648 104.845 125.804 104.546C125.967 104.241 126.048 103.906 126.048 103.541C126.048 103.164 125.967 102.826 125.804 102.527C125.648 102.227 125.43 101.993 125.151 101.824C124.871 101.649 124.555 101.561 124.204 101.561C123.853 101.561 123.538 101.649 123.258 101.824C122.978 101.993 122.757 102.231 122.594 102.536C122.438 102.836 122.36 103.171 122.36 103.541C122.36 103.906 122.438 104.241 122.594 104.546C122.757 104.845 122.978 105.083 123.258 105.259C123.538 105.428 123.853 105.512 124.204 105.512ZM128.032 100.117C127.87 100.117 127.737 100.068 127.632 99.9704C127.535 99.8664 127.486 99.733 127.486 99.5704C127.486 99.4078 127.535 99.2777 127.632 99.1802C127.737 99.0826 127.87 99.0338 128.032 99.0338C128.195 99.0338 128.328 99.0826 128.433 99.1802C128.537 99.2777 128.589 99.4078 128.589 99.5704C128.589 99.733 128.537 99.8664 128.433 99.9704C128.328 100.068 128.195 100.117 128.032 100.117ZM128.393 106H127.652V101.073H128.393V106ZM131.617 106.195C131.155 106.195 130.781 106.055 130.495 105.776C130.208 105.489 130.065 105.122 130.065 104.673V101.688H128.982V101.073H130.065V99.6095L130.807 99.4338V101.073H133.012V101.688H130.807V104.595C130.807 104.875 130.885 105.106 131.041 105.288C131.204 105.463 131.418 105.551 131.685 105.551C131.945 105.551 132.173 105.463 132.368 105.288C132.57 105.106 132.693 104.862 132.739 104.556L133.344 104.81C133.279 105.226 133.08 105.561 132.748 105.815C132.423 106.068 132.046 106.195 131.617 106.195ZM135.672 106.195C135.302 106.195 134.97 106.133 134.677 106.01C134.391 105.886 134.167 105.711 134.004 105.483C133.848 105.255 133.77 104.998 133.77 104.712C133.77 104.296 133.949 103.945 134.307 103.658C134.664 103.372 135.227 103.184 135.994 103.093L137.214 102.946C137.338 102.933 137.435 102.894 137.507 102.829C137.578 102.758 137.614 102.67 137.614 102.566C137.614 102.26 137.481 102.016 137.214 101.834C136.947 101.645 136.599 101.551 136.17 101.551C135.871 101.551 135.601 101.61 135.36 101.727C135.12 101.837 134.928 101.984 134.785 102.166C134.642 102.348 134.563 102.536 134.55 102.732L133.877 102.449C133.91 102.175 134.03 101.919 134.238 101.678C134.446 101.437 134.723 101.245 135.068 101.102C135.412 100.953 135.79 100.878 136.199 100.878C136.616 100.878 136.986 100.953 137.312 101.102C137.637 101.252 137.89 101.463 138.073 101.736C138.255 102.003 138.346 102.319 138.346 102.683V105.18C138.346 105.278 138.369 105.359 138.414 105.424C138.466 105.483 138.531 105.512 138.609 105.512C138.674 105.512 138.743 105.486 138.814 105.434C138.892 105.382 138.957 105.311 139.009 105.219L139.409 105.688C139.305 105.837 139.159 105.958 138.97 106.049C138.788 106.146 138.603 106.195 138.414 106.195C138.18 106.195 137.988 106.12 137.838 105.971C137.695 105.821 137.617 105.633 137.604 105.405L137.595 105.18H137.585C137.409 105.499 137.155 105.75 136.824 105.932C136.492 106.107 136.108 106.195 135.672 106.195ZM135.799 105.522C136.138 105.522 136.443 105.454 136.716 105.317C136.99 105.174 137.204 104.979 137.36 104.732C137.516 104.484 137.595 104.205 137.595 103.893V103.541L136.073 103.727C135.032 103.857 134.511 104.182 134.511 104.702C134.511 104.95 134.632 105.148 134.872 105.298C135.113 105.447 135.422 105.522 135.799 105.522ZM143.957 107.854C143.502 107.359 143.128 106.683 142.835 105.824C142.549 104.959 142.406 104.11 142.406 103.278C142.406 102.445 142.549 101.603 142.835 100.751C143.128 99.8989 143.502 99.2257 143.957 98.7314L144.24 98.9655C143.804 99.4664 143.45 100.12 143.176 100.927C142.91 101.727 142.776 102.51 142.776 103.278C142.776 104.045 142.913 104.836 143.186 105.649C143.459 106.455 143.811 107.109 144.24 107.61L143.957 107.854ZM145.466 106H144.724V98.8289H145.466V103.297H145.476L147.564 101.073H148.549L146.685 103.014L148.715 106H147.817L146.178 103.551L145.466 104.293V106ZM150.891 108.244C150.312 108.244 149.773 108.124 149.272 107.883C148.777 107.642 148.41 107.324 148.169 106.927L148.745 106.439C148.94 106.784 149.229 107.057 149.613 107.259C150.004 107.467 150.423 107.571 150.872 107.571C151.483 107.571 151.974 107.392 152.345 107.034C152.716 106.676 152.901 106.202 152.901 105.61V105.063H152.891C152.703 105.363 152.433 105.603 152.082 105.785C151.737 105.967 151.386 106.059 151.028 106.059C150.547 106.059 150.121 105.951 149.75 105.737C149.379 105.522 149.09 105.223 148.882 104.839C148.673 104.449 148.569 104.003 148.569 103.502C148.569 102.988 148.673 102.536 148.882 102.146C149.09 101.749 149.379 101.444 149.75 101.229C150.121 101.008 150.547 100.897 151.028 100.897C151.386 100.897 151.737 100.988 152.082 101.171C152.426 101.353 152.7 101.587 152.901 101.873H152.911L152.989 101.073H153.652V105.61C153.652 106.137 153.539 106.598 153.311 106.995C153.083 107.392 152.758 107.698 152.335 107.912C151.919 108.133 151.438 108.244 150.891 108.244ZM151.126 105.385C151.477 105.385 151.789 105.304 152.062 105.141C152.335 104.979 152.547 104.754 152.696 104.468C152.852 104.182 152.93 103.86 152.93 103.502C152.93 103.138 152.852 102.81 152.696 102.517C152.547 102.218 152.335 101.984 152.062 101.814C151.789 101.645 151.477 101.561 151.126 101.561C150.774 101.561 150.459 101.642 150.179 101.805C149.906 101.967 149.691 102.198 149.535 102.497C149.386 102.79 149.311 103.125 149.311 103.502C149.311 103.867 149.386 104.192 149.535 104.478C149.691 104.764 149.906 104.989 150.179 105.151C150.459 105.307 150.774 105.385 151.126 105.385ZM153.841 107.61C154.296 107.083 154.654 106.426 154.914 105.639C155.174 104.845 155.304 104.058 155.304 103.278C155.304 102.497 155.174 101.717 154.914 100.936C154.654 100.156 154.296 99.4989 153.841 98.9655L154.124 98.7314C154.605 99.2517 154.982 99.9282 155.255 100.761C155.535 101.587 155.675 102.426 155.675 103.278C155.675 104.13 155.535 104.976 155.255 105.815C154.982 106.654 154.605 107.333 154.124 107.854L153.841 107.61Z" fill="white"/>
<circle cx="9.05967" cy="9.05967" r="9.05967" transform="matrix(-1 0 0 1 46.1191 156.458)" fill="#4589FF"/>
<path d="M55.1608 169.246H54.3706V162.367H57.1902C58.6634 162.367 59.6879 163.236 59.6879 164.455C59.6879 165.675 58.6537 166.533 57.1902 166.533H55.1608V169.246ZM55.1608 163.089V165.802H57.1902C58.1756 165.802 58.8781 165.245 58.8781 164.455C58.8781 163.655 58.1854 163.089 57.1902 163.089H55.1608ZM61.9616 169.441C60.8396 169.441 60.0591 168.836 60.0591 167.958C60.0591 167.167 60.6835 166.533 62.2836 166.338L63.5032 166.192C63.7471 166.163 63.9032 166.026 63.9032 165.811C63.9032 165.197 63.3178 164.797 62.4592 164.797C61.5323 164.797 60.8786 165.392 60.8396 165.977L60.1664 165.694C60.2542 164.884 61.2104 164.123 62.4885 164.123C63.7471 164.123 64.6349 164.826 64.6349 165.928V168.426C64.6349 168.621 64.7422 168.758 64.8983 168.758C65.0349 168.758 65.191 168.641 65.2984 168.465L65.6984 168.933C65.4935 169.236 65.0837 169.441 64.7032 169.441C64.2251 169.441 63.9227 169.099 63.8934 168.65L63.8837 168.426H63.8739C63.5227 169.05 62.8397 169.441 61.9616 169.441ZM62.0884 168.768C63.1226 168.768 63.8837 168.094 63.8837 167.138V166.787L62.3616 166.972C61.1713 167.119 60.8006 167.499 60.8006 167.948C60.8006 168.446 61.3372 168.768 62.0884 168.768ZM66.9244 171.294H66.1829V164.319H66.8268L66.9048 165.167H66.9146C67.3341 164.514 68.0073 164.123 68.8366 164.123C70.2806 164.123 71.3441 165.245 71.3441 166.787C71.3441 168.319 70.2806 169.441 68.8464 169.441C68.0268 169.441 67.3634 169.06 66.9341 168.426H66.9244V171.294ZM68.7488 168.758C69.822 168.758 70.5928 167.899 70.5928 166.787C70.5928 165.645 69.8123 164.806 68.7488 164.806C67.6854 164.806 66.9048 165.665 66.9048 166.787C66.9048 167.899 67.6854 168.758 68.7488 168.758ZM74.6552 169.441C73.0844 169.441 71.9331 168.299 71.9331 166.728C71.9331 165.216 72.9868 164.123 74.4503 164.123C75.8943 164.123 76.8407 165.216 76.8602 166.738C76.8602 166.826 76.8602 166.933 76.8504 167.031H72.7039C72.8112 168.055 73.6015 168.768 74.665 168.768C75.4357 168.768 76.0894 168.368 76.3626 167.831L77.0065 168.094C76.6846 168.885 75.7577 169.441 74.6552 169.441ZM72.7137 166.377H76.0699C75.9723 165.372 75.3382 164.806 74.4406 164.806C73.5234 164.806 72.8502 165.441 72.7137 166.377ZM79.8673 164.114C80.7064 164.114 81.282 164.67 81.3796 165.655L80.7357 165.87C80.6576 165.177 80.2966 164.806 79.76 164.806C78.9697 164.806 78.4722 165.46 78.4722 166.533V169.246H77.7307V164.319H78.3648L78.4331 165.089H78.4429C78.7161 164.494 79.2429 164.114 79.8673 164.114Z" fill="white"/>
<circle cx="9.05967" cy="9.05967" r="9.05967" transform="matrix(-1 0 0 1 163.119 127)" fill="#D2A106"/>
<path d="M172.514 139.56H171.705V132.681H172.514V139.56ZM176.233 134.437C177.365 134.437 178.057 135.159 178.057 136.379V139.56H177.306V136.457C177.306 135.618 176.808 135.081 176.028 135.081C175.042 135.081 174.33 135.774 174.33 136.779V139.56H173.589V134.633H174.262L174.33 135.364H174.34C174.76 134.769 175.374 134.437 176.233 134.437ZM181.391 139.755C179.86 139.755 178.786 138.652 178.786 137.101C178.786 135.54 179.801 134.437 181.245 134.437C182.357 134.437 183.265 135.13 183.509 136.125L182.787 136.291C182.591 135.579 181.967 135.12 181.245 135.12C180.26 135.12 179.528 135.92 179.528 137.101C179.528 138.281 180.318 139.081 181.391 139.081C182.289 139.081 183.031 138.506 183.167 137.657L183.889 137.803C183.704 138.935 182.66 139.755 181.391 139.755ZM185.023 133.676C184.692 133.676 184.477 133.462 184.477 133.13C184.477 132.808 184.692 132.593 185.023 132.593C185.345 132.593 185.579 132.808 185.579 133.13C185.579 133.462 185.345 133.676 185.023 133.676ZM185.384 139.56H184.643V134.633H185.384V139.56ZM189.105 134.437C190.237 134.437 190.929 135.159 190.929 136.379V139.56H190.178V136.457C190.178 135.618 189.681 135.081 188.9 135.081C187.915 135.081 187.202 135.774 187.202 136.779V139.56H186.461V134.633H187.134L187.202 135.364H187.212C187.632 134.769 188.246 134.437 189.105 134.437ZM194.381 139.755C192.81 139.755 191.659 138.613 191.659 137.042C191.659 135.53 192.712 134.437 194.176 134.437C195.62 134.437 196.566 135.53 196.586 137.052C196.586 137.14 196.586 137.247 196.576 137.345H192.429C192.537 138.369 193.327 139.081 194.39 139.081C195.161 139.081 195.815 138.681 196.088 138.145L196.732 138.408C196.41 139.199 195.483 139.755 194.381 139.755ZM192.439 136.691H195.795C195.698 135.686 195.064 135.12 194.166 135.12C193.249 135.12 192.576 135.755 192.439 136.691ZM199.593 134.428C200.432 134.428 201.008 134.984 201.105 135.969L200.461 136.184C200.383 135.491 200.022 135.12 199.486 135.12C198.695 135.12 198.198 135.774 198.198 136.847V139.56H197.456V134.633H198.09L198.159 135.403H198.168C198.442 134.808 198.968 134.428 199.593 134.428ZM203.363 139.755C202.241 139.755 201.461 139.15 201.461 138.272C201.461 137.481 202.085 136.847 203.685 136.652L204.905 136.506C205.149 136.476 205.305 136.34 205.305 136.125C205.305 135.511 204.719 135.111 203.861 135.111C202.934 135.111 202.28 135.706 202.241 136.291L201.568 136.008C201.656 135.198 202.612 134.437 203.89 134.437C205.149 134.437 206.036 135.14 206.036 136.242V138.74C206.036 138.935 206.144 139.072 206.3 139.072C206.436 139.072 206.592 138.955 206.7 138.779L207.1 139.247C206.895 139.55 206.485 139.755 206.105 139.755C205.627 139.755 205.324 139.413 205.295 138.964L205.285 138.74H205.275C204.924 139.364 204.241 139.755 203.363 139.755ZM203.49 139.081C204.524 139.081 205.285 138.408 205.285 137.452V137.101L203.763 137.286C202.573 137.433 202.202 137.813 202.202 138.262C202.202 138.76 202.739 139.081 203.49 139.081ZM210.238 139.755C209.409 139.755 208.736 139.364 208.316 138.711H208.306L208.228 139.56H207.584V132.388H208.326V135.462H208.336C208.765 134.818 209.428 134.437 210.248 134.437C211.682 134.437 212.746 135.559 212.746 137.101C212.746 138.633 211.682 139.755 210.238 139.755ZM210.15 139.081C211.214 139.081 211.994 138.233 211.994 137.101C211.994 135.979 211.223 135.12 210.15 135.12C209.087 135.12 208.306 135.979 208.306 137.101C208.306 138.213 209.087 139.081 210.15 139.081ZM214.271 139.56H213.53V132.388H214.271V139.56ZM217.772 139.755C216.201 139.755 215.05 138.613 215.05 137.042C215.05 135.53 216.103 134.437 217.567 134.437C219.011 134.437 219.957 135.53 219.977 137.052C219.977 137.14 219.977 137.247 219.967 137.345H215.82C215.928 138.369 216.718 139.081 217.781 139.081C218.552 139.081 219.206 138.681 219.479 138.145L220.123 138.408C219.801 139.199 218.874 139.755 217.772 139.755ZM215.83 136.691H219.186C219.089 135.686 218.455 135.12 217.557 135.12C216.64 135.12 215.967 135.755 215.83 136.691Z" fill="white"/>
<circle cx="9.05967" cy="9.05967" r="9.05967" transform="matrix(-1 0 0 1 163.524 157.119)" fill="#D12771"/>
<path d="M172.92 169.679H172.11V162.8H172.92V169.679ZM176.131 164.547C176.97 164.547 177.545 165.103 177.643 166.088L176.999 166.303C176.921 165.61 176.56 165.239 176.023 165.239C175.233 165.239 174.736 165.893 174.736 166.966V169.679H173.994V164.752H174.628L174.697 165.522H174.706C174.979 164.927 175.506 164.547 176.131 164.547ZM180.663 169.874C179.083 169.874 178.039 168.82 178.039 167.22C178.039 165.61 179.083 164.557 180.663 164.557C182.254 164.557 183.298 165.61 183.298 167.22C183.298 168.82 182.254 169.874 180.663 169.874ZM180.663 169.201C181.805 169.201 182.546 168.42 182.546 167.22C182.546 166.02 181.805 165.239 180.663 165.239C179.522 165.239 178.78 166.02 178.78 167.22C178.78 168.42 179.522 169.201 180.663 169.201ZM186.719 164.557C187.85 164.557 188.543 165.279 188.543 166.498V169.679H187.792V166.576C187.792 165.737 187.294 165.2 186.514 165.2C185.528 165.2 184.816 165.893 184.816 166.898V169.679H184.075V164.752H184.748L184.816 165.483H184.826C185.245 164.888 185.86 164.557 186.719 164.557Z" fill="white"/>
<circle cx="9.05967" cy="9.05967" r="8.90967" transform="matrix(-1 0 0 1 215.618 58.9497)" stroke="white" stroke-width="0.3"/>
<circle cx="9.05967" cy="9.05967" r="9.05967" transform="matrix(-1 0 0 1 45.3008 91)" fill="white" fill-opacity="0.5"/>
<circle cx="9.05967" cy="9.05967" r="9.05967" transform="matrix(-1 0 0 1 50.876 91)" fill="white"/>
<circle cx="9.05967" cy="9.05967" r="9.05967" transform="matrix(-1 0 0 1 41.1191 91)" fill="white" fill-opacity="0.2"/>
<circle cx="5.22673" cy="5.22673" r="4.87828" transform="matrix(-1 0 0 1 42.7256 68.7065)" stroke="white" stroke-width="0.696897"/>
<circle cx="5.22673" cy="5.22673" r="4.87828" transform="matrix(-1 0 0 1 42.7256 68.7065)" stroke="white" stroke-width="0.696897"/>
<circle cx="8.36277" cy="8.36277" r="8.01432" transform="matrix(-1 0 0 1 45.5132 62.4346)" stroke="white" stroke-width="0.696897"/>
<circle cx="11.4988" cy="11.4988" r="11.1504" transform="matrix(-1 0 0 1 48.9976 56.1621)" stroke="white" stroke-width="0.696897"/>
<path d="M37.048 24H31.72V15.54H32.716V23.112H37.048V24ZM40.5791 24.24C38.6471 24.24 37.2311 22.836 37.2311 20.904C37.2311 19.044 38.5271 17.7 40.3271 17.7C42.1031 17.7 43.2671 19.044 43.2911 20.916C43.2911 21.024 43.2911 21.156 43.2791 21.276H38.1791C38.3111 22.536 39.2831 23.412 40.5911 23.412C41.5391 23.412 42.3431 22.92 42.6791 22.26L43.4711 22.584C43.0751 23.556 41.9351 24.24 40.5791 24.24ZM38.1911 20.472H42.3191C42.1991 19.236 41.4191 18.54 40.3151 18.54C39.1871 18.54 38.3591 19.32 38.1911 20.472ZM46.9897 26.76C45.5617 26.76 44.2297 26.112 43.6417 25.14L44.3497 24.54C44.8297 25.38 45.8617 25.932 46.9657 25.932C48.4657 25.932 49.4617 24.984 49.4617 23.52V22.848H49.4497C48.9697 23.604 48.0097 24.072 47.1577 24.072C45.3697 24.072 44.1337 22.788 44.1337 20.928C44.1337 19.02 45.3697 17.724 47.1577 17.724C48.0337 17.724 48.9697 18.216 49.4617 18.924H49.4737L49.5697 17.94H50.3857V23.52C50.3857 25.488 49.0297 26.76 46.9897 26.76ZM47.2777 23.244C48.5857 23.244 49.4977 22.248 49.4977 20.928C49.4977 19.572 48.5857 18.54 47.2777 18.54C45.9577 18.54 45.0457 19.512 45.0457 20.928C45.0457 22.296 45.9577 23.244 47.2777 23.244ZM54.6885 24.24C52.7565 24.24 51.3405 22.836 51.3405 20.904C51.3405 19.044 52.6365 17.7 54.4365 17.7C56.2125 17.7 57.3765 19.044 57.4005 20.916C57.4005 21.024 57.4005 21.156 57.3885 21.276H52.2885C52.4205 22.536 53.3925 23.412 54.7005 23.412C55.6485 23.412 56.4525 22.92 56.7885 22.26L57.5805 22.584C57.1845 23.556 56.0445 24.24 54.6885 24.24ZM52.3005 20.472H56.4285C56.3085 19.236 55.5285 18.54 54.4245 18.54C53.2965 18.54 52.4685 19.32 52.3005 20.472ZM61.7231 17.7C63.1151 17.7 63.9671 18.588 63.9671 20.088V24H63.0431V20.184C63.0431 19.152 62.4311 18.492 61.4711 18.492C60.2591 18.492 59.3831 19.344 59.3831 20.58V24H58.4711V17.94H59.2991L59.3831 18.84H59.3951C59.9111 18.108 60.6671 17.7 61.7231 17.7ZM67.9479 24.24C66.1719 24.24 64.8639 22.86 64.8639 20.976C64.8639 19.08 66.1599 17.7 67.9359 17.7C68.9439 17.7 69.7599 18.168 70.2759 18.96H70.2879V15.18H71.2119V24H70.4079L70.3239 22.956H70.3119C69.7959 23.76 68.9559 24.24 67.9479 24.24ZM68.0559 23.412C69.3639 23.412 70.3239 22.344 70.3239 20.976C70.3239 19.596 69.3639 18.54 68.0559 18.54C66.7359 18.54 65.7759 19.596 65.7759 20.976C65.7759 22.368 66.7479 23.412 68.0559 23.412Z" fill="#FFF1F1"/>
</svg>
