<svg width="384" height="188" viewBox="0 0 384 188" fill="none" xmlns="http://www.w3.org/2000/svg">
<rect x="0.5" y="0.5" width="383" height="187" fill="black" stroke="white"/>
<line x1="2.21724e-08" y1="39.75" x2="384" y2="39.75" stroke="white" stroke-width="0.5"/>
<circle cx="9.05967" cy="9.05967" r="8.55967" transform="matrix(-1 0 0 1 215.8 58.9497)" stroke="white"/>
<circle cx="9.05967" cy="9.05967" r="8.05967" transform="matrix(-1 0 0 1 221.375 58.9497)" stroke="white" stroke-width="2"/>
<circle cx="9.05967" cy="9.05967" r="9.05967" transform="matrix(-1 0 0 1 46.1191 122.339)" fill="#007D79"/>
<path d="M57.4634 135.126H56.5268L53.8827 128.248H54.7413L56.9951 134.238H57.0146L59.2488 128.248H60.1074L57.4634 135.126ZM62.5357 135.321C60.9649 135.321 59.8136 134.18 59.8136 132.609C59.8136 131.097 60.8674 130.004 62.3308 130.004C63.7748 130.004 64.7212 131.097 64.7407 132.619C64.7407 132.706 64.7407 132.814 64.731 132.911H60.5844C60.6917 133.936 61.482 134.648 62.5455 134.648C63.3163 134.648 63.9699 134.248 64.2431 133.711L64.8871 133.975C64.5651 134.765 63.6382 135.321 62.5357 135.321ZM60.5942 132.258H63.9504C63.8529 131.253 63.2187 130.687 62.3211 130.687C61.404 130.687 60.7308 131.321 60.5942 132.258ZM67.7479 137.37C66.5868 137.37 65.5039 136.843 65.0258 136.053L65.6014 135.565C65.9917 136.248 66.8307 136.697 67.7284 136.697C68.9479 136.697 69.7577 135.926 69.7577 134.736V134.189H69.748C69.3577 134.804 68.5772 135.185 67.8845 135.185C66.4307 135.185 65.4258 134.141 65.4258 132.628C65.4258 131.077 66.4307 130.023 67.8845 130.023C68.5967 130.023 69.3577 130.423 69.7577 130.999H69.7675L69.8455 130.199H70.509V134.736C70.509 136.336 69.4065 137.37 67.7479 137.37ZM67.982 134.511C69.0455 134.511 69.787 133.702 69.787 132.628C69.787 131.526 69.0455 130.687 67.982 130.687C66.9088 130.687 66.1673 131.477 66.1673 132.628C66.1673 133.741 66.9088 134.511 67.982 134.511ZM74.0073 135.321C72.4365 135.321 71.2852 134.18 71.2852 132.609C71.2852 131.097 72.3389 130.004 73.8024 130.004C75.2464 130.004 76.1928 131.097 76.2123 132.619C76.2123 132.706 76.2123 132.814 76.2025 132.911H72.056C72.1633 133.936 72.9536 134.648 74.0171 134.648C74.7878 134.648 75.4415 134.248 75.7147 133.711L76.3586 133.975C76.0367 134.765 75.1098 135.321 74.0073 135.321ZM72.0658 132.258H75.422C75.3244 131.253 74.6903 130.687 73.7927 130.687C72.8755 130.687 72.2023 131.321 72.0658 132.258ZM79.0386 135.321C78.1118 135.321 77.4874 134.697 77.4874 133.799V130.814H76.4044V130.199H77.4874V128.735L78.2289 128.56V130.199H80.4338V130.814H78.2289V133.721C78.2289 134.277 78.5703 134.677 79.1069 134.677C79.6045 134.677 80.0631 134.316 80.1607 133.682L80.7656 133.936C80.629 134.794 79.8777 135.321 79.0386 135.321ZM83.0945 135.321C81.9725 135.321 81.192 134.716 81.192 133.838C81.192 133.048 81.8164 132.414 83.4165 132.219L84.636 132.072C84.8799 132.043 85.036 131.906 85.036 131.692C85.036 131.077 84.4506 130.677 83.5921 130.677C82.6652 130.677 82.0115 131.272 81.9725 131.858L81.2993 131.575C81.3871 130.765 82.3432 130.004 83.6213 130.004C84.8799 130.004 85.7678 130.706 85.7678 131.809V134.306C85.7678 134.502 85.8751 134.638 86.0312 134.638C86.1678 134.638 86.3239 134.521 86.4312 134.345L86.8312 134.814C86.6264 135.116 86.2166 135.321 85.8361 135.321C85.358 135.321 85.0556 134.98 85.0263 134.531L85.0165 134.306H85.0068C84.6555 134.931 83.9726 135.321 83.0945 135.321ZM83.2213 134.648C84.2555 134.648 85.0165 133.975 85.0165 133.019V132.667L83.4945 132.853C82.3042 132.999 81.9335 133.38 81.9335 133.828C81.9335 134.326 82.4701 134.648 83.2213 134.648ZM89.9695 135.321C89.1402 135.321 88.467 134.931 88.0475 134.277H88.0377L87.9597 135.126H87.3157V127.955H88.0572V131.028H88.067C88.4963 130.384 89.1597 130.004 89.9793 130.004C91.4135 130.004 92.4769 131.126 92.4769 132.667C92.4769 134.199 91.4135 135.321 89.9695 135.321ZM89.8817 134.648C90.9452 134.648 91.7257 133.799 91.7257 132.667C91.7257 131.545 90.9549 130.687 89.8817 130.687C88.8182 130.687 88.0377 131.545 88.0377 132.667C88.0377 133.78 88.8182 134.648 89.8817 134.648ZM94.0026 135.126H93.2611V127.955H94.0026V135.126ZM97.5031 135.321C95.9323 135.321 94.781 134.18 94.781 132.609C94.781 131.097 95.8347 130.004 97.2982 130.004C98.7422 130.004 99.6886 131.097 99.7081 132.619C99.7081 132.706 99.7081 132.814 99.6983 132.911H95.5518C95.6591 133.936 96.4494 134.648 97.5129 134.648C98.2836 134.648 98.9373 134.248 99.2105 133.711L99.8544 133.975C99.5325 134.765 98.6056 135.321 97.5031 135.321ZM95.5615 132.258H98.9178C98.8202 131.253 98.1861 130.687 97.2885 130.687C96.3713 130.687 95.6981 131.321 95.5615 132.258ZM102.618 135.321C101.388 135.321 100.374 134.687 100.286 133.633L101.018 133.487C101.076 134.17 101.74 134.648 102.618 134.648C103.388 134.648 103.984 134.287 103.984 133.78C103.984 133.399 103.623 133.165 102.793 132.999L102.013 132.843C100.988 132.628 100.549 132.219 100.549 131.497C100.559 130.638 101.32 130.004 102.374 130.004C103.408 130.004 104.179 130.56 104.364 131.36L103.652 131.555C103.584 131.038 103.066 130.657 102.364 130.657C101.74 130.657 101.281 131.038 101.271 131.458C101.271 131.819 101.564 132.023 102.247 132.17L103.047 132.326C104.208 132.57 104.706 132.98 104.706 133.711C104.706 134.638 103.808 135.321 102.618 135.321Z" fill="white"/>
<circle cx="9.05967" cy="9.05967" r="9.05967" transform="matrix(-1 0 0 1 46.1191 92.2197)" fill="#8A3FFC"/>
<path d="M58.0413 105.023C55.9631 105.023 54.4606 103.472 54.4606 101.345C54.4606 99.2083 55.9436 97.657 57.9925 97.657C59.3584 97.657 60.5682 98.5253 60.978 99.7352L60.2267 99.9791C59.9048 99.0424 59.0072 98.379 57.9827 98.379C56.4022 98.379 55.2704 99.6083 55.2704 101.345C55.2704 103.052 56.4607 104.301 58.1096 104.301C59.6218 104.301 60.8219 103.189 60.8219 101.706H56.9973V100.984H61.6512V104.779H60.9682L60.8902 103.452H60.8804C60.2853 104.428 59.2706 105.023 58.0413 105.023ZM63.2661 104.779H62.5246V97.6082H63.2661V104.779ZM65.8495 104.974C64.7275 104.974 63.947 104.37 63.947 103.491C63.947 102.701 64.5714 102.067 66.1715 101.872L67.391 101.725C67.635 101.696 67.7911 101.56 67.7911 101.345C67.7911 100.73 67.2057 100.33 66.3471 100.33C65.4202 100.33 64.7665 100.925 64.7275 101.511L64.0543 101.228C64.1421 100.418 65.0982 99.6571 66.3764 99.6571C67.635 99.6571 68.5228 100.36 68.5228 101.462V103.96C68.5228 104.155 68.6301 104.291 68.7862 104.291C68.9228 104.291 69.0789 104.174 69.1862 103.999L69.5863 104.467C69.3814 104.77 68.9716 104.974 68.5911 104.974C68.113 104.974 67.8106 104.633 67.7813 104.184L67.7715 103.96H67.7618C67.4106 104.584 66.7276 104.974 65.8495 104.974ZM65.9763 104.301C67.0105 104.301 67.7715 103.628 67.7715 102.672V102.321L66.2495 102.506C65.0592 102.652 64.6885 103.033 64.6885 103.482C64.6885 103.979 65.2251 104.301 65.9763 104.301ZM71.8145 104.974C70.5852 104.974 69.5705 104.34 69.4827 103.287L70.2144 103.14C70.273 103.823 70.9364 104.301 71.8145 104.301C72.5853 104.301 73.1804 103.94 73.1804 103.433C73.1804 103.052 72.8194 102.818 71.9901 102.652L71.2096 102.496C70.1852 102.282 69.7461 101.872 69.7461 101.15C69.7559 100.291 70.5169 99.6571 71.5706 99.6571C72.6048 99.6571 73.3755 100.213 73.5609 101.013L72.8487 101.208C72.7804 100.691 72.2633 100.311 71.5608 100.311C70.9364 100.311 70.4778 100.691 70.4681 101.111C70.4681 101.472 70.7608 101.677 71.4437 101.823L72.2438 101.979C73.4048 102.223 73.9024 102.633 73.9024 103.365C73.9024 104.291 73.0048 104.974 71.8145 104.974ZM76.6261 104.974C75.3968 104.974 74.3821 104.34 74.2943 103.287L75.026 103.14C75.0845 103.823 75.748 104.301 76.6261 104.301C77.3969 104.301 77.992 103.94 77.992 103.433C77.992 103.052 77.631 102.818 76.8017 102.652L76.0212 102.496C74.9967 102.282 74.5577 101.872 74.5577 101.15C74.5674 100.291 75.3285 99.6571 76.3822 99.6571C77.4164 99.6571 78.1871 100.213 78.3725 101.013L77.6603 101.208C77.592 100.691 77.0749 100.311 76.3724 100.311C75.748 100.311 75.2894 100.691 75.2797 101.111C75.2797 101.472 75.5724 101.677 76.2553 101.823L77.0554 101.979C78.2164 102.223 78.714 102.633 78.714 103.365C78.714 104.291 77.8164 104.974 76.6261 104.974Z" fill="white"/>
<path d="M57.0859 72H56.2761V65.8436H53.9735V65.1216H59.3884V65.8436H57.0859V72ZM61.4333 72.1951C59.8527 72.1951 58.8088 71.1414 58.8088 69.5413C58.8088 67.9315 59.8527 66.8778 61.4333 66.8778C63.0236 66.8778 64.0675 67.9315 64.0675 69.5413C64.0675 71.1414 63.0236 72.1951 61.4333 72.1951ZM61.4333 71.5219C62.5748 71.5219 63.3163 70.7414 63.3163 69.5413C63.3163 68.3413 62.5748 67.5608 61.4333 67.5608C60.2918 67.5608 59.5503 68.3413 59.5503 69.5413C59.5503 70.7414 60.2918 71.5219 61.4333 71.5219ZM66.8004 72.1951C65.8735 72.1951 65.2491 71.5707 65.2491 70.6731V67.6876H64.1661V67.0729H65.2491V65.6095L65.9906 65.4338V67.0729H68.1956V67.6876H65.9906V70.5951C65.9906 71.1512 66.3321 71.5512 66.8687 71.5512C67.3663 71.5512 67.8248 71.1902 67.9224 70.556L68.5273 70.8097C68.3907 71.6683 67.6394 72.1951 66.8004 72.1951ZM70.8562 72.1951C69.7342 72.1951 68.9537 71.5902 68.9537 70.7121C68.9537 69.9219 69.5781 69.2877 71.1782 69.0925L72.3977 68.9462C72.6417 68.9169 72.7978 68.7803 72.7978 68.5657C72.7978 67.951 72.2124 67.551 71.3538 67.551C70.4269 67.551 69.7732 68.1462 69.7342 68.7316L69.061 68.4486C69.1488 67.6388 70.105 66.8778 71.3831 66.8778C72.6417 66.8778 73.5295 67.5803 73.5295 68.6828V71.1804C73.5295 71.3756 73.6368 71.5122 73.7929 71.5122C73.9295 71.5122 74.0856 71.3951 74.193 71.2195L74.593 71.6878C74.3881 71.9902 73.9783 72.1951 73.5978 72.1951C73.1197 72.1951 72.8173 71.8537 72.788 71.4048L72.7783 71.1804H72.7685C72.4173 71.8049 71.7343 72.1951 70.8562 72.1951ZM70.983 71.5219C72.0172 71.5219 72.7783 70.8487 72.7783 69.8926V69.5413L71.2562 69.7267C70.0659 69.8731 69.6952 70.2536 69.6952 70.7024C69.6952 71.2 70.2318 71.5219 70.983 71.5219ZM75.8189 72H75.0774V64.8289H75.8189V72ZM81.0606 72.1951C79.9386 72.1951 79.1581 71.5902 79.1581 70.7121C79.1581 69.9219 79.7825 69.2877 81.3825 69.0925L82.6021 68.9462C82.846 68.9169 83.0021 68.7803 83.0021 68.5657C83.0021 67.951 82.4167 67.551 81.5582 67.551C80.6313 67.551 79.9776 68.1462 79.9386 68.7316L79.2654 68.4486C79.3532 67.6388 80.3093 66.8778 81.5874 66.8778C82.846 66.8778 83.7339 67.5803 83.7339 68.6828V71.1804C83.7339 71.3756 83.8412 71.5122 83.9973 71.5122C84.1339 71.5122 84.29 71.3951 84.3973 71.2195L84.7973 71.6878C84.5925 71.9902 84.1827 72.1951 83.8022 72.1951C83.3241 72.1951 83.0217 71.8537 82.9924 71.4048L82.9826 71.1804H82.9729C82.6216 71.8049 81.9387 72.1951 81.0606 72.1951ZM81.1874 71.5219C82.2216 71.5219 82.9826 70.8487 82.9826 69.8926V69.5413L81.4606 69.7267C80.2703 69.8731 79.8996 70.2536 79.8996 70.7024C79.8996 71.2 80.4362 71.5219 81.1874 71.5219ZM86.0233 72H85.2818V67.0729H85.9258L86.0038 67.7949H86.0136C86.3063 67.2193 86.9502 66.8778 87.7405 66.8778C88.521 66.8778 89.0479 67.2388 89.3015 67.873H89.3113C89.7503 67.1803 90.4333 66.8778 91.165 66.8778C92.2382 66.8778 92.8724 67.5608 92.8724 68.7218V72H92.1212V68.7706C92.1212 68.0096 91.6821 67.5608 90.9406 67.5608C90.004 67.5608 89.4479 68.2632 89.4479 69.2584V72H88.7064V68.7706C88.7064 68.0096 88.2673 67.5608 87.5161 67.5608C86.5794 67.5608 86.0233 68.2632 86.0233 69.2584V72ZM96.2291 72.1951C94.6486 72.1951 93.6046 71.1414 93.6046 69.5413C93.6046 67.9315 94.6486 66.8778 96.2291 66.8778C97.8195 66.8778 98.8634 67.9315 98.8634 69.5413C98.8634 71.1414 97.8195 72.1951 96.2291 72.1951ZM96.2291 71.5219C97.3707 71.5219 98.1122 70.7414 98.1122 69.5413C98.1122 68.3413 97.3707 67.5608 96.2291 67.5608C95.0876 67.5608 94.3461 68.3413 94.3461 69.5413C94.3461 70.7414 95.0876 71.5219 96.2291 71.5219ZM101.416 72.1951C100.284 72.1951 99.5916 71.4731 99.5916 70.2536V67.0729H100.343V70.1755C100.343 71.0146 100.84 71.5512 101.621 71.5512C102.606 71.5512 103.319 70.8585 103.319 69.8536V67.0729H104.06V72H103.387L103.319 71.2683H103.309C102.889 71.8634 102.275 72.1951 101.416 72.1951ZM107.677 66.8778C108.809 66.8778 109.502 67.5998 109.502 68.8194V72H108.75V68.8974C108.75 68.0583 108.253 67.5217 107.472 67.5217C106.487 67.5217 105.775 68.2145 105.775 69.2194V72H105.033V67.0729H105.706L105.775 67.8047H105.784C106.204 67.2095 106.819 66.8778 107.677 66.8778ZM112.382 72.1951C111.455 72.1951 110.831 71.5707 110.831 70.6731V67.6876H109.748V67.0729H110.831V65.6095L111.572 65.4338V67.0729H113.777V67.6876H111.572V70.5951C111.572 71.1512 111.914 71.5512 112.45 71.5512C112.948 71.5512 113.406 71.1902 113.504 70.556L114.109 70.8097C113.972 71.6683 113.221 72.1951 112.382 72.1951ZM119.725 72.1951C118.144 72.1951 117.1 71.1414 117.1 69.5413C117.1 67.9315 118.144 66.8778 119.725 66.8778C121.315 66.8778 122.359 67.9315 122.359 69.5413C122.359 71.1414 121.315 72.1951 119.725 72.1951ZM119.725 71.5219C120.866 71.5219 121.608 70.7414 121.608 69.5413C121.608 68.3413 120.866 67.5608 119.725 67.5608C118.583 67.5608 117.842 68.3413 117.842 69.5413C117.842 70.7414 118.583 71.5219 119.725 71.5219ZM124.254 72H123.512L123.502 67.6876H122.419V67.0729H123.502V66.2144C123.502 65.307 124.146 64.6826 125.102 64.6826C125.971 64.6826 126.615 65.2094 126.79 65.9412L126.137 66.2144C126.029 65.707 125.62 65.3265 125.132 65.3265C124.615 65.3265 124.244 65.7363 124.244 66.3412V67.0729H126.371V67.6876H124.244L124.254 72ZM132.154 72H131.188L129.549 67.0729H130.329L131.646 71.2683H131.656L132.954 67.0729H133.881L135.198 71.278H135.208L136.515 67.0729H137.286L135.666 72H134.71L133.422 67.8535H133.403L132.154 72ZM139.295 72.1951C138.173 72.1951 137.393 71.5902 137.393 70.7121C137.393 69.9219 138.017 69.2877 139.617 69.0925L140.837 68.9462C141.081 68.9169 141.237 68.7803 141.237 68.5657C141.237 67.951 140.651 67.551 139.793 67.551C138.866 67.551 138.212 68.1462 138.173 68.7316L137.5 68.4486C137.588 67.6388 138.544 66.8778 139.822 66.8778C141.081 66.8778 141.968 67.5803 141.968 68.6828V71.1804C141.968 71.3756 142.076 71.5122 142.232 71.5122C142.368 71.5122 142.524 71.3951 142.632 71.2195L143.032 71.6878C142.827 71.9902 142.417 72.1951 142.037 72.1951C141.559 72.1951 141.256 71.8537 141.227 71.4048L141.217 71.1804H141.207C140.856 71.8049 140.173 72.1951 139.295 72.1951ZM139.422 71.5219C140.456 71.5219 141.217 70.8487 141.217 69.8926V69.5413L139.695 69.7267C138.505 69.8731 138.134 70.2536 138.134 70.7024C138.134 71.2 138.671 71.5219 139.422 71.5219ZM145.26 72.1951C144.031 72.1951 143.016 71.561 142.928 70.5072L143.66 70.3609C143.719 71.0439 144.382 71.5219 145.26 71.5219C146.031 71.5219 146.626 71.1609 146.626 70.6536C146.626 70.2731 146.265 70.0389 145.436 69.8731L144.655 69.717C143.631 69.5023 143.192 69.0925 143.192 68.3706C143.201 67.512 143.962 66.8778 145.016 66.8778C146.05 66.8778 146.821 67.4339 147.006 68.234L146.294 68.4291C146.226 67.912 145.709 67.5315 145.006 67.5315C144.382 67.5315 143.923 67.912 143.914 68.3315C143.914 68.6925 144.206 68.8974 144.889 69.0438L145.689 69.1999C146.85 69.4438 147.348 69.8536 147.348 70.5853C147.348 71.5122 146.45 72.1951 145.26 72.1951ZM149.988 72.1951C149.062 72.1951 148.437 71.5707 148.437 70.6731V67.6876H147.354V67.0729H148.437V65.6095L149.179 65.4338V67.0729H151.384V67.6876H149.179V70.5951C149.179 71.1512 149.52 71.5512 150.057 71.5512C150.554 71.5512 151.013 71.1902 151.11 70.556L151.715 70.8097C151.579 71.6683 150.827 72.1951 149.988 72.1951ZM154.771 72.1951C153.2 72.1951 152.049 71.0536 152.049 69.4828C152.049 67.9705 153.102 66.8778 154.566 66.8778C156.01 66.8778 156.956 67.9705 156.976 69.4926C156.976 69.5804 156.976 69.6877 156.966 69.7853H152.819C152.927 70.8097 153.717 71.5219 154.781 71.5219C155.551 71.5219 156.205 71.1219 156.478 70.5853L157.122 70.8487C156.8 71.639 155.873 72.1951 154.771 72.1951ZM152.829 69.1316H156.186C156.088 68.1266 155.454 67.5608 154.556 67.5608C153.639 67.5608 152.966 68.1949 152.829 69.1316Z" fill="white"/>
<path d="M238.917 66H234.585V59.1216H235.395V65.278H238.917V66ZM241.691 66.1951C240.11 66.1951 239.066 65.1414 239.066 63.5413C239.066 61.9315 240.11 60.8778 241.691 60.8778C243.281 60.8778 244.325 61.9315 244.325 63.5413C244.325 65.1414 243.281 66.1951 241.691 66.1951ZM241.691 65.5219C242.832 65.5219 243.574 64.7414 243.574 63.5413C243.574 62.3413 242.832 61.5608 241.691 61.5608C240.549 61.5608 239.808 62.3413 239.808 63.5413C239.808 64.7414 240.549 65.5219 241.691 65.5219ZM247.126 66H246.16L244.521 61.0729H245.302L246.619 65.2683H246.628L247.926 61.0729H248.853L250.17 65.278H250.18L251.487 61.0729H252.258L250.638 66H249.682L248.394 61.8535H248.375L247.126 66ZM258.573 63.7853H254.963V63.1121H258.573V63.7853ZM262.403 66H261.661V58.8289H262.403V61.8047H262.413C262.832 61.2095 263.447 60.8778 264.305 60.8778C265.437 60.8778 266.13 61.5998 266.13 62.8194V66H265.379V62.8974C265.379 62.0583 264.881 61.5217 264.101 61.5217C263.115 61.5217 262.403 62.2145 262.403 63.2194V66ZM267.503 60.1168C267.171 60.1168 266.957 59.9021 266.957 59.5704C266.957 59.2485 267.171 59.0338 267.503 59.0338C267.825 59.0338 268.059 59.2485 268.059 59.5704C268.059 59.9021 267.825 60.1168 267.503 60.1168ZM267.864 66H267.122V61.0729H267.864V66ZM271.077 68.244C269.916 68.244 268.833 67.7172 268.355 66.9269L268.931 66.439C269.321 67.122 270.16 67.5708 271.058 67.5708C272.277 67.5708 273.087 66.8 273.087 65.6097V65.0634H273.077C272.687 65.678 271.907 66.0585 271.214 66.0585C269.76 66.0585 268.755 65.0146 268.755 63.5023C268.755 61.951 269.76 60.8973 271.214 60.8973C271.926 60.8973 272.687 61.2973 273.087 61.873H273.097L273.175 61.0729H273.838V65.6097C273.838 67.2098 272.736 68.244 271.077 68.244ZM271.312 65.3853C272.375 65.3853 273.117 64.5755 273.117 63.5023C273.117 62.3998 272.375 61.5608 271.312 61.5608C270.238 61.5608 269.497 62.351 269.497 63.5023C269.497 64.6146 270.238 65.3853 271.312 65.3853ZM275.551 66H274.81V58.8289H275.551V61.8047H275.561C275.981 61.2095 276.595 60.8778 277.454 60.8778C278.586 60.8778 279.278 61.5998 279.278 62.8194V66H278.527V62.8974C278.527 62.0583 278.03 61.5217 277.249 61.5217C276.264 61.5217 275.551 62.2145 275.551 63.2194V66ZM284.998 60.868C285.837 60.868 286.412 61.4242 286.51 62.4096L285.866 62.6242C285.788 61.9315 285.427 61.5608 284.89 61.5608C284.1 61.5608 283.602 62.2145 283.602 63.2877V66H282.861V61.0729H283.495L283.563 61.8437H283.573C283.846 61.2486 284.373 60.868 284.998 60.868ZM289.628 66.1951C288.057 66.1951 286.906 65.0536 286.906 63.4828C286.906 61.9705 287.959 60.8778 289.423 60.8778C290.867 60.8778 291.813 61.9705 291.833 63.4926C291.833 63.5804 291.833 63.6877 291.823 63.7853H287.676C287.784 64.8097 288.574 65.5219 289.638 65.5219C290.408 65.5219 291.062 65.1219 291.335 64.5853L291.979 64.8487C291.657 65.639 290.73 66.1951 289.628 66.1951ZM287.686 63.1316H291.043C290.945 62.1266 290.311 61.5608 289.413 61.5608C288.496 61.5608 287.823 62.1949 287.686 63.1316ZM295.113 66.1951C293.581 66.1951 292.508 65.0926 292.508 63.5413C292.508 61.9803 293.523 60.8778 294.967 60.8778C296.079 60.8778 296.986 61.5705 297.23 62.5657L296.508 62.7316C296.313 62.0193 295.689 61.5608 294.967 61.5608C293.981 61.5608 293.25 62.3608 293.25 63.5413C293.25 64.7219 294.04 65.5219 295.113 65.5219C296.011 65.5219 296.752 64.9463 296.889 64.0975L297.611 64.2438C297.425 65.3756 296.381 66.1951 295.113 66.1951ZM300.189 68.244C298.969 68.244 298.062 67.7367 297.681 66.9561L298.316 66.5269C298.628 67.1513 299.291 67.5708 300.169 67.5708C301.282 67.5708 301.965 66.9464 301.965 65.9024V65.4731H301.955C301.613 66.0488 300.95 66.3903 300.267 66.3903C299.038 66.3903 298.238 65.4731 298.238 64.2145V61.0729H298.979V64.2145C298.979 65.0926 299.496 65.7171 300.355 65.7171C301.213 65.7171 301.955 65.0439 301.955 64.1072V61.0729H302.696L302.706 65.9024C302.706 67.3757 301.73 68.244 300.189 68.244ZM306.089 66.1951C304.557 66.1951 303.484 65.0926 303.484 63.5413C303.484 61.9803 304.499 60.8778 305.943 60.8778C307.055 60.8778 307.963 61.5705 308.206 62.5657L307.484 62.7316C307.289 62.0193 306.665 61.5608 305.943 61.5608C304.958 61.5608 304.226 62.3608 304.226 63.5413C304.226 64.7219 305.016 65.5219 306.089 65.5219C306.987 65.5219 307.728 64.9463 307.865 64.0975L308.587 64.2438C308.402 65.3756 307.358 66.1951 306.089 66.1951ZM310.014 66H309.272V58.8289H310.014V66ZM311.436 60.1168C311.104 60.1168 310.89 59.9021 310.89 59.5704C310.89 59.2485 311.104 59.0338 311.436 59.0338C311.758 59.0338 311.992 59.2485 311.992 59.5704C311.992 59.9021 311.758 60.1168 311.436 60.1168ZM311.797 66H311.056V61.0729H311.797V66ZM315.518 60.8778C316.65 60.8778 317.342 61.5998 317.342 62.8194V66H316.591V62.8974C316.591 62.0583 316.093 61.5217 315.313 61.5217C314.328 61.5217 313.615 62.2145 313.615 63.2194V66H312.874V61.0729H313.547L313.615 61.8047H313.625C314.045 61.2095 314.659 60.8778 315.518 60.8778ZM320.403 68.244C319.242 68.244 318.159 67.7172 317.681 66.9269L318.257 66.439C318.647 67.122 319.486 67.5708 320.384 67.5708C321.603 67.5708 322.413 66.8 322.413 65.6097V65.0634H322.403C322.013 65.678 321.233 66.0585 320.54 66.0585C319.086 66.0585 318.081 65.0146 318.081 63.5023C318.081 61.951 319.086 60.8973 320.54 60.8973C321.252 60.8973 322.013 61.2973 322.413 61.873H322.423L322.501 61.0729H323.164V65.6097C323.164 67.2098 322.062 68.244 320.403 68.244ZM320.637 65.3853C321.701 65.3853 322.442 64.5755 322.442 63.5023C322.442 62.3998 321.701 61.5608 320.637 61.5608C319.564 61.5608 318.823 62.351 318.823 63.5023C318.823 64.6146 319.564 65.3853 320.637 65.3853ZM237.015 79.1951C235.444 79.1951 234.293 78.0536 234.293 76.4828C234.293 74.9705 235.346 73.8778 236.81 73.8778C238.254 73.8778 239.2 74.9705 239.22 76.4926C239.22 76.5804 239.22 76.6877 239.21 76.7853H235.063C235.171 77.8097 235.961 78.5219 237.025 78.5219C237.795 78.5219 238.449 78.1219 238.722 77.5853L239.366 77.8487C239.044 78.639 238.117 79.1951 237.015 79.1951ZM235.073 76.1316H238.429C238.332 75.1266 237.698 74.5608 236.8 74.5608C235.883 74.5608 235.21 75.1949 235.073 76.1316ZM241.208 79H240.466L240.456 74.6876H239.374V74.0729H240.456V73.2144C240.456 72.307 241.1 71.6826 242.057 71.6826C242.925 71.6826 243.569 72.2094 243.744 72.9412L243.091 73.2144C242.983 72.707 242.574 72.3265 242.086 72.3265C241.569 72.3265 241.198 72.7363 241.198 73.3412V74.0729H243.325V74.6876H241.198L241.208 79ZM245.591 79H244.849L244.839 74.6876H243.756V74.0729H244.839V73.2144C244.839 72.307 245.483 71.6826 246.439 71.6826C247.308 71.6826 247.952 72.2094 248.127 72.9412L247.474 73.2144C247.366 72.707 246.956 72.3265 246.469 72.3265C245.952 72.3265 245.581 72.7363 245.581 73.3412V74.0729H247.708V74.6876H245.581L245.591 79ZM249.066 73.1168C248.735 73.1168 248.52 72.9021 248.52 72.5704C248.52 72.2485 248.735 72.0338 249.066 72.0338C249.388 72.0338 249.623 72.2485 249.623 72.5704C249.623 72.9021 249.388 73.1168 249.066 73.1168ZM249.427 79H248.686V74.0729H249.427V79ZM252.914 79.1951C251.382 79.1951 250.309 78.0926 250.309 76.5413C250.309 74.9803 251.324 73.8778 252.768 73.8778C253.88 73.8778 254.787 74.5705 255.031 75.5657L254.309 75.7316C254.114 75.0193 253.49 74.5608 252.768 74.5608C251.782 74.5608 251.051 75.3608 251.051 76.5413C251.051 77.7219 251.841 78.5219 252.914 78.5219C253.812 78.5219 254.553 77.9463 254.69 77.0975L255.412 77.2438C255.226 78.3756 254.182 79.1951 252.914 79.1951ZM256.546 73.1168C256.214 73.1168 256 72.9021 256 72.5704C256 72.2485 256.214 72.0338 256.546 72.0338C256.868 72.0338 257.102 72.2485 257.102 72.5704C257.102 72.9021 256.868 73.1168 256.546 73.1168ZM256.907 79H256.165V74.0729H256.907V79ZM260.511 79.1951C258.94 79.1951 257.788 78.0536 257.788 76.4828C257.788 74.9705 258.842 73.8778 260.306 73.8778C261.75 73.8778 262.696 74.9705 262.716 76.4926C262.716 76.5804 262.716 76.6877 262.706 76.7853H258.559C258.667 77.8097 259.457 78.5219 260.52 78.5219C261.291 78.5219 261.945 78.1219 262.218 77.5853L262.862 77.8487C262.54 78.639 261.613 79.1951 260.511 79.1951ZM258.569 76.1316H261.925C261.828 75.1266 261.194 74.5608 260.296 74.5608C259.379 74.5608 258.706 75.1949 258.569 76.1316ZM266.23 73.8778C267.362 73.8778 268.055 74.5998 268.055 75.8194V79H267.303V75.8974C267.303 75.0583 266.806 74.5217 266.025 74.5217C265.04 74.5217 264.328 75.2145 264.328 76.2194V79H263.586V74.0729H264.259L264.328 74.8047H264.337C264.757 74.2095 265.371 73.8778 266.23 73.8778ZM271.389 79.1951C269.857 79.1951 268.784 78.0926 268.784 76.5413C268.784 74.9803 269.798 73.8778 271.242 73.8778C272.355 73.8778 273.262 74.5705 273.506 75.5657L272.784 75.7316C272.589 75.0193 271.964 74.5608 271.242 74.5608C270.257 74.5608 269.525 75.3608 269.525 76.5413C269.525 77.7219 270.315 78.5219 271.389 78.5219C272.286 78.5219 273.028 77.9463 273.164 77.0975L273.886 77.2438C273.701 78.3756 272.657 79.1951 271.389 79.1951ZM276.464 81.244C275.245 81.244 274.338 80.7367 273.957 79.9561L274.591 79.5269C274.903 80.1513 275.567 80.5708 276.445 80.5708C277.557 80.5708 278.24 79.9464 278.24 78.9024V78.4731H278.23C277.889 79.0488 277.225 79.3903 276.543 79.3903C275.313 79.3903 274.513 78.4731 274.513 77.2145V74.0729H275.255V77.2145C275.255 78.0926 275.772 78.7171 276.63 78.7171C277.489 78.7171 278.23 78.0439 278.23 77.1072V74.0729H278.972L278.982 78.9024C278.982 80.3757 278.006 81.244 276.464 81.244ZM283.355 81.0489H282.613V74.0729H283.257L283.335 74.9218H283.345C283.764 74.2681 284.438 73.8778 285.267 73.8778C286.711 73.8778 287.774 74.9998 287.774 76.5413C287.774 78.0731 286.711 79.1951 285.277 79.1951C284.457 79.1951 283.794 78.8146 283.364 78.1804H283.355V81.0489ZM285.179 78.5122C286.252 78.5122 287.023 77.6536 287.023 76.5413C287.023 75.3998 286.243 74.5608 285.179 74.5608C284.116 74.5608 283.335 75.4193 283.335 76.5413C283.335 77.6536 284.116 78.5122 285.179 78.5122ZM291.086 79.1951C289.515 79.1951 288.363 78.0536 288.363 76.4828C288.363 74.9705 289.417 73.8778 290.881 73.8778C292.325 73.8778 293.271 74.9705 293.291 76.4926C293.291 76.5804 293.291 76.6877 293.281 76.7853H289.134C289.242 77.8097 290.032 78.5219 291.095 78.5219C291.866 78.5219 292.52 78.1219 292.793 77.5853L293.437 77.8487C293.115 78.639 292.188 79.1951 291.086 79.1951ZM289.144 76.1316H292.5C292.403 75.1266 291.769 74.5608 290.871 74.5608C289.954 74.5608 289.281 75.1949 289.144 76.1316ZM296.298 73.868C297.137 73.868 297.712 74.4242 297.81 75.4096L297.166 75.6242C297.088 74.9315 296.727 74.5608 296.19 74.5608C295.4 74.5608 294.903 75.2145 294.903 76.2877V79H294.161V74.0729H294.795L294.863 74.8437H294.873C295.146 74.2486 295.673 73.868 296.298 73.868ZM303.564 79.1951C302.033 79.1951 300.959 78.0926 300.959 76.5413C300.959 74.9803 301.974 73.8778 303.418 73.8778C304.53 73.8778 305.438 74.5705 305.682 75.5657L304.96 75.7316C304.764 75.0193 304.14 74.5608 303.418 74.5608C302.433 74.5608 301.701 75.3608 301.701 76.5413C301.701 77.7219 302.491 78.5219 303.564 78.5219C304.462 78.5219 305.203 77.9463 305.34 77.0975L306.062 77.2438C305.877 78.3756 304.833 79.1951 303.564 79.1951ZM308.357 79.1951C307.235 79.1951 306.455 78.5902 306.455 77.7121C306.455 76.9219 307.079 76.2877 308.679 76.0925L309.899 75.9462C310.143 75.9169 310.299 75.7803 310.299 75.5657C310.299 74.951 309.713 74.551 308.855 74.551C307.928 74.551 307.274 75.1462 307.235 75.7316L306.562 75.4486C306.65 74.6388 307.606 73.8778 308.884 73.8778C310.143 73.8778 311.031 74.5803 311.031 75.6828V78.1804C311.031 78.3756 311.138 78.5122 311.294 78.5122C311.431 78.5122 311.587 78.3951 311.694 78.2195L312.094 78.6878C311.889 78.9902 311.479 79.1951 311.099 79.1951C310.621 79.1951 310.318 78.8537 310.289 78.4048L310.279 78.1804H310.269C309.918 78.8049 309.235 79.1951 308.357 79.1951ZM308.484 78.5219C309.518 78.5219 310.279 77.8487 310.279 76.8926V76.5413L308.757 76.7267C307.567 76.8731 307.196 77.2536 307.196 77.7024C307.196 78.2 307.733 78.5219 308.484 78.5219ZM313.32 81.0489H312.578V74.0729H313.222L313.3 74.9218H313.31C313.73 74.2681 314.403 73.8778 315.232 73.8778C316.676 73.8778 317.74 74.9998 317.74 76.5413C317.74 78.0731 316.676 79.1951 315.242 79.1951C314.422 79.1951 313.759 78.8146 313.33 78.1804H313.32V81.0489ZM315.144 78.5122C316.218 78.5122 316.988 77.6536 316.988 76.5413C316.988 75.3998 316.208 74.5608 315.144 74.5608C314.081 74.5608 313.3 75.4193 313.3 76.5413C313.3 77.6536 314.081 78.5122 315.144 78.5122ZM318.973 73.1168C318.641 73.1168 318.426 72.9021 318.426 72.5704C318.426 72.2485 318.641 72.0338 318.973 72.0338C319.295 72.0338 319.529 72.2485 319.529 72.5704C319.529 72.9021 319.295 73.1168 318.973 73.1168ZM319.334 79H318.592V74.0729H319.334V79ZM322.557 79.1951C321.63 79.1951 321.006 78.5707 321.006 77.6731V74.6876H319.923V74.0729H321.006V72.6095L321.747 72.4338V74.0729H323.952V74.6876H321.747V77.5951C321.747 78.1512 322.089 78.5512 322.625 78.5512C323.123 78.5512 323.581 78.1902 323.679 77.556L324.284 77.8097C324.147 78.6683 323.396 79.1951 322.557 79.1951ZM326.613 79.1951C325.491 79.1951 324.71 78.5902 324.71 77.7121C324.71 76.9219 325.335 76.2877 326.935 76.0925L328.154 75.9462C328.398 75.9169 328.554 75.7803 328.554 75.5657C328.554 74.951 327.969 74.551 327.11 74.551C326.183 74.551 325.53 75.1462 325.491 75.7316L324.817 75.4486C324.905 74.6388 325.861 73.8778 327.14 73.8778C328.398 73.8778 329.286 74.5803 329.286 75.6828V78.1804C329.286 78.3756 329.393 78.5122 329.549 78.5122C329.686 78.5122 329.842 78.3951 329.949 78.2195L330.349 78.6878C330.145 78.9902 329.735 79.1951 329.354 79.1951C328.876 79.1951 328.574 78.8537 328.544 78.4048L328.535 78.1804H328.525C328.174 78.8049 327.491 79.1951 326.613 79.1951ZM326.739 78.5219C327.774 78.5219 328.535 77.8487 328.535 76.8926V76.5413L327.013 76.7267C325.822 76.8731 325.452 77.2536 325.452 77.7024C325.452 78.2 325.988 78.5219 326.739 78.5219ZM335.443 76.3852H335.073V75.0486C335.073 74.7852 334.917 74.6876 334.692 74.8242L333.531 75.4974L333.346 75.1754L334.497 74.5022C334.721 74.3656 334.721 74.19 334.497 74.0534L333.346 73.39L333.531 73.0583L334.692 73.7315C334.917 73.868 335.073 73.7705 335.073 73.5071V72.1704H335.443V73.5071C335.443 73.7705 335.609 73.868 335.834 73.7315L336.995 73.0583L337.18 73.39L336.019 74.0534C335.795 74.19 335.795 74.3656 336.019 74.5022L337.18 75.1754L336.995 75.4974L335.834 74.8242C335.609 74.6876 335.443 74.7852 335.443 75.0486V76.3852ZM344.696 79H340.393V78.278H342.335V73.2144H342.325C342.062 73.6241 341.525 73.8973 340.881 74.1022L340.637 73.3022C341.506 73.107 342.091 72.707 342.403 72.1216H343.155V78.278H344.696V79ZM348.015 79.2439C346.268 79.2439 345.088 77.6926 345.088 75.5657C345.088 73.429 346.268 71.8777 348.015 71.8777C349.751 71.8777 350.932 73.429 350.932 75.5657C350.932 77.6926 349.751 79.2439 348.015 79.2439ZM348.015 78.5219C349.283 78.5219 350.122 77.2731 350.122 75.5657C350.122 73.8485 349.283 72.5997 348.015 72.5997C346.746 72.5997 345.897 73.8485 345.897 75.5657C345.897 77.2731 346.746 78.5219 348.015 78.5219ZM353.073 76.1463C352.206 76.1463 351.597 75.6078 351.551 74.8058L352.019 74.7121C352.048 75.3092 352.47 75.7132 353.067 75.7132C353.67 75.7132 354.068 75.3151 354.068 74.6946C354.068 74.0916 353.681 73.6935 353.09 73.6935C352.792 73.6935 352.475 73.834 352.323 74.0389L351.984 73.9336L352.113 71.873H354.132V72.3062H352.546L352.446 73.5472C352.598 73.3891 352.909 73.2838 353.219 73.2838C354.027 73.2838 354.554 73.834 354.554 74.6829C354.554 75.5727 353.974 76.1463 353.073 76.1463Z" fill="white"/>
<circle cx="9.05967" cy="9.05967" r="9.05967" transform="matrix(-1 0 0 1 46.1191 152.458)" fill="#4589FF"/>
<path d="M55.1608 165.246H54.3706V158.367H57.1902C58.6634 158.367 59.6879 159.236 59.6879 160.455C59.6879 161.675 58.6537 162.533 57.1902 162.533H55.1608V165.246ZM55.1608 159.089V161.802H57.1902C58.1756 161.802 58.8781 161.245 58.8781 160.455C58.8781 159.655 58.1854 159.089 57.1902 159.089H55.1608ZM61.9616 165.441C60.8396 165.441 60.0591 164.836 60.0591 163.958C60.0591 163.167 60.6835 162.533 62.2836 162.338L63.5032 162.192C63.7471 162.163 63.9032 162.026 63.9032 161.811C63.9032 161.197 63.3178 160.797 62.4592 160.797C61.5323 160.797 60.8786 161.392 60.8396 161.977L60.1664 161.694C60.2542 160.884 61.2104 160.123 62.4885 160.123C63.7471 160.123 64.6349 160.826 64.6349 161.928V164.426C64.6349 164.621 64.7422 164.758 64.8983 164.758C65.0349 164.758 65.191 164.641 65.2984 164.465L65.6984 164.933C65.4935 165.236 65.0837 165.441 64.7032 165.441C64.2251 165.441 63.9227 165.099 63.8934 164.65L63.8837 164.426H63.8739C63.5227 165.05 62.8397 165.441 61.9616 165.441ZM62.0884 164.768C63.1226 164.768 63.8837 164.094 63.8837 163.138V162.787L62.3616 162.972C61.1713 163.119 60.8006 163.499 60.8006 163.948C60.8006 164.446 61.3372 164.768 62.0884 164.768ZM66.9244 167.294H66.1829V160.319H66.8268L66.9048 161.167H66.9146C67.3341 160.514 68.0073 160.123 68.8366 160.123C70.2806 160.123 71.3441 161.245 71.3441 162.787C71.3441 164.319 70.2806 165.441 68.8464 165.441C68.0268 165.441 67.3634 165.06 66.9341 164.426H66.9244V167.294ZM68.7488 164.758C69.822 164.758 70.5928 163.899 70.5928 162.787C70.5928 161.645 69.8123 160.806 68.7488 160.806C67.6854 160.806 66.9048 161.665 66.9048 162.787C66.9048 163.899 67.6854 164.758 68.7488 164.758ZM74.6552 165.441C73.0844 165.441 71.9331 164.299 71.9331 162.728C71.9331 161.216 72.9868 160.123 74.4503 160.123C75.8943 160.123 76.8407 161.216 76.8602 162.738C76.8602 162.826 76.8602 162.933 76.8504 163.031H72.7039C72.8112 164.055 73.6015 164.768 74.665 164.768C75.4357 164.768 76.0894 164.368 76.3626 163.831L77.0065 164.094C76.6846 164.885 75.7577 165.441 74.6552 165.441ZM72.7137 162.377H76.0699C75.9723 161.372 75.3382 160.806 74.4406 160.806C73.5234 160.806 72.8502 161.441 72.7137 162.377ZM79.8673 160.114C80.7064 160.114 81.282 160.67 81.3796 161.655L80.7357 161.87C80.6576 161.177 80.2966 160.806 79.76 160.806C78.9697 160.806 78.4722 161.46 78.4722 162.533V165.246H77.7307V160.319H78.3648L78.4331 161.089H78.4429C78.7161 160.494 79.2429 160.114 79.8673 160.114Z" fill="white"/>
<circle cx="9.05967" cy="9.05967" r="9.05967" transform="matrix(-1 0 0 1 166.714 92.2197)" fill="#D2A106"/>
<path d="M176.109 104.779H175.299V97.9009H176.109V104.779ZM179.828 99.6571C180.959 99.6571 181.652 100.379 181.652 101.599V104.779H180.901V101.677C180.901 100.838 180.403 100.301 179.623 100.301C178.637 100.301 177.925 100.994 177.925 101.999V104.779H177.183V99.8522H177.857L177.925 100.584H177.935C178.354 99.9888 178.969 99.6571 179.828 99.6571ZM184.986 104.974C183.454 104.974 182.381 103.872 182.381 102.321C182.381 100.76 183.396 99.6571 184.84 99.6571C185.952 99.6571 186.859 100.35 187.103 101.345L186.381 101.511C186.186 100.799 185.562 100.34 184.84 100.34C183.854 100.34 183.123 101.14 183.123 102.321C183.123 103.501 183.913 104.301 184.986 104.301C185.884 104.301 186.625 103.726 186.762 102.877L187.484 103.023C187.298 104.155 186.255 104.974 184.986 104.974ZM188.618 98.8961C188.286 98.8961 188.072 98.6814 188.072 98.3497C188.072 98.0278 188.286 97.8131 188.618 97.8131C188.94 97.8131 189.174 98.0278 189.174 98.3497C189.174 98.6814 188.94 98.8961 188.618 98.8961ZM188.979 104.779H188.237V99.8522H188.979V104.779ZM192.7 99.6571C193.831 99.6571 194.524 100.379 194.524 101.599V104.779H193.773V101.677C193.773 100.838 193.275 100.301 192.495 100.301C191.509 100.301 190.797 100.994 190.797 101.999V104.779H190.056V99.8522H190.729L190.797 100.584H190.807C191.226 99.9888 191.841 99.6571 192.7 99.6571ZM197.975 104.974C196.405 104.974 195.253 103.833 195.253 102.262C195.253 100.75 196.307 99.6571 197.771 99.6571C199.215 99.6571 200.161 100.75 200.18 102.272C200.18 102.36 200.18 102.467 200.171 102.565H196.024C196.131 103.589 196.922 104.301 197.985 104.301C198.756 104.301 199.41 103.901 199.683 103.365L200.327 103.628C200.005 104.418 199.078 104.974 197.975 104.974ZM196.034 101.911H199.39C199.293 100.906 198.658 100.34 197.761 100.34C196.844 100.34 196.17 100.974 196.034 101.911ZM203.188 99.6473C204.027 99.6473 204.602 100.203 204.7 101.189L204.056 101.404C203.978 100.711 203.617 100.34 203.08 100.34C202.29 100.34 201.792 100.994 201.792 102.067V104.779H201.051V99.8522H201.685L201.753 100.623H201.763C202.036 100.028 202.563 99.6473 203.188 99.6473ZM206.958 104.974C205.836 104.974 205.055 104.37 205.055 103.491C205.055 102.701 205.68 102.067 207.28 101.872L208.499 101.725C208.743 101.696 208.899 101.56 208.899 101.345C208.899 100.73 208.314 100.33 207.455 100.33C206.528 100.33 205.875 100.925 205.836 101.511L205.163 101.228C205.25 100.418 206.207 99.6571 207.485 99.6571C208.743 99.6571 209.631 100.36 209.631 101.462V103.96C209.631 104.155 209.738 104.291 209.895 104.291C210.031 104.291 210.187 104.174 210.295 103.999L210.695 104.467C210.49 104.77 210.08 104.974 209.699 104.974C209.221 104.974 208.919 104.633 208.89 104.184L208.88 103.96H208.87C208.519 104.584 207.836 104.974 206.958 104.974ZM207.085 104.301C208.119 104.301 208.88 103.628 208.88 102.672V102.321L207.358 102.506C206.168 102.652 205.797 103.033 205.797 103.482C205.797 103.979 206.333 104.301 207.085 104.301ZM213.833 104.974C213.003 104.974 212.33 104.584 211.911 103.93H211.901L211.823 104.779H211.179V97.6082H211.921V100.682H211.93C212.36 100.038 213.023 99.6571 213.843 99.6571C215.277 99.6571 216.34 100.779 216.34 102.321C216.34 103.852 215.277 104.974 213.833 104.974ZM213.745 104.301C214.808 104.301 215.589 103.452 215.589 102.321C215.589 101.199 214.818 100.34 213.745 100.34C212.682 100.34 211.901 101.199 211.901 102.321C211.901 103.433 212.682 104.301 213.745 104.301ZM217.866 104.779H217.124V97.6082H217.866V104.779ZM221.366 104.974C219.796 104.974 218.644 103.833 218.644 102.262C218.644 100.75 219.698 99.6571 221.162 99.6571C222.605 99.6571 223.552 100.75 223.571 102.272C223.571 102.36 223.571 102.467 223.562 102.565H219.415C219.522 103.589 220.313 104.301 221.376 104.301C222.147 104.301 222.801 103.901 223.074 103.365L223.718 103.628C223.396 104.418 222.469 104.974 221.366 104.974ZM219.425 101.911H222.781C222.684 100.906 222.049 100.34 221.152 100.34C220.235 100.34 219.561 100.974 219.425 101.911Z" fill="white"/>
<circle cx="9.05967" cy="9.05967" r="9.05967" transform="matrix(-1 0 0 1 167.119 122.339)" fill="#D12771"/>
<path d="M176.514 134.898H175.705V128.02H176.514V134.898ZM179.725 129.766C180.565 129.766 181.14 130.323 181.238 131.308L180.594 131.523C180.516 130.83 180.155 130.459 179.618 130.459C178.828 130.459 178.33 131.113 178.33 132.186V134.898H177.589V129.971H178.223L178.291 130.742H178.301C178.574 130.147 179.101 129.766 179.725 129.766ZM184.258 135.094C182.678 135.094 181.634 134.04 181.634 132.44C181.634 130.83 182.678 129.776 184.258 129.776C185.848 129.776 186.892 130.83 186.892 132.44C186.892 134.04 185.848 135.094 184.258 135.094ZM184.258 134.42C185.4 134.42 186.141 133.64 186.141 132.44C186.141 131.24 185.4 130.459 184.258 130.459C183.117 130.459 182.375 131.24 182.375 132.44C182.375 133.64 183.117 134.42 184.258 134.42ZM190.313 129.776C191.445 129.776 192.138 130.498 192.138 131.718V134.898H191.387V131.796C191.387 130.957 190.889 130.42 190.108 130.42C189.123 130.42 188.411 131.113 188.411 132.118V134.898H187.669V129.971H188.342L188.411 130.703H188.421C188.84 130.108 189.455 129.776 190.313 129.776Z" fill="white"/>
<circle cx="9.05967" cy="9.05967" r="8.90967" transform="matrix(-1 0 0 1 211.618 58.9497)" stroke="white" stroke-width="0.3"/>
<circle cx="5.22673" cy="5.22673" r="4.87828" transform="matrix(-1 0 0 1 42.7256 68.7065)" stroke="white" stroke-width="0.696897"/>
<circle cx="5.22673" cy="5.22673" r="4.87828" transform="matrix(-1 0 0 1 42.7256 68.7065)" stroke="white" stroke-width="0.696897"/>
<circle cx="8.36277" cy="8.36277" r="8.01432" transform="matrix(-1 0 0 1 45.5132 62.4346)" stroke="white" stroke-width="0.696897"/>
<circle cx="11.4988" cy="11.4988" r="11.1504" transform="matrix(-1 0 0 1 48.9976 56.1621)" stroke="white" stroke-width="0.696897"/>
<path d="M37.048 24H31.72V15.54H32.716V23.112H37.048V24ZM40.5791 24.24C38.6471 24.24 37.2311 22.836 37.2311 20.904C37.2311 19.044 38.5271 17.7 40.3271 17.7C42.1031 17.7 43.2671 19.044 43.2911 20.916C43.2911 21.024 43.2911 21.156 43.2791 21.276H38.1791C38.3111 22.536 39.2831 23.412 40.5911 23.412C41.5391 23.412 42.3431 22.92 42.6791 22.26L43.4711 22.584C43.0751 23.556 41.9351 24.24 40.5791 24.24ZM38.1911 20.472H42.3191C42.1991 19.236 41.4191 18.54 40.3151 18.54C39.1871 18.54 38.3591 19.32 38.1911 20.472ZM46.9897 26.76C45.5617 26.76 44.2297 26.112 43.6417 25.14L44.3497 24.54C44.8297 25.38 45.8617 25.932 46.9657 25.932C48.4657 25.932 49.4617 24.984 49.4617 23.52V22.848H49.4497C48.9697 23.604 48.0097 24.072 47.1577 24.072C45.3697 24.072 44.1337 22.788 44.1337 20.928C44.1337 19.02 45.3697 17.724 47.1577 17.724C48.0337 17.724 48.9697 18.216 49.4617 18.924H49.4737L49.5697 17.94H50.3857V23.52C50.3857 25.488 49.0297 26.76 46.9897 26.76ZM47.2777 23.244C48.5857 23.244 49.4977 22.248 49.4977 20.928C49.4977 19.572 48.5857 18.54 47.2777 18.54C45.9577 18.54 45.0457 19.512 45.0457 20.928C45.0457 22.296 45.9577 23.244 47.2777 23.244ZM54.6885 24.24C52.7565 24.24 51.3405 22.836 51.3405 20.904C51.3405 19.044 52.6365 17.7 54.4365 17.7C56.2125 17.7 57.3765 19.044 57.4005 20.916C57.4005 21.024 57.4005 21.156 57.3885 21.276H52.2885C52.4205 22.536 53.3925 23.412 54.7005 23.412C55.6485 23.412 56.4525 22.92 56.7885 22.26L57.5805 22.584C57.1845 23.556 56.0445 24.24 54.6885 24.24ZM52.3005 20.472H56.4285C56.3085 19.236 55.5285 18.54 54.4245 18.54C53.2965 18.54 52.4685 19.32 52.3005 20.472ZM61.7231 17.7C63.1151 17.7 63.9671 18.588 63.9671 20.088V24H63.0431V20.184C63.0431 19.152 62.4311 18.492 61.4711 18.492C60.2591 18.492 59.3831 19.344 59.3831 20.58V24H58.4711V17.94H59.2991L59.3831 18.84H59.3951C59.9111 18.108 60.6671 17.7 61.7231 17.7ZM67.9479 24.24C66.1719 24.24 64.8639 22.86 64.8639 20.976C64.8639 19.08 66.1599 17.7 67.9359 17.7C68.9439 17.7 69.7599 18.168 70.2759 18.96H70.2879V15.18H71.2119V24H70.4079L70.3239 22.956H70.3119C69.7959 23.76 68.9559 24.24 67.9479 24.24ZM68.0559 23.412C69.3639 23.412 70.3239 22.344 70.3239 20.976C70.3239 19.596 69.3639 18.54 68.0559 18.54C66.7359 18.54 65.7759 19.596 65.7759 20.976C65.7759 22.368 66.7479 23.412 68.0559 23.412Z" fill="#FFF1F1"/>
</svg>
