<svg width="350" height="188" viewBox="0 0 350 188" fill="none" xmlns="http://www.w3.org/2000/svg">
<line x1="2.21724e-08" y1="39.75" x2="350" y2="39.75" stroke="white" stroke-width="0.5"/>
<circle cx="9.05967" cy="9.05967" r="9.05967" transform="matrix(-1 0 0 1 45.9067 120.096)" fill="#007D79"/>
<circle cx="9.05967" cy="9.05967" r="9.05967" transform="matrix(-1 0 0 1 45.9067 145.881)" fill="#4589FF"/>
<circle cx="9.05967" cy="9.05967" r="9.05967" transform="matrix(-1 0 0 1 156.714 92.2197)" fill="#D2A106"/>
<circle cx="9.05967" cy="9.05967" r="9.05967" transform="matrix(-1 0 0 1 157.119 120.096)" fill="#D12771"/>
<circle cx="9.05967" cy="9.05967" r="9.05967" transform="matrix(-1 0 0 1 45.9067 92.2197)" fill="#8A3FFC"/>
<circle cx="9.05967" cy="9.05967" r="8.55967" transform="matrix(-1 0 0 1 204.8 62.9497)" stroke="white"/>
<circle cx="9.05967" cy="9.05967" r="8.05967" transform="matrix(-1 0 0 1 210.375 62.9497)" stroke="white" stroke-width="2"/>
<path d="M57.251 132.883H56.3143L53.6703 126.004H54.5289L56.7827 131.995H56.8022L59.0364 126.004H59.895L57.251 132.883ZM62.3233 133.078C60.7525 133.078 59.6012 131.936 59.6012 130.366C59.6012 128.853 60.655 127.761 62.1184 127.761C63.5624 127.761 64.5088 128.853 64.5283 130.375C64.5283 130.463 64.5283 130.571 64.5186 130.668H60.372C60.4793 131.693 61.2696 132.405 62.3331 132.405C63.1038 132.405 63.7575 132.005 64.0307 131.468L64.6747 131.732C64.3527 132.522 63.4258 133.078 62.3233 133.078ZM60.3818 130.014H63.738C63.6405 129.009 63.0063 128.444 62.1087 128.444C61.1916 128.444 60.5184 129.078 60.3818 130.014ZM67.5355 135.127C66.3744 135.127 65.2915 134.6 64.8134 133.81L65.389 133.322C65.7793 134.005 66.6183 134.454 67.516 134.454C68.7355 134.454 69.5453 133.683 69.5453 132.493V131.946H69.5356C69.1453 132.561 68.3648 132.941 67.6721 132.941C66.2183 132.941 65.2134 131.897 65.2134 130.385C65.2134 128.834 66.2183 127.78 67.6721 127.78C68.3843 127.78 69.1453 128.18 69.5453 128.756H69.5551L69.6331 127.956H70.2966V132.493C70.2966 134.093 69.1941 135.127 67.5355 135.127ZM67.7696 132.268C68.8331 132.268 69.5746 131.458 69.5746 130.385C69.5746 129.283 68.8331 128.444 67.7696 128.444C66.6964 128.444 65.9549 129.234 65.9549 130.385C65.9549 131.497 66.6964 132.268 67.7696 132.268ZM73.7949 133.078C72.2241 133.078 71.0728 131.936 71.0728 130.366C71.0728 128.853 72.1265 127.761 73.59 127.761C75.034 127.761 75.9804 128.853 75.9999 130.375C75.9999 130.463 75.9999 130.571 75.9901 130.668H71.8436C71.9509 131.693 72.7412 132.405 73.8047 132.405C74.5754 132.405 75.2291 132.005 75.5023 131.468L76.1462 131.732C75.8243 132.522 74.8974 133.078 73.7949 133.078ZM71.8534 130.014H75.2096C75.112 129.009 74.4779 128.444 73.5803 128.444C72.6631 128.444 71.9899 129.078 71.8534 130.014ZM78.8262 133.078C77.8994 133.078 77.275 132.454 77.275 131.556V128.57H76.192V127.956H77.275V126.492L78.0165 126.317V127.956H80.2214V128.57H78.0165V131.478C78.0165 132.034 78.3579 132.434 78.8945 132.434C79.3921 132.434 79.8507 132.073 79.9483 131.439L80.5532 131.693C80.4166 132.551 79.6653 133.078 78.8262 133.078ZM82.8821 133.078C81.7601 133.078 80.9796 132.473 80.9796 131.595C80.9796 130.805 81.604 130.17 83.204 129.975L84.4236 129.829C84.6675 129.8 84.8236 129.663 84.8236 129.449C84.8236 128.834 84.2382 128.434 83.3797 128.434C82.4528 128.434 81.7991 129.029 81.7601 129.614L81.0869 129.331C81.1747 128.522 82.1308 127.761 83.4089 127.761C84.6675 127.761 85.5554 128.463 85.5554 129.566V132.063C85.5554 132.258 85.6627 132.395 85.8188 132.395C85.9554 132.395 86.1115 132.278 86.2188 132.102L86.6188 132.571C86.414 132.873 86.0042 133.078 85.6237 133.078C85.1456 133.078 84.8432 132.736 84.8139 132.288L84.8041 132.063H84.7944C84.4431 132.688 83.7602 133.078 82.8821 133.078ZM83.0089 132.405C84.0431 132.405 84.8041 131.732 84.8041 130.775V130.424L83.2821 130.61C82.0918 130.756 81.7211 131.136 81.7211 131.585C81.7211 132.083 82.2577 132.405 83.0089 132.405ZM89.7571 133.078C88.9278 133.078 88.2546 132.688 87.8351 132.034H87.8253L87.7473 132.883H87.1033V125.712H87.8448V128.785H87.8546C88.2839 128.141 88.9473 127.761 89.7669 127.761C91.2011 127.761 92.2645 128.883 92.2645 130.424C92.2645 131.956 91.2011 133.078 89.7571 133.078ZM89.6693 132.405C90.7328 132.405 91.5133 131.556 91.5133 130.424C91.5133 129.302 90.7425 128.444 89.6693 128.444C88.6058 128.444 87.8253 129.302 87.8253 130.424C87.8253 131.536 88.6058 132.405 89.6693 132.405ZM93.7902 132.883H93.0487V125.712H93.7902V132.883ZM97.2907 133.078C95.7199 133.078 94.5686 131.936 94.5686 130.366C94.5686 128.853 95.6223 127.761 97.0858 127.761C98.5298 127.761 99.4762 128.853 99.4957 130.375C99.4957 130.463 99.4957 130.571 99.4859 130.668H95.3394C95.4467 131.693 96.237 132.405 97.3005 132.405C98.0712 132.405 98.7249 132.005 98.9981 131.468L99.642 131.732C99.3201 132.522 98.3932 133.078 97.2907 133.078ZM95.3491 130.014H98.7054C98.6078 129.009 97.9737 128.444 97.0761 128.444C96.1589 128.444 95.4857 129.078 95.3491 130.014ZM102.405 133.078C101.176 133.078 100.161 132.444 100.073 131.39L100.805 131.244C100.864 131.927 101.527 132.405 102.405 132.405C103.176 132.405 103.771 132.044 103.771 131.536C103.771 131.156 103.41 130.922 102.581 130.756L101.8 130.6C100.776 130.385 100.337 129.975 100.337 129.253C100.347 128.395 101.108 127.761 102.161 127.761C103.196 127.761 103.966 128.317 104.152 129.117L103.439 129.312C103.371 128.795 102.854 128.414 102.152 128.414C101.527 128.414 101.069 128.795 101.059 129.214C101.059 129.575 101.352 129.78 102.035 129.927L102.835 130.083C103.996 130.327 104.493 130.736 104.493 131.468C104.493 132.395 103.596 133.078 102.405 133.078Z" fill="white"/>
<path d="M57.4949 105.251C55.4167 105.251 53.9142 103.7 53.9142 101.573C53.9142 99.4363 55.3972 97.885 57.4461 97.885C58.812 97.885 60.0218 98.7534 60.4316 99.9632L59.6804 100.207C59.3584 99.2705 58.4608 98.607 57.4364 98.607C55.8558 98.607 54.724 99.8363 54.724 101.573C54.724 103.28 55.9143 104.529 57.5632 104.529C59.0755 104.529 60.2755 103.417 60.2755 101.934H56.4509V101.212H61.1048V105.007H60.4219L60.3438 103.68H60.3341C59.7389 104.656 58.7242 105.251 57.4949 105.251ZM62.7198 105.007H61.9783V97.8363H62.7198V105.007ZM65.3031 105.202C64.1811 105.202 63.4006 104.598 63.4006 103.719C63.4006 102.929 64.025 102.295 65.6251 102.1L66.8447 101.954C67.0886 101.924 67.2447 101.788 67.2447 101.573C67.2447 100.958 66.6593 100.558 65.8007 100.558C64.8738 100.558 64.2201 101.153 64.1811 101.739L63.5079 101.456C63.5957 100.646 64.5519 99.8851 65.83 99.8851C67.0886 99.8851 67.9764 100.588 67.9764 101.69V104.188C67.9764 104.383 68.0837 104.519 68.2398 104.519C68.3764 104.519 68.5325 104.402 68.6399 104.227L69.0399 104.695C68.835 104.998 68.4252 105.202 68.0447 105.202C67.5666 105.202 67.2642 104.861 67.2349 104.412L67.2252 104.188H67.2154C66.8642 104.812 66.1812 105.202 65.3031 105.202ZM65.43 104.529C66.4641 104.529 67.2252 103.856 67.2252 102.9V102.549L65.7031 102.734C64.5128 102.88 64.1421 103.261 64.1421 103.71C64.1421 104.207 64.6787 104.529 65.43 104.529ZM71.2681 105.202C70.0388 105.202 69.0241 104.568 68.9363 103.515L69.668 103.368C69.7266 104.051 70.39 104.529 71.2681 104.529C72.0389 104.529 72.634 104.168 72.634 103.661C72.634 103.28 72.273 103.046 71.4437 102.88L70.6632 102.724C69.6388 102.51 69.1997 102.1 69.1997 101.378C69.2095 100.519 69.9705 99.8851 71.0242 99.8851C72.0584 99.8851 72.8292 100.441 73.0145 101.241L72.3023 101.436C72.234 100.919 71.7169 100.539 71.0144 100.539C70.39 100.539 69.9315 100.919 69.9217 101.339C69.9217 101.7 70.2144 101.905 70.8974 102.051L71.6974 102.207C72.8584 102.451 73.356 102.861 73.356 103.593C73.356 104.519 72.4584 105.202 71.2681 105.202ZM76.0797 105.202C74.8504 105.202 73.8357 104.568 73.7479 103.515L74.4796 103.368C74.5382 104.051 75.2016 104.529 76.0797 104.529C76.8505 104.529 77.4456 104.168 77.4456 103.661C77.4456 103.28 77.0846 103.046 76.2553 102.88L75.4748 102.724C74.4504 102.51 74.0113 102.1 74.0113 101.378C74.0211 100.519 74.7821 99.8851 75.8358 99.8851C76.87 99.8851 77.6407 100.441 77.8261 101.241L77.1139 101.436C77.0456 100.919 76.5285 100.539 75.826 100.539C75.2016 100.539 74.743 100.919 74.7333 101.339C74.7333 101.7 75.026 101.905 75.7089 102.051L76.509 102.207C77.67 102.451 78.1676 102.861 78.1676 103.593C78.1676 104.519 77.27 105.202 76.0797 105.202Z" fill="white"/>
<path d="M56.0859 76H55.2761V69.8436H52.9735V69.1216H58.3884V69.8436H56.0859V76ZM60.4333 76.1951C58.8527 76.1951 57.8088 75.1414 57.8088 73.5413C57.8088 71.9315 58.8527 70.8778 60.4333 70.8778C62.0236 70.8778 63.0675 71.9315 63.0675 73.5413C63.0675 75.1414 62.0236 76.1951 60.4333 76.1951ZM60.4333 75.5219C61.5748 75.5219 62.3163 74.7414 62.3163 73.5413C62.3163 72.3413 61.5748 71.5608 60.4333 71.5608C59.2918 71.5608 58.5503 72.3413 58.5503 73.5413C58.5503 74.7414 59.2918 75.5219 60.4333 75.5219ZM65.8004 76.1951C64.8735 76.1951 64.2491 75.5707 64.2491 74.6731V71.6876H63.1661V71.0729H64.2491V69.6095L64.9906 69.4338V71.0729H67.1956V71.6876H64.9906V74.5951C64.9906 75.1512 65.3321 75.5512 65.8687 75.5512C66.3663 75.5512 66.8248 75.1902 66.9224 74.556L67.5273 74.8097C67.3907 75.6683 66.6394 76.1951 65.8004 76.1951ZM69.8562 76.1951C68.7342 76.1951 67.9537 75.5902 67.9537 74.7121C67.9537 73.9219 68.5781 73.2877 70.1782 73.0925L71.3977 72.9462C71.6417 72.9169 71.7978 72.7803 71.7978 72.5657C71.7978 71.951 71.2124 71.551 70.3538 71.551C69.4269 71.551 68.7732 72.1462 68.7342 72.7316L68.061 72.4486C68.1488 71.6388 69.105 70.8778 70.3831 70.8778C71.6417 70.8778 72.5295 71.5803 72.5295 72.6828V75.1804C72.5295 75.3756 72.6368 75.5122 72.7929 75.5122C72.9295 75.5122 73.0856 75.3951 73.193 75.2195L73.593 75.6878C73.3881 75.9902 72.9783 76.1951 72.5978 76.1951C72.1197 76.1951 71.8173 75.8537 71.788 75.4048L71.7783 75.1804H71.7685C71.4173 75.8049 70.7343 76.1951 69.8562 76.1951ZM69.983 75.5219C71.0172 75.5219 71.7783 74.8487 71.7783 73.8926V73.5413L70.2562 73.7267C69.0659 73.8731 68.6952 74.2536 68.6952 74.7024C68.6952 75.2 69.2318 75.5219 69.983 75.5219ZM74.8189 76H74.0774V68.8289H74.8189V76ZM80.0606 76.1951C78.9386 76.1951 78.1581 75.5902 78.1581 74.7121C78.1581 73.9219 78.7825 73.2877 80.3825 73.0925L81.6021 72.9462C81.846 72.9169 82.0021 72.7803 82.0021 72.5657C82.0021 71.951 81.4167 71.551 80.5582 71.551C79.6313 71.551 78.9776 72.1462 78.9386 72.7316L78.2654 72.4486C78.3532 71.6388 79.3093 70.8778 80.5874 70.8778C81.846 70.8778 82.7339 71.5803 82.7339 72.6828V75.1804C82.7339 75.3756 82.8412 75.5122 82.9973 75.5122C83.1339 75.5122 83.29 75.3951 83.3973 75.2195L83.7973 75.6878C83.5925 75.9902 83.1827 76.1951 82.8022 76.1951C82.3241 76.1951 82.0217 75.8537 81.9924 75.4048L81.9826 75.1804H81.9729C81.6216 75.8049 80.9387 76.1951 80.0606 76.1951ZM80.1874 75.5219C81.2216 75.5219 81.9826 74.8487 81.9826 73.8926V73.5413L80.4606 73.7267C79.2703 73.8731 78.8996 74.2536 78.8996 74.7024C78.8996 75.2 79.4362 75.5219 80.1874 75.5219ZM85.0233 76H84.2818V71.0729H84.9258L85.0038 71.7949H85.0136C85.3063 71.2193 85.9502 70.8778 86.7405 70.8778C87.521 70.8778 88.0479 71.2388 88.3015 71.873H88.3113C88.7503 71.1803 89.4333 70.8778 90.165 70.8778C91.2382 70.8778 91.8724 71.5608 91.8724 72.7218V76H91.1212V72.7706C91.1212 72.0096 90.6821 71.5608 89.9406 71.5608C89.004 71.5608 88.4479 72.2632 88.4479 73.2584V76H87.7064V72.7706C87.7064 72.0096 87.2673 71.5608 86.5161 71.5608C85.5794 71.5608 85.0233 72.2632 85.0233 73.2584V76ZM95.2291 76.1951C93.6486 76.1951 92.6046 75.1414 92.6046 73.5413C92.6046 71.9315 93.6486 70.8778 95.2291 70.8778C96.8195 70.8778 97.8634 71.9315 97.8634 73.5413C97.8634 75.1414 96.8195 76.1951 95.2291 76.1951ZM95.2291 75.5219C96.3707 75.5219 97.1122 74.7414 97.1122 73.5413C97.1122 72.3413 96.3707 71.5608 95.2291 71.5608C94.0876 71.5608 93.3461 72.3413 93.3461 73.5413C93.3461 74.7414 94.0876 75.5219 95.2291 75.5219ZM100.416 76.1951C99.2843 76.1951 98.5916 75.4731 98.5916 74.2536V71.0729H99.3428V74.1755C99.3428 75.0146 99.8404 75.5512 100.621 75.5512C101.606 75.5512 102.319 74.8585 102.319 73.8536V71.0729H103.06V76H102.387L102.319 75.2683H102.309C101.889 75.8634 101.275 76.1951 100.416 76.1951ZM106.677 70.8778C107.809 70.8778 108.502 71.5998 108.502 72.8194V76H107.75V72.8974C107.75 72.0583 107.253 71.5217 106.472 71.5217C105.487 71.5217 104.775 72.2145 104.775 73.2194V76H104.033V71.0729H104.706L104.775 71.8047H104.784C105.204 71.2095 105.819 70.8778 106.677 70.8778ZM111.382 76.1951C110.455 76.1951 109.831 75.5707 109.831 74.6731V71.6876H108.748V71.0729H109.831V69.6095L110.572 69.4338V71.0729H112.777V71.6876H110.572V74.5951C110.572 75.1512 110.914 75.5512 111.45 75.5512C111.948 75.5512 112.406 75.1902 112.504 74.556L113.109 74.8097C112.972 75.6683 112.221 76.1951 111.382 76.1951ZM118.725 76.1951C117.144 76.1951 116.1 75.1414 116.1 73.5413C116.1 71.9315 117.144 70.8778 118.725 70.8778C120.315 70.8778 121.359 71.9315 121.359 73.5413C121.359 75.1414 120.315 76.1951 118.725 76.1951ZM118.725 75.5219C119.866 75.5219 120.608 74.7414 120.608 73.5413C120.608 72.3413 119.866 71.5608 118.725 71.5608C117.583 71.5608 116.842 72.3413 116.842 73.5413C116.842 74.7414 117.583 75.5219 118.725 75.5219ZM123.254 76H122.512L122.502 71.6876H121.419V71.0729H122.502V70.2144C122.502 69.307 123.146 68.6826 124.102 68.6826C124.971 68.6826 125.615 69.2094 125.79 69.9412L125.137 70.2144C125.029 69.707 124.62 69.3265 124.132 69.3265C123.615 69.3265 123.244 69.7363 123.244 70.3412V71.0729H125.371V71.6876H123.244L123.254 76ZM131.154 76H130.188L128.549 71.0729H129.329L130.646 75.2683H130.656L131.954 71.0729H132.881L134.198 75.278H134.208L135.515 71.0729H136.286L134.666 76H133.71L132.422 71.8535H132.403L131.154 76ZM138.295 76.1951C137.173 76.1951 136.393 75.5902 136.393 74.7121C136.393 73.9219 137.017 73.2877 138.617 73.0925L139.837 72.9462C140.081 72.9169 140.237 72.7803 140.237 72.5657C140.237 71.951 139.651 71.551 138.793 71.551C137.866 71.551 137.212 72.1462 137.173 72.7316L136.5 72.4486C136.588 71.6388 137.544 70.8778 138.822 70.8778C140.081 70.8778 140.968 71.5803 140.968 72.6828V75.1804C140.968 75.3756 141.076 75.5122 141.232 75.5122C141.368 75.5122 141.524 75.3951 141.632 75.2195L142.032 75.6878C141.827 75.9902 141.417 76.1951 141.037 76.1951C140.559 76.1951 140.256 75.8537 140.227 75.4048L140.217 75.1804H140.207C139.856 75.8049 139.173 76.1951 138.295 76.1951ZM138.422 75.5219C139.456 75.5219 140.217 74.8487 140.217 73.8926V73.5413L138.695 73.7267C137.505 73.8731 137.134 74.2536 137.134 74.7024C137.134 75.2 137.671 75.5219 138.422 75.5219ZM144.26 76.1951C143.031 76.1951 142.016 75.561 141.928 74.5072L142.66 74.3609C142.719 75.0439 143.382 75.5219 144.26 75.5219C145.031 75.5219 145.626 75.1609 145.626 74.6536C145.626 74.2731 145.265 74.0389 144.436 73.8731L143.655 73.717C142.631 73.5023 142.192 73.0925 142.192 72.3706C142.201 71.512 142.962 70.8778 144.016 70.8778C145.05 70.8778 145.821 71.4339 146.006 72.234L145.294 72.4291C145.226 71.912 144.709 71.5315 144.006 71.5315C143.382 71.5315 142.923 71.912 142.914 72.3315C142.914 72.6925 143.206 72.8974 143.889 73.0438L144.689 73.1999C145.85 73.4438 146.348 73.8536 146.348 74.5853C146.348 75.5122 145.45 76.1951 144.26 76.1951ZM148.988 76.1951C148.062 76.1951 147.437 75.5707 147.437 74.6731V71.6876H146.354V71.0729H147.437V69.6095L148.179 69.4338V71.0729H150.384V71.6876H148.179V74.5951C148.179 75.1512 148.52 75.5512 149.057 75.5512C149.554 75.5512 150.013 75.1902 150.11 74.556L150.715 74.8097C150.579 75.6683 149.827 76.1951 148.988 76.1951ZM153.771 76.1951C152.2 76.1951 151.049 75.0536 151.049 73.4828C151.049 71.9705 152.102 70.8778 153.566 70.8778C155.01 70.8778 155.956 71.9705 155.976 73.4926C155.976 73.5804 155.976 73.6877 155.966 73.7853H151.819C151.927 74.8097 152.717 75.5219 153.781 75.5219C154.551 75.5219 155.205 75.1219 155.478 74.5853L156.122 74.8487C155.8 75.639 154.873 76.1951 153.771 76.1951ZM151.829 73.1316H155.186C155.088 72.1266 154.454 71.5608 153.556 71.5608C152.639 71.5608 151.966 72.1949 151.829 73.1316Z" fill="white"/>
<path d="M227.917 70H223.585V63.1216H224.395V69.278H227.917V70ZM230.691 70.1951C229.11 70.1951 228.066 69.1414 228.066 67.5413C228.066 65.9315 229.11 64.8778 230.691 64.8778C232.281 64.8778 233.325 65.9315 233.325 67.5413C233.325 69.1414 232.281 70.1951 230.691 70.1951ZM230.691 69.5219C231.832 69.5219 232.574 68.7414 232.574 67.5413C232.574 66.3413 231.832 65.5608 230.691 65.5608C229.549 65.5608 228.808 66.3413 228.808 67.5413C228.808 68.7414 229.549 69.5219 230.691 69.5219ZM236.126 70H235.16L233.521 65.0729H234.302L235.619 69.2683H235.628L236.926 65.0729H237.853L239.17 69.278H239.18L240.487 65.0729H241.258L239.638 70H238.682L237.394 65.8535H237.375L236.126 70ZM247.573 67.7853H243.963V67.1121H247.573V67.7853ZM251.403 70H250.661V62.8289H251.403V65.8047H251.413C251.832 65.2095 252.447 64.8778 253.305 64.8778C254.437 64.8778 255.13 65.5998 255.13 66.8194V70H254.379V66.8974C254.379 66.0583 253.881 65.5217 253.101 65.5217C252.115 65.5217 251.403 66.2145 251.403 67.2194V70ZM256.503 64.1168C256.171 64.1168 255.957 63.9021 255.957 63.5704C255.957 63.2485 256.171 63.0338 256.503 63.0338C256.825 63.0338 257.059 63.2485 257.059 63.5704C257.059 63.9021 256.825 64.1168 256.503 64.1168ZM256.864 70H256.122V65.0729H256.864V70ZM260.077 72.244C258.916 72.244 257.833 71.7172 257.355 70.9269L257.931 70.439C258.321 71.122 259.16 71.5708 260.058 71.5708C261.277 71.5708 262.087 70.8 262.087 69.6097V69.0634H262.077C261.687 69.678 260.907 70.0585 260.214 70.0585C258.76 70.0585 257.755 69.0146 257.755 67.5023C257.755 65.951 258.76 64.8973 260.214 64.8973C260.926 64.8973 261.687 65.2973 262.087 65.873H262.097L262.175 65.0729H262.838V69.6097C262.838 71.2098 261.736 72.244 260.077 72.244ZM260.312 69.3853C261.375 69.3853 262.117 68.5755 262.117 67.5023C262.117 66.3998 261.375 65.5608 260.312 65.5608C259.238 65.5608 258.497 66.351 258.497 67.5023C258.497 68.6146 259.238 69.3853 260.312 69.3853ZM264.551 70H263.81V62.8289H264.551V65.8047H264.561C264.981 65.2095 265.595 64.8778 266.454 64.8778C267.586 64.8778 268.278 65.5998 268.278 66.8194V70H267.527V66.8974C267.527 66.0583 267.03 65.5217 266.249 65.5217C265.264 65.5217 264.551 66.2145 264.551 67.2194V70ZM273.998 64.868C274.837 64.868 275.412 65.4242 275.51 66.4096L274.866 66.6242C274.788 65.9315 274.427 65.5608 273.89 65.5608C273.1 65.5608 272.602 66.2145 272.602 67.2877V70H271.861V65.0729H272.495L272.563 65.8437H272.573C272.846 65.2486 273.373 64.868 273.998 64.868ZM278.628 70.1951C277.057 70.1951 275.906 69.0536 275.906 67.4828C275.906 65.9705 276.959 64.8778 278.423 64.8778C279.867 64.8778 280.813 65.9705 280.833 67.4926C280.833 67.5804 280.833 67.6877 280.823 67.7853H276.676C276.784 68.8097 277.574 69.5219 278.638 69.5219C279.408 69.5219 280.062 69.1219 280.335 68.5853L280.979 68.8487C280.657 69.639 279.73 70.1951 278.628 70.1951ZM276.686 67.1316H280.043C279.945 66.1266 279.311 65.5608 278.413 65.5608C277.496 65.5608 276.823 66.1949 276.686 67.1316ZM284.113 70.1951C282.581 70.1951 281.508 69.0926 281.508 67.5413C281.508 65.9803 282.523 64.8778 283.967 64.8778C285.079 64.8778 285.986 65.5705 286.23 66.5657L285.508 66.7316C285.313 66.0193 284.689 65.5608 283.967 65.5608C282.981 65.5608 282.25 66.3608 282.25 67.5413C282.25 68.7219 283.04 69.5219 284.113 69.5219C285.011 69.5219 285.752 68.9463 285.889 68.0975L286.611 68.2438C286.425 69.3756 285.381 70.1951 284.113 70.1951ZM289.189 72.244C287.969 72.244 287.062 71.7367 286.681 70.9561L287.316 70.5269C287.628 71.1513 288.291 71.5708 289.169 71.5708C290.282 71.5708 290.965 70.9464 290.965 69.9024V69.4731H290.955C290.613 70.0488 289.95 70.3903 289.267 70.3903C288.038 70.3903 287.238 69.4731 287.238 68.2145V65.0729H287.979V68.2145C287.979 69.0926 288.496 69.7171 289.355 69.7171C290.213 69.7171 290.955 69.0439 290.955 68.1072V65.0729H291.696L291.706 69.9024C291.706 71.3757 290.73 72.244 289.189 72.244ZM295.089 70.1951C293.557 70.1951 292.484 69.0926 292.484 67.5413C292.484 65.9803 293.499 64.8778 294.943 64.8778C296.055 64.8778 296.963 65.5705 297.206 66.5657L296.484 66.7316C296.289 66.0193 295.665 65.5608 294.943 65.5608C293.958 65.5608 293.226 66.3608 293.226 67.5413C293.226 68.7219 294.016 69.5219 295.089 69.5219C295.987 69.5219 296.728 68.9463 296.865 68.0975L297.587 68.2438C297.402 69.3756 296.358 70.1951 295.089 70.1951ZM299.014 70H298.272V62.8289H299.014V70ZM300.436 64.1168C300.104 64.1168 299.89 63.9021 299.89 63.5704C299.89 63.2485 300.104 63.0338 300.436 63.0338C300.758 63.0338 300.992 63.2485 300.992 63.5704C300.992 63.9021 300.758 64.1168 300.436 64.1168ZM300.797 70H300.056V65.0729H300.797V70ZM304.518 64.8778C305.65 64.8778 306.342 65.5998 306.342 66.8194V70H305.591V66.8974C305.591 66.0583 305.093 65.5217 304.313 65.5217C303.328 65.5217 302.615 66.2145 302.615 67.2194V70H301.874V65.0729H302.547L302.615 65.8047H302.625C303.045 65.2095 303.659 64.8778 304.518 64.8778ZM309.403 72.244C308.242 72.244 307.159 71.7172 306.681 70.9269L307.257 70.439C307.647 71.122 308.486 71.5708 309.384 71.5708C310.603 71.5708 311.413 70.8 311.413 69.6097V69.0634H311.403C311.013 69.678 310.233 70.0585 309.54 70.0585C308.086 70.0585 307.081 69.0146 307.081 67.5023C307.081 65.951 308.086 64.8973 309.54 64.8973C310.252 64.8973 311.013 65.2973 311.413 65.873H311.423L311.501 65.0729H312.164V69.6097C312.164 71.2098 311.062 72.244 309.403 72.244ZM309.637 69.3853C310.701 69.3853 311.442 68.5755 311.442 67.5023C311.442 66.3998 310.701 65.5608 309.637 65.5608C308.564 65.5608 307.823 66.351 307.823 67.5023C307.823 68.6146 308.564 69.3853 309.637 69.3853ZM226.015 83.1951C224.444 83.1951 223.293 82.0536 223.293 80.4828C223.293 78.9705 224.346 77.8778 225.81 77.8778C227.254 77.8778 228.2 78.9705 228.22 80.4926C228.22 80.5804 228.22 80.6877 228.21 80.7853H224.063C224.171 81.8097 224.961 82.5219 226.025 82.5219C226.795 82.5219 227.449 82.1219 227.722 81.5853L228.366 81.8487C228.044 82.639 227.117 83.1951 226.015 83.1951ZM224.073 80.1316H227.429C227.332 79.1266 226.698 78.5608 225.8 78.5608C224.883 78.5608 224.21 79.1949 224.073 80.1316ZM230.208 83H229.466L229.456 78.6876H228.374V78.0729H229.456V77.2144C229.456 76.307 230.1 75.6826 231.057 75.6826C231.925 75.6826 232.569 76.2094 232.744 76.9412L232.091 77.2144C231.983 76.707 231.574 76.3265 231.086 76.3265C230.569 76.3265 230.198 76.7363 230.198 77.3412V78.0729H232.325V78.6876H230.198L230.208 83ZM234.591 83H233.849L233.839 78.6876H232.756V78.0729H233.839V77.2144C233.839 76.307 234.483 75.6826 235.439 75.6826C236.308 75.6826 236.952 76.2094 237.127 76.9412L236.474 77.2144C236.366 76.707 235.956 76.3265 235.469 76.3265C234.952 76.3265 234.581 76.7363 234.581 77.3412V78.0729H236.708V78.6876H234.581L234.591 83ZM238.066 77.1168C237.735 77.1168 237.52 76.9021 237.52 76.5704C237.52 76.2485 237.735 76.0338 238.066 76.0338C238.388 76.0338 238.623 76.2485 238.623 76.5704C238.623 76.9021 238.388 77.1168 238.066 77.1168ZM238.427 83H237.686V78.0729H238.427V83ZM241.914 83.1951C240.382 83.1951 239.309 82.0926 239.309 80.5413C239.309 78.9803 240.324 77.8778 241.768 77.8778C242.88 77.8778 243.787 78.5705 244.031 79.5657L243.309 79.7316C243.114 79.0193 242.49 78.5608 241.768 78.5608C240.782 78.5608 240.051 79.3608 240.051 80.5413C240.051 81.7219 240.841 82.5219 241.914 82.5219C242.812 82.5219 243.553 81.9463 243.69 81.0975L244.412 81.2438C244.226 82.3756 243.182 83.1951 241.914 83.1951ZM245.546 77.1168C245.214 77.1168 245 76.9021 245 76.5704C245 76.2485 245.214 76.0338 245.546 76.0338C245.868 76.0338 246.102 76.2485 246.102 76.5704C246.102 76.9021 245.868 77.1168 245.546 77.1168ZM245.907 83H245.165V78.0729H245.907V83ZM249.511 83.1951C247.94 83.1951 246.788 82.0536 246.788 80.4828C246.788 78.9705 247.842 77.8778 249.306 77.8778C250.75 77.8778 251.696 78.9705 251.716 80.4926C251.716 80.5804 251.716 80.6877 251.706 80.7853H247.559C247.667 81.8097 248.457 82.5219 249.52 82.5219C250.291 82.5219 250.945 82.1219 251.218 81.5853L251.862 81.8487C251.54 82.639 250.613 83.1951 249.511 83.1951ZM247.569 80.1316H250.925C250.828 79.1266 250.194 78.5608 249.296 78.5608C248.379 78.5608 247.706 79.1949 247.569 80.1316ZM255.23 77.8778C256.362 77.8778 257.055 78.5998 257.055 79.8194V83H256.303V79.8974C256.303 79.0583 255.806 78.5217 255.025 78.5217C254.04 78.5217 253.328 79.2145 253.328 80.2194V83H252.586V78.0729H253.259L253.328 78.8047H253.337C253.757 78.2095 254.371 77.8778 255.23 77.8778ZM260.389 83.1951C258.857 83.1951 257.784 82.0926 257.784 80.5413C257.784 78.9803 258.798 77.8778 260.242 77.8778C261.355 77.8778 262.262 78.5705 262.506 79.5657L261.784 79.7316C261.589 79.0193 260.964 78.5608 260.242 78.5608C259.257 78.5608 258.525 79.3608 258.525 80.5413C258.525 81.7219 259.315 82.5219 260.389 82.5219C261.286 82.5219 262.028 81.9463 262.164 81.0975L262.886 81.2438C262.701 82.3756 261.657 83.1951 260.389 83.1951ZM265.464 85.244C264.245 85.244 263.338 84.7367 262.957 83.9561L263.591 83.5269C263.903 84.1513 264.567 84.5708 265.445 84.5708C266.557 84.5708 267.24 83.9464 267.24 82.9024V82.4731H267.23C266.889 83.0488 266.225 83.3903 265.543 83.3903C264.313 83.3903 263.513 82.4731 263.513 81.2145V78.0729H264.255V81.2145C264.255 82.0926 264.772 82.7171 265.63 82.7171C266.489 82.7171 267.23 82.0439 267.23 81.1072V78.0729H267.972L267.982 82.9024C267.982 84.3757 267.006 85.244 265.464 85.244ZM272.355 85.0489H271.613V78.0729H272.257L272.335 78.9218H272.345C272.764 78.2681 273.438 77.8778 274.267 77.8778C275.711 77.8778 276.774 78.9998 276.774 80.5413C276.774 82.0731 275.711 83.1951 274.277 83.1951C273.457 83.1951 272.794 82.8146 272.364 82.1804H272.355V85.0489ZM274.179 82.5122C275.252 82.5122 276.023 81.6536 276.023 80.5413C276.023 79.3998 275.243 78.5608 274.179 78.5608C273.116 78.5608 272.335 79.4193 272.335 80.5413C272.335 81.6536 273.116 82.5122 274.179 82.5122ZM280.086 83.1951C278.515 83.1951 277.363 82.0536 277.363 80.4828C277.363 78.9705 278.417 77.8778 279.881 77.8778C281.325 77.8778 282.271 78.9705 282.291 80.4926C282.291 80.5804 282.291 80.6877 282.281 80.7853H278.134C278.242 81.8097 279.032 82.5219 280.095 82.5219C280.866 82.5219 281.52 82.1219 281.793 81.5853L282.437 81.8487C282.115 82.639 281.188 83.1951 280.086 83.1951ZM278.144 80.1316H281.5C281.403 79.1266 280.769 78.5608 279.871 78.5608C278.954 78.5608 278.281 79.1949 278.144 80.1316ZM285.298 77.868C286.137 77.868 286.712 78.4242 286.81 79.4096L286.166 79.6242C286.088 78.9315 285.727 78.5608 285.19 78.5608C284.4 78.5608 283.903 79.2145 283.903 80.2877V83H283.161V78.0729H283.795L283.863 78.8437H283.873C284.146 78.2486 284.673 77.868 285.298 77.868ZM292.564 83.1951C291.033 83.1951 289.959 82.0926 289.959 80.5413C289.959 78.9803 290.974 77.8778 292.418 77.8778C293.53 77.8778 294.438 78.5705 294.682 79.5657L293.96 79.7316C293.764 79.0193 293.14 78.5608 292.418 78.5608C291.433 78.5608 290.701 79.3608 290.701 80.5413C290.701 81.7219 291.491 82.5219 292.564 82.5219C293.462 82.5219 294.203 81.9463 294.34 81.0975L295.062 81.2438C294.877 82.3756 293.833 83.1951 292.564 83.1951ZM297.357 83.1951C296.235 83.1951 295.455 82.5902 295.455 81.7121C295.455 80.9219 296.079 80.2877 297.679 80.0925L298.899 79.9462C299.143 79.9169 299.299 79.7803 299.299 79.5657C299.299 78.951 298.713 78.551 297.855 78.551C296.928 78.551 296.274 79.1462 296.235 79.7316L295.562 79.4486C295.65 78.6388 296.606 77.8778 297.884 77.8778C299.143 77.8778 300.031 78.5803 300.031 79.6828V82.1804C300.031 82.3756 300.138 82.5122 300.294 82.5122C300.431 82.5122 300.587 82.3951 300.694 82.2195L301.094 82.6878C300.889 82.9902 300.479 83.1951 300.099 83.1951C299.621 83.1951 299.318 82.8537 299.289 82.4048L299.279 82.1804H299.269C298.918 82.8049 298.235 83.1951 297.357 83.1951ZM297.484 82.5219C298.518 82.5219 299.279 81.8487 299.279 80.8926V80.5413L297.757 80.7267C296.567 80.8731 296.196 81.2536 296.196 81.7024C296.196 82.2 296.733 82.5219 297.484 82.5219ZM302.32 85.0489H301.578V78.0729H302.222L302.3 78.9218H302.31C302.73 78.2681 303.403 77.8778 304.232 77.8778C305.676 77.8778 306.74 78.9998 306.74 80.5413C306.74 82.0731 305.676 83.1951 304.242 83.1951C303.422 83.1951 302.759 82.8146 302.33 82.1804H302.32V85.0489ZM304.144 82.5122C305.218 82.5122 305.988 81.6536 305.988 80.5413C305.988 79.3998 305.208 78.5608 304.144 78.5608C303.081 78.5608 302.3 79.4193 302.3 80.5413C302.3 81.6536 303.081 82.5122 304.144 82.5122ZM307.973 77.1168C307.641 77.1168 307.426 76.9021 307.426 76.5704C307.426 76.2485 307.641 76.0338 307.973 76.0338C308.295 76.0338 308.529 76.2485 308.529 76.5704C308.529 76.9021 308.295 77.1168 307.973 77.1168ZM308.334 83H307.592V78.0729H308.334V83ZM311.557 83.1951C310.63 83.1951 310.006 82.5707 310.006 81.6731V78.6876H308.923V78.0729H310.006V76.6095L310.747 76.4338V78.0729H312.952V78.6876H310.747V81.5951C310.747 82.1512 311.089 82.5512 311.625 82.5512C312.123 82.5512 312.581 82.1902 312.679 81.556L313.284 81.8097C313.147 82.6683 312.396 83.1951 311.557 83.1951ZM315.613 83.1951C314.491 83.1951 313.71 82.5902 313.71 81.7121C313.71 80.9219 314.335 80.2877 315.935 80.0925L317.154 79.9462C317.398 79.9169 317.554 79.7803 317.554 79.5657C317.554 78.951 316.969 78.551 316.11 78.551C315.183 78.551 314.53 79.1462 314.491 79.7316L313.817 79.4486C313.905 78.6388 314.861 77.8778 316.14 77.8778C317.398 77.8778 318.286 78.5803 318.286 79.6828V82.1804C318.286 82.3756 318.393 82.5122 318.549 82.5122C318.686 82.5122 318.842 82.3951 318.949 82.2195L319.349 82.6878C319.145 82.9902 318.735 83.1951 318.354 83.1951C317.876 83.1951 317.574 82.8537 317.544 82.4048L317.535 82.1804H317.525C317.174 82.8049 316.491 83.1951 315.613 83.1951ZM315.739 82.5219C316.774 82.5219 317.535 81.8487 317.535 80.8926V80.5413L316.013 80.7267C314.822 80.8731 314.452 81.2536 314.452 81.7024C314.452 82.2 314.988 82.5219 315.739 82.5219ZM324.443 80.3852H324.073V79.0486C324.073 78.7852 323.917 78.6876 323.692 78.8242L322.531 79.4974L322.346 79.1754L323.497 78.5022C323.721 78.3656 323.721 78.19 323.497 78.0534L322.346 77.39L322.531 77.0583L323.692 77.7315C323.917 77.868 324.073 77.7705 324.073 77.5071V76.1704H324.443V77.5071C324.443 77.7705 324.609 77.868 324.834 77.7315L325.995 77.0583L326.18 77.39L325.019 78.0534C324.795 78.19 324.795 78.3656 325.019 78.5022L326.18 79.1754L325.995 79.4974L324.834 78.8242C324.609 78.6876 324.443 78.7852 324.443 79.0486V80.3852ZM333.696 83H329.393V82.278H331.335V77.2144H331.325C331.062 77.6241 330.525 77.8973 329.881 78.1022L329.637 77.3022C330.506 77.107 331.091 76.707 331.403 76.1216H332.155V82.278H333.696V83ZM337.015 83.2439C335.268 83.2439 334.088 81.6926 334.088 79.5657C334.088 77.429 335.268 75.8777 337.015 75.8777C338.751 75.8777 339.932 77.429 339.932 79.5657C339.932 81.6926 338.751 83.2439 337.015 83.2439ZM337.015 82.5219C338.283 82.5219 339.122 81.2731 339.122 79.5657C339.122 77.8485 338.283 76.5997 337.015 76.5997C335.746 76.5997 334.897 77.8485 334.897 79.5657C334.897 81.2731 335.746 82.5219 337.015 82.5219ZM342.073 80.1463C341.206 80.1463 340.597 79.6078 340.551 78.8058L341.019 78.7121C341.048 79.3092 341.47 79.7132 342.067 79.7132C342.67 79.7132 343.068 79.3151 343.068 78.6946C343.068 78.0916 342.681 77.6935 342.09 77.6935C341.792 77.6935 341.475 77.834 341.323 78.0389L340.984 77.9336L341.113 75.873H343.132V76.3062H341.546L341.446 77.5472C341.598 77.3891 341.909 77.2838 342.219 77.2838C343.027 77.2838 343.554 77.834 343.554 78.6829C343.554 79.5727 342.974 80.1463 342.073 80.1463Z" fill="white"/>
<path d="M54.9484 158.668H54.1581V151.79H56.9778C58.451 151.79 59.4755 152.658 59.4755 153.878C59.4755 155.098 58.4413 155.956 56.9778 155.956H54.9484V158.668ZM54.9484 152.512V155.224H56.9778C57.9632 155.224 58.6657 154.668 58.6657 153.878C58.6657 153.078 57.973 152.512 56.9778 152.512H54.9484ZM61.7492 158.864C60.6272 158.864 59.8467 158.259 59.8467 157.381C59.8467 156.59 60.4711 155.956 62.0712 155.761L63.2907 155.615C63.5347 155.585 63.6908 155.449 63.6908 155.234C63.6908 154.619 63.1054 154.219 62.2468 154.219C61.3199 154.219 60.6662 154.815 60.6272 155.4L59.954 155.117C60.0418 154.307 60.998 153.546 62.2761 153.546C63.5347 153.546 64.4225 154.249 64.4225 155.351V157.849C64.4225 158.044 64.5298 158.181 64.6859 158.181C64.8225 158.181 64.9786 158.064 65.086 157.888L65.486 158.356C65.2811 158.659 64.8713 158.864 64.4908 158.864C64.0127 158.864 63.7103 158.522 63.681 158.073L63.6713 157.849H63.6615C63.3103 158.473 62.6273 158.864 61.7492 158.864ZM61.876 158.19C62.9102 158.19 63.6713 157.517 63.6713 156.561V156.21L62.1492 156.395C60.9589 156.542 60.5882 156.922 60.5882 157.371C60.5882 157.868 61.1248 158.19 61.876 158.19ZM66.7119 160.717H65.9704V153.741H66.6144L66.6924 154.59H66.7022C67.1217 153.937 67.7949 153.546 68.6242 153.546C70.0682 153.546 71.1317 154.668 71.1317 156.21C71.1317 157.742 70.0682 158.864 68.634 158.864C67.8144 158.864 67.151 158.483 66.7217 157.849H66.7119V160.717ZM68.5364 158.181C69.6096 158.181 70.3804 157.322 70.3804 156.21C70.3804 155.068 69.5999 154.229 68.5364 154.229C67.473 154.229 66.6924 155.088 66.6924 156.21C66.6924 157.322 67.473 158.181 68.5364 158.181ZM74.4428 158.864C72.872 158.864 71.7207 157.722 71.7207 156.151C71.7207 154.639 72.7744 153.546 74.2379 153.546C75.6819 153.546 76.6283 154.639 76.6478 156.161C76.6478 156.249 76.6478 156.356 76.638 156.454H72.4915C72.5988 157.478 73.3891 158.19 74.4526 158.19C75.2233 158.19 75.877 157.79 76.1502 157.254L76.7941 157.517C76.4722 158.307 75.5453 158.864 74.4428 158.864ZM72.5012 155.8H75.8575C75.7599 154.795 75.1258 154.229 74.2282 154.229C73.311 154.229 72.6378 154.863 72.5012 155.8ZM79.6549 153.537C80.494 153.537 81.0696 154.093 81.1672 155.078L80.5233 155.293C80.4452 154.6 80.0842 154.229 79.5476 154.229C78.7573 154.229 78.2598 154.883 78.2598 155.956V158.668H77.5183V153.741H78.1524L78.2207 154.512H78.2305C78.5037 153.917 79.0305 153.537 79.6549 153.537Z" fill="white"/>
<path d="M164.381 105.007H163.571V98.1289H164.381V105.007ZM168.099 99.8851C169.231 99.8851 169.924 100.607 169.924 101.827V105.007H169.173V101.905C169.173 101.066 168.675 100.529 167.895 100.529C166.909 100.529 166.197 101.222 166.197 102.227V105.007H165.455V100.08H166.129L166.197 100.812H166.207C166.626 100.217 167.241 99.8851 168.099 99.8851ZM173.258 105.202C171.726 105.202 170.653 104.1 170.653 102.549C170.653 100.988 171.668 99.8851 173.112 99.8851C174.224 99.8851 175.131 100.578 175.375 101.573L174.653 101.739C174.458 101.027 173.834 100.568 173.112 100.568C172.126 100.568 171.395 101.368 171.395 102.549C171.395 103.729 172.185 104.529 173.258 104.529C174.156 104.529 174.897 103.954 175.034 103.105L175.756 103.251C175.57 104.383 174.526 105.202 173.258 105.202ZM176.89 99.1241C176.558 99.1241 176.344 98.9095 176.344 98.5777C176.344 98.2558 176.558 98.0411 176.89 98.0411C177.212 98.0411 177.446 98.2558 177.446 98.5777C177.446 98.9095 177.212 99.1241 176.89 99.1241ZM177.251 105.007H176.509V100.08H177.251V105.007ZM180.972 99.8851C182.103 99.8851 182.796 100.607 182.796 101.827V105.007H182.045V101.905C182.045 101.066 181.547 100.529 180.767 100.529C179.781 100.529 179.069 101.222 179.069 102.227V105.007H178.328V100.08H179.001L179.069 100.812H179.079C179.498 100.217 180.113 99.8851 180.972 99.8851ZM186.247 105.202C184.677 105.202 183.525 104.061 183.525 102.49C183.525 100.978 184.579 99.8851 186.043 99.8851C187.486 99.8851 188.433 100.978 188.452 102.5C188.452 102.588 188.452 102.695 188.443 102.793H184.296C184.403 103.817 185.194 104.529 186.257 104.529C187.028 104.529 187.682 104.129 187.955 103.593L188.599 103.856C188.277 104.646 187.35 105.202 186.247 105.202ZM184.306 102.139H187.662C187.565 101.134 186.93 100.568 186.033 100.568C185.116 100.568 184.442 101.202 184.306 102.139ZM191.46 99.8754C192.299 99.8754 192.874 100.431 192.972 101.417L192.328 101.632C192.25 100.939 191.889 100.568 191.352 100.568C190.562 100.568 190.064 101.222 190.064 102.295V105.007H189.323V100.08H189.957L190.025 100.851H190.035C190.308 100.256 190.835 99.8754 191.46 99.8754ZM195.23 105.202C194.108 105.202 193.327 104.598 193.327 103.719C193.327 102.929 193.952 102.295 195.552 102.1L196.771 101.954C197.015 101.924 197.171 101.788 197.171 101.573C197.171 100.958 196.586 100.558 195.727 100.558C194.8 100.558 194.147 101.153 194.108 101.739L193.435 101.456C193.522 100.646 194.479 99.8851 195.757 99.8851C197.015 99.8851 197.903 100.588 197.903 101.69V104.188C197.903 104.383 198.01 104.519 198.166 104.519C198.303 104.519 198.459 104.402 198.567 104.227L198.967 104.695C198.762 104.998 198.352 105.202 197.971 105.202C197.493 105.202 197.191 104.861 197.162 104.412L197.152 104.188H197.142C196.791 104.812 196.108 105.202 195.23 105.202ZM195.357 104.529C196.391 104.529 197.152 103.856 197.152 102.9V102.549L195.63 102.734C194.439 102.88 194.069 103.261 194.069 103.71C194.069 104.207 194.605 104.529 195.357 104.529ZM202.105 105.202C201.275 105.202 200.602 104.812 200.183 104.159H200.173L200.095 105.007H199.451V97.8363H200.192V100.91H200.202C200.632 100.266 201.295 99.8851 202.115 99.8851C203.549 99.8851 204.612 101.007 204.612 102.549C204.612 104.08 203.549 105.202 202.105 105.202ZM202.017 104.529C203.08 104.529 203.861 103.68 203.861 102.549C203.861 101.427 203.09 100.568 202.017 100.568C200.954 100.568 200.173 101.427 200.173 102.549C200.173 103.661 200.954 104.529 202.017 104.529ZM206.138 105.007H205.396V97.8363H206.138V105.007ZM209.638 105.202C208.068 105.202 206.916 104.061 206.916 102.49C206.916 100.978 207.97 99.8851 209.433 99.8851C210.877 99.8851 211.824 100.978 211.843 102.5C211.843 102.588 211.843 102.695 211.834 102.793H207.687C207.794 103.817 208.585 104.529 209.648 104.529C210.419 104.529 211.073 104.129 211.346 103.593L211.99 103.856C211.668 104.646 210.741 105.202 209.638 105.202ZM207.697 102.139H211.053C210.956 101.134 210.321 100.568 209.424 100.568C208.507 100.568 207.833 101.202 207.697 102.139Z" fill="white"/>
<path d="M164.381 132.883H163.571V126.004H164.381V132.883ZM167.592 127.751C168.431 127.751 169.007 128.307 169.104 129.292L168.46 129.507C168.382 128.814 168.021 128.444 167.485 128.444C166.695 128.444 166.197 129.097 166.197 130.17V132.883H165.455V127.956H166.09L166.158 128.727H166.168C166.441 128.131 166.968 127.751 167.592 127.751ZM172.125 133.078C170.544 133.078 169.5 132.024 169.5 130.424C169.5 128.814 170.544 127.761 172.125 127.761C173.715 127.761 174.759 128.814 174.759 130.424C174.759 132.024 173.715 133.078 172.125 133.078ZM172.125 132.405C173.266 132.405 174.008 131.624 174.008 130.424C174.008 129.224 173.266 128.444 172.125 128.444C170.983 128.444 170.242 129.224 170.242 130.424C170.242 131.624 170.983 132.405 172.125 132.405ZM178.18 127.761C179.312 127.761 180.004 128.483 180.004 129.702V132.883H179.253V129.78C179.253 128.941 178.756 128.405 177.975 128.405C176.99 128.405 176.277 129.097 176.277 130.102V132.883H175.536V127.956H176.209L176.277 128.687H176.287C176.707 128.092 177.321 127.761 178.18 127.761Z" fill="white"/>
<circle cx="9.05967" cy="9.05967" r="8.90967" transform="matrix(-1 0 0 1 200.618 62.9497)" stroke="white" stroke-width="0.3"/>
<circle cx="5.22673" cy="5.22673" r="4.87828" transform="matrix(-1 0 0 1 41.7256 72.7065)" stroke="white" stroke-width="0.696897"/>
<circle cx="5.22673" cy="5.22673" r="4.87828" transform="matrix(-1 0 0 1 41.7256 72.7065)" stroke="white" stroke-width="0.696897"/>
<circle cx="8.36277" cy="8.36277" r="8.01432" transform="matrix(-1 0 0 1 44.5132 66.4346)" stroke="white" stroke-width="0.696897"/>
<circle cx="11.4988" cy="11.4988" r="11.1504" transform="matrix(-1 0 0 1 47.9976 60.1621)" stroke="white" stroke-width="0.696897"/>
<path d="M37.048 24H31.72V15.54H32.716V23.112H37.048V24ZM40.5791 24.24C38.6471 24.24 37.2311 22.836 37.2311 20.904C37.2311 19.044 38.5271 17.7 40.3271 17.7C42.1031 17.7 43.2671 19.044 43.2911 20.916C43.2911 21.024 43.2911 21.156 43.2791 21.276H38.1791C38.3111 22.536 39.2831 23.412 40.5911 23.412C41.5391 23.412 42.3431 22.92 42.6791 22.26L43.4711 22.584C43.0751 23.556 41.9351 24.24 40.5791 24.24ZM38.1911 20.472H42.3191C42.1991 19.236 41.4191 18.54 40.3151 18.54C39.1871 18.54 38.3591 19.32 38.1911 20.472ZM46.9897 26.76C45.5617 26.76 44.2297 26.112 43.6417 25.14L44.3497 24.54C44.8297 25.38 45.8617 25.932 46.9657 25.932C48.4657 25.932 49.4617 24.984 49.4617 23.52V22.848H49.4497C48.9697 23.604 48.0097 24.072 47.1577 24.072C45.3697 24.072 44.1337 22.788 44.1337 20.928C44.1337 19.02 45.3697 17.724 47.1577 17.724C48.0337 17.724 48.9697 18.216 49.4617 18.924H49.4737L49.5697 17.94H50.3857V23.52C50.3857 25.488 49.0297 26.76 46.9897 26.76ZM47.2777 23.244C48.5857 23.244 49.4977 22.248 49.4977 20.928C49.4977 19.572 48.5857 18.54 47.2777 18.54C45.9577 18.54 45.0457 19.512 45.0457 20.928C45.0457 22.296 45.9577 23.244 47.2777 23.244ZM54.6885 24.24C52.7565 24.24 51.3405 22.836 51.3405 20.904C51.3405 19.044 52.6365 17.7 54.4365 17.7C56.2125 17.7 57.3765 19.044 57.4005 20.916C57.4005 21.024 57.4005 21.156 57.3885 21.276H52.2885C52.4205 22.536 53.3925 23.412 54.7005 23.412C55.6485 23.412 56.4525 22.92 56.7885 22.26L57.5805 22.584C57.1845 23.556 56.0445 24.24 54.6885 24.24ZM52.3005 20.472H56.4285C56.3085 19.236 55.5285 18.54 54.4245 18.54C53.2965 18.54 52.4685 19.32 52.3005 20.472ZM61.7231 17.7C63.1151 17.7 63.9671 18.588 63.9671 20.088V24H63.0431V20.184C63.0431 19.152 62.4311 18.492 61.4711 18.492C60.2591 18.492 59.3831 19.344 59.3831 20.58V24H58.4711V17.94H59.2991L59.3831 18.84H59.3951C59.9111 18.108 60.6671 17.7 61.7231 17.7ZM67.9479 24.24C66.1719 24.24 64.8639 22.86 64.8639 20.976C64.8639 19.08 66.1599 17.7 67.9359 17.7C68.9439 17.7 69.7599 18.168 70.2759 18.96H70.2879V15.18H71.2119V24H70.4079L70.3239 22.956H70.3119C69.7959 23.76 68.9559 24.24 67.9479 24.24ZM68.0559 23.412C69.3639 23.412 70.3239 22.344 70.3239 20.976C70.3239 19.596 69.3639 18.54 68.0559 18.54C66.7359 18.54 65.7759 19.596 65.7759 20.976C65.7759 22.368 66.7479 23.412 68.0559 23.412Z" fill="#FFF1F1"/>
<rect x="0.5" y="0.5" width="349" height="187" stroke="white"/>
</svg>
